<?xml version="1.0" encoding="utf-8"?>
<!-- Generator: Adobe Illustrator 21.1.0, SVG Export Plug-In . SVG Version: 6.00 Build 0)  -->
<svg version="1.1" id="Calque_1" xmlns="http://www.w3.org/2000/svg" xmlns:xlink="http://www.w3.org/1999/xlink" x="0px" y="0px"
	 viewBox="0 0 243.1 80.5" style="enable-background:new 0 0 243.1 80.5;" width="361.55" height="119.79" xml:space="preserve">
<style type="text/css">
	.st0{opacity:0.2;fill:#808080;}
	.st1{fill:#666666;}
	.st2{fill:#7FD787;}
	.st3{opacity:0.28;fill:#7FD787;enable-background:new    ;}
</style>
<g>
	<path id="path16_2_" class="st0" d="M222.8,76.4c-11.2,0-20.2-6.1-20.2-13.5
		c0-7.5,9.1-13.5,20.2-13.5c11.2,0,20.2,6.1,20.2,13.5C243.1,70.4,234,76.4,222.8,76.4z M225.9,54.6c-8.5,0-15.4,4.1-15.4,9.3
		s6.9,9.3,15.4,9.3c8.5,0,14.8-2.8,14.8-9.3C240.7,57.5,234.4,54.6,225.9,54.6L225.9,54.6z"/>
	<path id="path18_2_" class="st1" d="M233.4,70.3c0,0,1.2,0.4,1.9,0.7c0.2,0.1,0.7,0.4,1,0.7
		c0.3,0.3,0.4,0.6,0.4,0.6l4.8,8.1l-7.8,0l-3.6-6.8c0,0-0.7-1.3-1.2-1.7c-0.4-0.3-0.5-0.4-0.9-0.4c-0.3,0-1.9,0-1.9,0l0,8.9l-6.9,0
		V57.7h13.9c0,0,6.3,0.1,6.3,6.1C239.4,69.9,233.4,70.3,233.4,70.3L233.4,70.3z M230.4,62.7l-4.2,0l0,3.9l4.2,0c0,0,1.9,0,1.9-2
		C232.3,62.6,230.4,62.7,230.4,62.7L230.4,62.7z"/>
	<g>
		<path class="st2" d="M79.7,15.9L79.7,15.9L79.7,15.9L79.7,15.9z M71.4,38.4c-0.5-1.2-0.8-2.5-0.8-3.8c0-0.9,0-18.8,0-18.8h9.1
			l-1.2-2.3h-7.9V5.2h-2.6v8.2h-8l-1.2,2.4h9.2c0,0,0,17.1,0,18c-0.1,1.9,0.2,3.9,0.9,5.5c0,0.1,0.8,1.6,1.9,3.1
			c0.6,0.6,1.8,1.7,3.5,2.9l1.2-2.4c-1.3-0.9-2.2-1.6-2.7-2.2C71.9,39.5,71.4,38.4,71.4,38.4z M42.3,4.9c-1.6,1-2.8,2.3-3.8,3.7
			C38.1,9.3,31.4,19.2,27.7,25C24.5,29.7,16.5,41.7,16,42.5c-1.3,2.2-3.1,4.1-5.2,5.5c0,0.1-2.3,1.4-5,2.3c-0.2,0-0.4,0.1-0.5,0.1
			H45c-0.1,0-0.2-0.1-0.4-0.1c-2.7-0.9-4.9-2.2-5-2.3c-2.1-1.4-3.9-3.3-5.2-5.5c-0.4-0.6-5.6-8.4-9.3-13.9c0.9-1.3,1.6-2.5,2.3-3.3
			c0,0.1,0.1,0.1,0.1,0.2c3.8,5.7,10.5,15.7,10.9,16.4c1,1.4,2.2,2.7,3.8,3.7c0,0,1.6,1.1,3.8,1.7c0.9,0.3,2.4,0.5,4.3,0.8v2.3h0.1
			V2.4c-1.9,0.2-3.5,0.4-4.3,0.8C44,3.8,42.3,4.9,42.3,4.9z M11.9,41.9c0.4-0.8,7.1-10.7,10.9-16.4c3.1-4.9,11.1-16.7,11.7-17.6
			c1.3-2.2,3.1-4.1,5.2-5.5c0-0.1,2.3-1.4,5-2.3C44.8,0.1,45,0,45.2,0H5.4c0.1,0,0.3,0.1,0.4,0.1c2.7,0.9,4.9,2.2,5,2.3
			c2.1,1.4,3.9,3.3,5.2,5.5c0.4,0.6,5.6,8.4,9.3,13.9c-0.9,1.3-1.6,2.5-2.3,3.3c0-0.1-0.1-0.1-0.1-0.2C19,19.3,12.3,9.3,11.9,8.5
			c-1-1.4-2.2-2.7-3.8-3.7c0,0-1.6-1.1-3.8-1.7C3.5,2.8,1.9,2.6,0,2.4v45.8c1.9-0.2,3.5-0.4,4.3-0.8c2.2-0.6,3.8-1.7,3.8-1.7
			C9.7,44.5,11,43.3,11.9,41.9z M201.3,12.7c-9.6,0-13.4,5.4-13.4,16.7c0,11.5,3.8,16.7,13.4,16.7c9.6,0,13.4-5.4,13.4-16.7
			C214.7,18,210.9,12.7,201.3,12.7z M201.3,44.1c-9.1,0-10.9-5.7-10.9-14.5s1.8-14.5,10.9-14.5c9.1,0,10.9,5.7,10.9,14.5
			C212.2,38.2,210.3,44,201.3,44.1z M237.7,12.7c-4.6,0.2-7.8,1.8-9.8,5v-4.5c-0.9,0.1-1.7,0.3-2.5,0.5v32.1
			c0.8,0.2,1.6,0.4,2.5,0.5v-17c0-8.8,1.8-14.5,10.9-14.5l0,0L237.7,12.7z M101,12.7c-5.8,0-12.7,2.2-12.7,16.9
			c0,13.6,5.9,16.7,13.3,16.7c4,0,7.5-0.8,10.4-2.5l-1-2.2c-3,1.7-5.8,2.4-9.4,2.4c-5.8,0-10.4-2.1-10.8-12.4v-1.3h22.5l0,0v-0.9
			C113.3,16.9,108.7,12.7,101,12.7z M90.6,28c0.2-11,5.1-13,10.3-13c5.7,0,9.7,3,9.7,13H90.6z M136.3,12.6h-1.4
			c-9.5,0-10.8,8-10.8,15v16.9c0.8,0.6,1.6,1.2,2.6,1.6V28.4c0-7.9,1.2-13.5,8.6-13.5h0.6c7.5,0,8.6,5.5,8.6,13.5v17.8
			c0.9-0.4,1.8-1,2.6-1.6V27.8C147.1,20.6,145.7,12.6,136.3,12.6z M168.9,28c-5-1.4-8-2.7-8-6.8c0-4.8,3.3-6.2,7.6-6.2
			c2.8,0,5.4,0.4,7.8,1.6l1-2.2c-2.8-1.4-5.8-1.7-8.8-1.7c-5.2,0-9.9,2.4-9.9,8.3s4.2,7.8,9.4,9.2c4.9,1.3,8.8,2.4,8.8,6.7
			c0,5.3-3.8,7-8,7c-3.8,0-7.5-1-10.2-2.8l-1.1,2.1c3.2,2.2,7.1,2.9,11.3,2.9c5.5,0,10.4-2.5,10.4-9.2
			C179.1,30.9,174.4,29.6,168.9,28z"/>
		<path class="st3" d="M27.4,25.2c-0.6,0.9-1.4,2.1-2.3,3.3c3.7,5.5,8.8,13.3,9.3,13.9c1.3,2.2,3.1,4.1,5.2,5.5c0,0.1,2.3,1.4,5,2.3
			c0.2,0,0.4,0.1,0.5,0.1h5.2V48c-1.9-0.2-3.5-0.4-4.3-0.8c-2.2-0.6-3.8-1.7-3.8-1.7c-1.6-1-2.8-2.3-3.8-3.7
			c-0.4-0.8-7.1-10.7-10.9-16.4l0,0C27.5,25.4,27.5,25.3,27.4,25.2 M5.2,0H0v2.4c1.9,0.2,3.5,0.4,4.3,0.8c2.2,0.6,3.8,1.7,3.8,1.7
			c1.6,1,2.8,2.3,3.8,3.7C12.3,9.3,19,19.2,22.8,25l0,0c0,0.1,0.1,0.1,0.1,0.2c0.6-0.9,1.4-2.1,2.3-3.3c-3.7-5.5-8.8-13.3-9.3-13.9
			c-1.3-2.2-3.1-4.1-5.2-5.5c0-0.1-2.3-1.4-5-2.3C5.6,0.1,5.4,0,5.2,0"/>
	</g>
</g>
</svg>
