<?xml version="1.0" encoding="UTF-8" standalone="no"?>
<!-- Generator: Adobe Illustrator 21.0.2, SVG Export Plug-In . SVG Version: 6.00 Build 0)  -->

<svg
   xmlns:dc="http://purl.org/dc/elements/1.1/"
   xmlns:cc="http://creativecommons.org/ns#"
   xmlns:rdf="http://www.w3.org/1999/02/22-rdf-syntax-ns#"
   xmlns:svg="http://www.w3.org/2000/svg"
   xmlns="http://www.w3.org/2000/svg"
   xmlns:sodipodi="http://sodipodi.sourceforge.net/DTD/sodipodi-0.dtd"
   xmlns:inkscape="http://www.inkscape.org/namespaces/inkscape"
   version="1.1"
   id="Calque_1"
   x="0px"
   y="0px"
   viewBox="0 0 216.9 46.800001"
   width="695.1923"
   height="150"
   xml:space="preserve"
   inkscape:version="0.91 r13725"
   sodipodi:docname="xframe.svg"><metadata
     id="metadata13"><rdf:RDF><cc:Work
         rdf:about=""><dc:format>image/svg+xml</dc:format><dc:type
           rdf:resource="http://purl.org/dc/dcmitype/StillImage" /><dc:title></dc:title></cc:Work></rdf:RDF></metadata><defs
     id="defs11" /><sodipodi:namedview
     pagecolor="#ffffff"
     bordercolor="#666666"
     borderopacity="1"
     objecttolerance="10"
     gridtolerance="10"
     guidetolerance="10"
     inkscape:pageopacity="0"
     inkscape:pageshadow="2"
     inkscape:window-width="981"
     inkscape:window-height="480"
     id="namedview9"
     showgrid="false"
     fit-margin-top="0"
     fit-margin-left="0"
     fit-margin-right="0"
     fit-margin-bottom="0"
     inkscape:zoom="0.51604429"
     inkscape:cx="305.20636"
     inkscape:cy="75.000007"
     inkscape:window-x="0"
     inkscape:window-y="23"
     inkscape:window-maximized="0"
     inkscape:current-layer="Calque_1" /><style
     type="text/css"
     id="style3">
	.st0{opacity:0.28;fill:#97D23D;enable-background:new    ;}
	.st1{fill:#97D23D;}
</style><path
     class="st0"
     d="m 25.5,23.4 c -0.6,0.8 -1.3,1.9 -2.1,3.1 3.4,5.1 8.2,12.3 8.6,13 1.2,2 2.9,3.8 4.9,5.1 0,0.1 2.1,1.3 4.6,2.1 0.2,0 0.4,0.1 0.5,0.1 l 4.8,0 0,-2.2 c -1.8,-0.2 -3.2,-0.4 -4,-0.7 -2,-0.6 -3.5,-1.6 -3.5,-1.6 -1.5,-0.9 -2.7,-2.1 -3.5,-3.4 -0.4,-0.7 -6.6,-10 -10.1,-15.3 l 0,0 c -0.1,0 -0.1,-0.1 -0.2,-0.2 M 4.8,0 0,0 0,2.2 c 1.8,0.2 3.2,0.4 4,0.7 2,0.6 3.5,1.6 3.5,1.6 1.5,1 2.7,2.2 3.5,3.5 0.4,0.7 6.6,10 10.1,15.3 l 0,0 c 0,0.1 0.1,0.1 0.1,0.2 0.6,-0.8 1.3,-1.9 2.1,-3.1 C 19.9,15.3 15.1,8.1 14.7,7.4 13.5,5.4 11.8,3.6 9.8,2.3 9.8,2.2 7.7,1 5.2,0.2 5.2,0.1 5,0.1 4.8,0"
     id="path5"
     inkscape:connector-curvature="0"
     style="opacity:0.28000004;fill:#97d23d;enable-background:new" /><path
     class="st1"
     d="m 36.8,44.6 c -2,-1.3 -3.6,-3.1 -4.9,-5.1 -0.4,-0.7 -5.2,-7.8 -8.6,-12.9 -3.3,5.1 -8.1,12.2 -8.5,12.9 -1.2,2 -2.9,3.8 -4.9,5.1 0,0.1 -2.1,1.3 -4.6,2.1 -0.2,0 -0.4,0.1 -0.5,0.1 l 36.9,0 c -0.1,0 -0.2,-0.1 -0.4,-0.1 -2.4,-0.8 -4.4,-2 -4.5,-2.1 z M 23.4,20.3 c -0.6,0.9 -1.2,1.8 -1.7,2.6 0.5,-0.8 1.1,-1.7 1.7,-2.6 0,0 0,0 0,0 z M 11.1,38.9 c 0.4,-0.7 6.6,-10 10.1,-15.3 0.2,-0.2 0.3,-0.5 0.5,-0.8 -0.1,0.2 -0.3,0.4 -0.4,0.6 0,-0.1 -0.1,-0.1 -0.1,-0.2 C 17.7,17.9 11.5,8.6 11.1,7.9 10.3,6.6 9.1,5.4 7.6,4.5 7.6,4.5 6.1,3.5 4.1,2.9 3.2,2.7 1.8,2.4 0,2.2 L 0,44.7 C 1.8,44.5 3.2,44.3 4,44 6,43.4 7.5,42.4 7.5,42.4 9,41.4 10.2,40.2 11.1,38.9 Z M 39.3,4.6 C 37.8,5.5 36.6,6.7 35.8,8 35.4,8.7 29.2,18 25.7,23.3 c 0,0.1 -0.1,0.2 -0.2,0.2 0.1,0 0.1,0.1 0.1,0.2 3.5,5.3 9.7,14.6 10.1,15.3 0.8,1.3 2,2.5 3.5,3.4 0,0 1.5,1 3.5,1.6 0.8,0.3 2.2,0.5 4,0.7 l 0,2.1 0.1,0 0,-44.6 c -1.8,0.2 -3.2,0.4 -4,0.7 -2,0.6 -3.5,1.7 -3.5,1.7 z M 36.9,2.2 C 36.9,2.1 39,0.9 41.5,0.1 41.7,0.1 41.9,0 42,0 L 5,0 c 0.1,0 0.2,0.1 0.3,0.1 2.5,0.8 4.5,2 4.6,2.1 2,1.3 3.6,3.1 4.9,5.1 0.4,0.7 5.2,7.8 8.6,13 3.4,-5.1 8.2,-12.3 8.6,-13 1.2,-2 2.9,-3.8 4.9,-5.1 z M 72.3,0 c -5.7,0 -7.4,3.9 -7.4,8.3 0,0.3 0,2.8 0,6.3 l -5.9,0 -1.1,2.1 7,0 c 0,10.1 0,25.8 0,26.1 0.7,0.2 1.5,0.4 2.3,0.5 0,0 0,-16.2 0,-26.6 l 6.7,0 -1.1,-2.1 -5.6,0 c 0,-3.5 0,-6 0,-6.3 0,-4.6 2,-6.1 5,-6.1 1,0 2.2,0.1 3.3,0.5 l 0,0 -1.1,-2.4 C 73.7,0.1 73,0 72.3,0 Z m 101.6,12.3 -1.3,0 c -5.1,0 -7.6,2.5 -8.9,5.8 -1.3,-3.4 -3.8,-5.8 -8.9,-5.8 l -1.3,0 c -8.8,0 -10,7.4 -10,13.8 l 0,15.6 c 0.7,0.6 1.5,1.1 2.4,1.5 l 0,-16.3 c 0,-7.3 1.1,-12.4 8,-12.4 l 0.6,0 c 6.9,0 8,5.1 8,12.4 l 0,14.7 2.5,-0.1 0,-14.6 c 0,-7.3 1.1,-12.4 8,-12.4 l 0.6,0 c 6.9,0 8,5.1 8,12.4 l 0,16.4 c 0.8,-0.4 1.7,-0.9 2.4,-1.5 l 0,-15.6 c -0.1,-6.5 -1.4,-13.9 -10.1,-13.9 z m 31.7,0 c -5.4,0 -11.8,2 -11.8,15.6 0,12.6 5.5,15.5 12.3,15.5 3.7,0 6.8,-0.7 9.6,-2.3 l -0.9,-2 c -2.8,1.6 -5.4,2.2 -8.7,2.2 -5.4,0 -9.6,-1.9 -10,-11.5 l 0,-1.2 20.8,0 0,0 0,-0.8 c 0,-11.7 -4.3,-15.5 -11.3,-15.5 z M 196,26.4 c 0.2,-10.2 4.7,-12 9.5,-12 5.3,0 9,2.8 9,12 l -18.5,0 z M 118.7,12.1 c -2.4,0 -4.8,0.3 -7.1,1.5 l 1.1,2 c 1.9,-0.9 3.9,-1.3 6.1,-1.3 7.7,0 9.9,4.2 10.3,10.7 -14,0.6 -20.8,2.3 -20.8,9.5 0,5.2 2.3,8.8 10,8.8 l 0.5,0 c 9.2,0 12.8,-5 12.8,-15.6 -0.1,-10.6 -3.7,-15.6 -12.9,-15.6 z m 10.5,15.6 c 0,8.1 -1.8,13.4 -10.4,13.4 -1.9,0 -3.8,-0.3 -5.6,-1.1 -0.5,-0.2 -0.9,-0.5 -1.2,-0.8 -1,-1.1 -1.3,-2.5 -1.3,-4.5 0,-5.9 6.7,-6.9 18.4,-7.4 0,0.1 0,0.2 0.1,0.4 z M 90,17.1 90,12.9 c -0.8,0.1 -1.6,0.3 -2.3,0.5 l 0,29.4 c 0.7,0.2 1.5,0.4 2.3,0.5 l 0,-15.2 0,-0.2 c 0,-8 1.7,-13.3 10,-13.3 l 0,0 -1.1,-2 c -4.2,0.2 -7.1,1.7 -8.9,4.5 z"
     id="path7"
     inkscape:connector-curvature="0"
     style="fill:#97d23d" /></svg>
