<?xml version="1.0" encoding="UTF-8" standalone="no"?>
<svg
   xmlns:dc="http://purl.org/dc/elements/1.1/"
   xmlns:cc="http://creativecommons.org/ns#"
   xmlns:rdf="http://www.w3.org/1999/02/22-rdf-syntax-ns#"
   xmlns:svg="http://www.w3.org/2000/svg"
   xmlns="http://www.w3.org/2000/svg"
   xmlns:sodipodi="http://sodipodi.sourceforge.net/DTD/sodipodi-0.dtd"
   xmlns:inkscape="http://www.inkscape.org/namespaces/inkscape"
   xml:space="preserve"
   version="1.1"
   viewBox="0 0 1092.7872 248.88164"
   id="svg2"
   inkscape:version="0.91 r13725"
   sodipodi:docname="xtensor-julia.svg"
   width="1092.7872"
   height="248.88164"><metadata
     id="metadata32"><rdf:RDF><cc:Work
         rdf:about=""><dc:format>image/svg+xml</dc:format><dc:type
           rdf:resource="http://purl.org/dc/dcmitype/StillImage" /><dc:title /></cc:Work></rdf:RDF></metadata><defs
     id="defs30" /><sodipodi:namedview
     pagecolor="#ffffff"
     bordercolor="#666666"
     borderopacity="1"
     objecttolerance="10"
     gridtolerance="10"
     guidetolerance="10"
     inkscape:pageopacity="0"
     inkscape:pageshadow="2"
     inkscape:window-width="1704"
     inkscape:window-height="928"
     id="namedview28"
     showgrid="false"
     inkscape:zoom="0.77731696"
     inkscape:cx="97.406634"
     inkscape:cy="131.7087"
     inkscape:window-x="83"
     inkscape:window-y="34"
     inkscape:window-maximized="0"
     inkscape:current-layer="g4"
     fit-margin-top="0"
     fit-margin-left="0"
     fit-margin-right="0"
     fit-margin-bottom="0" /><g
     transform="matrix(1.25,0,0,-1.25,714.41803,253.88145)"
     id="g4"><g
       id="g6"
       style="fill:#a1a1a1;fill-opacity:1;fill-rule:nonzero;stroke:none;stroke-opacity:1"><path
         d="m 62.1133,39.5703 0,87.5664 -25.9414,-7.13672 0,-93.1172 c -6e-6,-4.90883 -0.377609,-8.21286 -1.13281,-9.91211 -0.755211,-1.6992 -1.85026,-2.5488 -3.28516,-2.54883 -0.679692,2e-5 -1.4349,0.264343 -2.26562,0.792968 -0.830727,0.528675 -1.85026,1.58596 -3.05859,3.17188 -1.05729,1.43492 -2.39778,2.8887 -4.02148,4.36133 -1.62369,1.47267 -3.79491,2.209 -6.51367,2.20898 -3.62499,1.4e-5 -6.51366,-0.906235 -8.66602,-2.71875 -2.15229,-1.8126 -3.22846,-4.0405 -3.22848,-6.6837 2e-5,-3.1719 1.9258,-5.8906 5.77734,-8.15626 3.85158,-2.26559 9.40235,-3.3984 16.6523,-3.39844 5.36197,3e-5 10.2331,0.434275 14.6133,1.30273 4.38019,0.868583 8.13735,2.58668 11.2715,5.1543 3.13408,2.56774 5.55075,6.17386 7.25,10.8184 1.69918,4.64454 2.54879,10.7428 2.54883,18.2949 z"
         id="path8"
         style="fill:#a1a1a1;fill-opacity:1;stroke:none;stroke-opacity:1"
         inkscape:connector-curvature="0" /><path
         d="m 98.1434,124.645 -25.8281,0 0,-59.9258 c -6e-6,-3.70053 0.774082,-7.17448 2.32226,-10.4219 1.54816,-3.2474 3.68162,-6.07943 6.40039,-8.49609 2.71873,-2.41667 5.8906,-4.32357 9.51562,-5.7207 3.62497,-1.39713 7.55205,-2.0957 11.7813,-2.0957 3.62495,10e-7 7.36323,0.86849 11.2148,2.60547 3.85151,1.73698 7.4765,4.04036 10.875,6.91016 l 0,-7.92969 25.8281,0 0,85.0742 -25.8281,0 0,-61.3984 c -1.9636,-3.02084 -4.26698,-5.5319 -6.91016,-7.5332 -2.64318,-2.00131 -4.94656,-3.00196 -6.91015,-3.00195 -1.73694,-1.3e-5 -3.36063,0.32095 -4.8711,0.962891 -1.51045,0.641917 -2.83207,1.49152 -3.96484,2.54883 -1.13285,1.05727 -2.02022,2.32225 -2.66211,3.79492 -0.641963,1.47263 -0.962926,3.03968 -0.96289,4.70117 z"
         id="path10"
         style="fill:#a1a1a1;fill-opacity:1;stroke:none;stroke-opacity:1"
         inkscape:connector-curvature="0" /><path
         d="m 186.141,39.5703 0,126.422 -25.7148,-7.13672 0,-119.285 z"
         id="path12"
         style="fill:#a1a1a1;fill-opacity:1;stroke:none;stroke-opacity:1"
         inkscape:connector-curvature="0" /><path
         d="m 196.427,120 0,-80.4297 25.8281,0 0,87.5664 z"
         id="path14"
         style="fill:#a1a1a1;fill-opacity:1;stroke:none;stroke-opacity:1"
         inkscape:connector-curvature="0" /><path
         d="m 276.754,83.5234 0,-24.582 c -2.64327,-1.96356 -5.04106,-3.58726 -7.19335,-4.87109 -2.15239,-1.28386 -4.28585,-1.92579 -6.4004,-1.92578 -1.05732,-1.3e-5 -2.03909,0.32095 -2.94531,0.96289 -0.90628,0.641918 -1.73701,1.49153 -2.49219,2.54883 -0.75523,1.05728 -1.34052,2.32225 -1.75585,3.79492 -0.4154,1.47264 -0.62308,3.00193 -0.62305,4.58789 -3e-5,2.03903 0.6419,4.00257 1.92578,5.89062 1.28382,1.88793 2.96416,3.66267 5.04102,5.32422 2.07678,1.66142 4.38017,3.19072 6.91015,4.58789 2.5299,1.3971 5.04097,2.62431 7.5332,3.68164 z m 25.9414,-43.9531 0,63.7773 c -8e-5,3.54935 -0.67976,6.75898 -2.03906,9.62891 -1.35945,2.86971 -3.47403,5.32414 -6.34375,7.36328 -2.86986,2.03898 -6.51374,3.60603 -10.9316,4.70117 -4.41803,1.09497 -9.6856,1.6425 -15.8027,1.64258 -4.98441,-9e-5 -9.70445,-0.52874 -14.1602,-1.58594 -4.45576,-1.05737 -8.38284,-2.49226 -11.7812,-4.30468 -3.39845,-1.81259 -6.09832,-3.98381 -8.09961,-6.51368 -2.00131,-2.53001 -3.00196,-5.26764 -3.00196,-8.21289 0,-3.17194 1.13281,-5.79629 3.39844,-7.87304 2.26562,-2.07688 5.21092,-3.11528 8.83594,-3.11524 2.34112,-5.5e-5 4.28578,0.339788 5.83398,1.01953 1.54816,0.67963 2.73761,1.58588 3.56836,2.71875 0.8307,1.13275 1.41599,2.45437 1.75586,3.96485 0.33982,1.51035 0.50974,3.05853 0.50977,4.64453 -3e-5,2.7942 0.79294,5.17311 2.3789,7.13672 1.58591,1.96346 4.41794,2.94523 8.4961,2.94531 3.47392,-8e-5 6.2493,-1.13289 8.32617,-3.39844 2.07677,-2.2657 3.11518,-6.11725 3.11523,-11.5547 l 0,-8.38282 -2.83203,-0.679687 c -3.474,-1.05715 -6.98571,-2.17108 -10.5352,-3.3418 -3.54952,-1.17057 -6.96683,-2.45442 -10.252,-3.85156 -3.28518,-1.39718 -6.36265,-2.92647 -9.23242,-4.58789 -2.86981,-1.66149 -5.38087,-3.54951 -7.5332,-5.66406 -2.15235,-2.11461 -3.85157,-4.49352 -5.09766,-7.13672 -1.2461,-2.64325 -1.86914,-5.58856 -1.86914,-8.83594 0,-3.17189 0.58529,-6.09832 1.75586,-8.7793 1.17057,-2.68099 2.85091,-5.00326 5.04102,-6.9668 2.19009,-1.96354 4.85219,-3.51172 7.98633,-4.64453 3.13409,-1.13281 6.66468,-1.69922 10.5918,-1.69922 2.86977,-3e-6 5.36195,0.207679 7.47656,0.623046 2.11455,0.415366 4.02145,1.00065 5.72071,1.75586 1.69917,0.755211 3.22847,1.64258 4.58789,2.66211 1.35933,1.01952 2.75646,2.13345 4.1914,3.3418 l 0,-6.79688 z"
         id="path16"
         style="fill:#a1a1a1;fill-opacity:1;stroke:none;stroke-opacity:1"
         inkscape:connector-curvature="0" /></g><g
       stroke-miterlimit="4"
       id="g18"
       style="stroke-width:3.0703125;stroke-linecap:butt;stroke-miterlimit:4"><circle
         cx="48.841999"
         cy="149.57001"
         r="16"
         id="circle20"
         style="fill:#6682df;stroke:#4063d8" /><circle
         cx="211.131"
         cy="149.57001"
         r="16"
         id="circle22"
         style="fill:#d5635c;stroke:#cb3c33" /><circle
         cx="232.131"
         cy="185.57001"
         r="16"
         id="circle24"
         style="fill:#60ad51;stroke:#389826" /><circle
         cx="253.131"
         cy="149.57001"
         r="16"
         id="circle26"
         style="fill:#aa79c1;stroke:#9558b2" /></g><path
       style="fill:#6682df;fill-opacity:1"
       d="M 16.144531 65.052734 C 16.566615 65.147705 16.999023 65.242924 17.378906 65.337891 C 25.356306 67.902053 31.910284 71.748291 32.052734 72.033203 C 38.320697 76.306803 43.591366 81.863141 47.580078 88.416016 C 49.004616 90.410366 64.245906 113.48709 75.214844 130.01172 C 72.650669 133.85798 70.371419 137.42033 68.519531 140.12695 C 68.377069 139.84204 68.2362 139.69897 68.09375 139.41406 C 56.8399 122.46207 36.895241 92.546956 35.470703 90.410156 C 32.621641 86.278994 28.917772 82.432931 24.216797 79.441406 C 24.216797 79.441406 19.230738 76.164272 12.820312 74.169922 C 10.25615 73.315197 5.8406 72.6029 0 71.890625 L 0 208.50391 C 5.8406 207.79164 10.25615 207.07933 12.820312 206.22461 C 19.230738 204.23026 24.216797 200.95312 24.216797 200.95312 C 29.060222 197.81914 32.764091 193.97295 35.470703 189.8418 C 36.895241 187.70499 56.8399 157.78988 68.09375 140.83789 C 77.495687 126.59251 101.14212 90.980306 102.85156 88.558594 C 106.84028 82.005719 112.11094 76.449394 118.37891 72.175781 C 118.52136 71.890869 125.07532 68.044644 133.05273 65.480469 L 134.76172 65.052734 L 16.144531 65.052734 z M 150.57422 71.890625 C 144.73362 72.6029 140.31613 73.315197 137.75195 74.169922 C 131.05663 76.164272 126.21484 79.441406 126.21484 79.441406 C 121.51387 82.432931 117.81001 86.278994 114.96094 90.410156 C 113.5364 92.546956 93.591741 122.46207 82.337891 139.41406 C 72.935953 153.65944 49.289516 189.27165 47.580078 191.69336 C 43.591366 198.24623 38.320697 203.80256 32.052734 208.07617 C 31.910284 208.36108 25.356306 212.20732 17.378906 214.77148 L 15.669922 215.19922 L 134.19141 215.19922 L 133.05273 214.91406 C 125.07532 212.3499 118.52136 208.50366 118.37891 208.21875 C 112.11094 203.94514 106.84028 198.38881 102.85156 191.83594 C 101.42702 189.84159 86.183781 166.76487 75.214844 150.24023 C 77.779006 146.39398 80.058256 142.83357 81.910156 140.12695 C 82.052606 140.41185 82.195312 140.55298 82.195312 140.83789 C 93.449162 157.78988 113.39382 187.70499 114.81836 189.8418 C 117.66743 193.97295 121.37129 197.81902 126.07227 200.81055 C 126.07227 200.81055 131.05833 204.08768 137.46875 206.08203 C 140.03291 206.93675 144.44845 207.64906 150.28906 208.36133 L 150.28906 215.19922 L 150.57422 215.19922 L 150.57422 71.890625 z M 202.99609 80.4375 L 202.99609 104.93945 L 179.20703 104.93945 L 175.64453 111.91992 L 203.13867 111.91992 L 203.13867 165.625 C 202.85377 171.4656 203.85135 177.16451 205.8457 182.15039 C 205.8457 182.4353 208.12421 187.13654 211.68555 191.41016 C 213.53745 193.40451 217.10005 196.6806 222.08594 199.95703 L 225.50391 192.97656 C 221.65766 190.26994 218.95188 187.99082 217.52734 186.42383 C 214.53582 183.00494 212.96875 179.1582 212.96875 179.1582 C 211.40175 175.59686 210.68945 171.60797 210.68945 167.76172 L 210.68945 111.77734 L 237.61328 111.77734 L 234.05078 104.93945 L 210.54688 104.93945 L 210.54688 80.4375 L 202.99609 80.4375 z M 402.28906 102.66016 C 373.94076 102.66016 370.0957 126.44993 370.0957 147.39062 L 370.0957 197.67773 C 372.37497 199.67209 375.0805 201.23952 377.78711 202.66406 L 377.78711 149.8125 C 377.78711 126.16518 381.20704 109.64062 403.57227 109.64062 L 405.56641 109.64062 C 427.78918 109.64062 431.34961 126.16518 431.34961 149.8125 L 431.34961 202.94727 C 434.05623 201.52273 436.76371 199.95724 439.04297 197.96289 L 439.04297 147.67578 C 438.75806 126.45017 434.62588 102.66016 406.5625 102.66016 L 402.28906 102.66016 z M 301.43164 102.80273 C 283.90982 102.80273 263.25391 109.2141 263.25391 153.08984 C 263.25391 193.83161 281.06211 202.94727 303 202.94727 C 314.82366 202.94727 325.0801 200.81168 334.05469 195.39844 L 331.20508 188.98828 C 322.23049 194.11661 313.6822 196.11133 303.14062 196.11133 C 285.76126 196.11133 272.08689 189.84227 270.94727 159.07227 L 270.80469 155.22656 L 337.75781 155.36914 L 337.90039 155.51172 L 337.90039 152.94727 C 337.90039 115.19702 324.08178 102.80273 301.43164 102.80273 z M 502.29102 102.80273 C 486.90602 102.80273 472.66211 109.78326 472.66211 127.73242 C 472.66211 145.68159 485.33948 151.0954 500.58203 155.22656 C 514.96986 159.21527 526.79297 162.20676 526.79297 175.3125 C 526.79297 190.98241 515.39725 196.11133 502.86133 196.11133 C 491.60749 196.11133 480.78184 193.11844 472.51953 187.84766 L 469.38477 193.97266 C 478.92917 200.38307 490.61068 202.80664 503.28906 202.80664 C 519.8137 202.80664 534.20117 195.54093 534.20117 175.3125 C 534.20117 157.22088 520.24142 153.08964 503.7168 148.38867 C 488.75916 144.25751 479.92578 140.41105 479.92578 128.01758 C 479.92578 113.77222 489.75522 109.64062 502.43359 109.64062 C 510.69591 109.64062 518.67406 110.92304 525.6543 114.48438 L 528.50391 108.07422 C 520.09913 103.80061 511.12314 102.80273 502.29102 102.80273 z M 708.84961 102.80273 C 694.88915 103.37255 685.48708 108.21708 679.64648 117.47656 L 679.64648 103.94336 C 676.93986 104.22827 674.51937 104.79749 672.09766 105.50977 L 672.09766 201.23828 C 674.37692 201.95055 676.93986 202.52173 679.64648 202.80664 L 679.64648 153.23242 L 679.64648 152.66211 C 679.64648 126.59307 685.06074 109.35547 712.12695 109.35547 L 712.26953 109.35547 L 708.84961 102.80273 z M 600.44336 102.94531 C 571.81016 102.94531 560.55469 118.90082 560.55469 152.94727 C 560.55469 186.99371 571.81016 202.94727 600.44336 202.94727 C 629.07656 202.94727 640.33008 186.99371 640.33008 152.94727 C 640.33008 118.75837 629.07656 102.80286 600.44336 102.94531 z M 301.28906 109.64062 C 318.52598 109.64062 330.20703 118.7583 330.20703 148.38867 L 270.51953 148.38867 C 271.23181 115.62431 285.61915 109.64062 301.28906 109.64062 z M 600.30078 109.64062 C 627.36698 109.64062 632.7793 126.87823 632.7793 152.94727 C 632.7793 178.87384 627.36698 196.1095 600.30078 196.25195 C 573.23457 196.25195 567.82031 179.0163 567.82031 152.94727 C 567.82031 126.87823 573.37703 109.64062 600.30078 109.64062 z M 237.61328 111.91992 L 237.75586 112.20508 L 237.75586 111.91992 L 237.61328 111.91992 z "
       transform="matrix(0.8,0,0,-0.8,-571.53442,203.10516)"
       id="path5" /><path
       class="st1"
       d="m -506.0057,91.0043 c -1.48152,-2.16529 -3.30493,-5.01437 -5.35626,-8.09137 8.77515,-13.21971 20.96918,-31.68171 22.10881,-33.27719 3.19097,-5.24229 7.4076,-9.68685 12.42197,-13.10574 0.11396,-0.22793 5.35625,-3.30493 11.73819,-5.35626 0.45585,-0.11396 0.91169,-0.22792 1.36754,-0.34189 l 12.42198,0 0,5.58419 c -4.6725,0.56981 -8.20535,1.13962 -10.25667,1.82341 -5.12835,1.59548 -9.11704,4.21662 -9.11704,4.21662 -3.76079,2.39323 -6.72383,5.47023 -9.00308,8.77515 -1.13964,1.70944 -17.09444,25.64167 -26.09752,39.20327 l 0,0 c 0,0.22792 -0.11396,0.34189 -0.22792,0.56981 m -53.10675,60.17246 -12.42197,0 0,-5.58419 c 4.67248,-0.56982 8.20534,-1.13963 10.25667,-1.82341 5.12834,-1.59548 9.11704,-4.21663 9.11704,-4.21663 3.76078,-2.39322 6.72382,-5.47022 9.00307,-8.77515 1.13963,-1.70944 17.09445,-25.64167 26.09753,-39.20326 l 0,0 c 0.11396,-0.22793 0.22792,-0.34189 0.34189,-0.56982 1.48151,2.1653 3.30492,5.01437 5.35626,8.09138 -8.77515,13.2197 -20.96919,31.6817 -22.10882,33.27718 -3.19097,5.2423 -7.4076,9.68686 -12.42197,13.10574 -0.11396,0.22793 -5.35626,3.30494 -11.73818,5.35627 -0.45586,0.11396 -0.91171,0.22792 -1.48152,0.34189"
       id="path7-3"
       inkscape:connector-curvature="0"
       style="fill:#6682df;fill-opacity:0.27843139" /></g></svg>