<?xml version="1.0" encoding="UTF-8" standalone="no"?>
<!-- Generator: Adobe Illustrator 19.2.1, SVG Export Plug-In . SVG Version: 6.00 Build 0)  -->

<svg
   xmlns:dc="http://purl.org/dc/elements/1.1/"
   xmlns:cc="http://creativecommons.org/ns#"
   xmlns:rdf="http://www.w3.org/1999/02/22-rdf-syntax-ns#"
   xmlns:svg="http://www.w3.org/2000/svg"
   xmlns="http://www.w3.org/2000/svg"
   xmlns:xlink="http://www.w3.org/1999/xlink"
   xmlns:sodipodi="http://sodipodi.sourceforge.net/DTD/sodipodi-0.dtd"
   xmlns:inkscape="http://www.inkscape.org/namespaces/inkscape"
   version="1.1"
   id="Calque_1"
   x="0px"
   y="0px"
   viewBox="0 0 1096.3669 148.49538"
   xml:space="preserve"
   inkscape:version="0.91 r13725"
   sodipodi:docname="xtensor-python.svg"
   width="1096.3669"
   height="148.49538"><metadata
     id="metadata13"><rdf:RDF><cc:Work
         rdf:about=""><dc:format>image/svg+xml</dc:format><dc:type
           rdf:resource="http://purl.org/dc/dcmitype/StillImage" /><dc:title /></cc:Work></rdf:RDF></metadata><defs
     id="defs11"><radialGradient
       cx="61.518883"
       cy="132.28575"
       r="29.036913"
       fx="61.518883"
       fy="132.28575"
       id="radialGradient1480"
       xlink:href="#linearGradient2795"
       gradientUnits="userSpaceOnUse"
       gradientTransform="matrix(2.2482417e-8,-0.30842844,1.355673,4.8736626e-7,412.41077,172.82437)" /><linearGradient
       id="linearGradient2795"><stop
         style="stop-color:#b8b8b8;stop-opacity:0.49803922"
         offset="0"
         id="stop2797" /><stop
         style="stop-color:#7f7f7f;stop-opacity:0"
         offset="1"
         id="stop2799" /></linearGradient><linearGradient
       x1="150.96111"
       y1="192.35176"
       x2="112.03144"
       y2="137.27299"
       id="linearGradient1475"
       xlink:href="#linearGradient4671"
       gradientUnits="userSpaceOnUse"
       gradientTransform="matrix(0.72309165,0,0,0.73007266,510.73037,-11.011979)" /><linearGradient
       id="linearGradient4671"><stop
         style="stop-color:#ffd43b;stop-opacity:1"
         offset="0"
         id="stop4673" /><stop
         style="stop-color:#ffe873;stop-opacity:1"
         offset="1"
         id="stop4675" /></linearGradient><linearGradient
       x1="26.648937"
       y1="20.603781"
       x2="135.66525"
       y2="114.39767"
       id="linearGradient1478"
       xlink:href="#linearGradient4689"
       gradientUnits="userSpaceOnUse"
       gradientTransform="matrix(0.72309165,0,0,0.73007266,510.73037,-11.011979)" /><linearGradient
       id="linearGradient4689"><stop
         style="stop-color:#5a9fd4;stop-opacity:1"
         offset="0"
         id="stop4691" /><stop
         style="stop-color:#306998;stop-opacity:1"
         offset="1"
         id="stop4693" /></linearGradient></defs><sodipodi:namedview
     pagecolor="#ffffff"
     bordercolor="#666666"
     borderopacity="1"
     objecttolerance="10"
     gridtolerance="10"
     guidetolerance="10"
     inkscape:pageopacity="0"
     inkscape:pageshadow="2"
     inkscape:window-width="1640"
     inkscape:window-height="725"
     id="namedview9"
     showgrid="false"
     inkscape:zoom="0.6675088"
     inkscape:cx="663.39353"
     inkscape:cy="91.369009"
     inkscape:window-x="83"
     inkscape:window-y="34"
     inkscape:window-maximized="0"
     inkscape:current-layer="Calque_1"
     fit-margin-top="0"
     fit-margin-left="0"
     fit-margin-right="0"
     fit-margin-bottom="0" /><style
     type="text/css"
     id="style3">
	.st0{fill:#7DDB85;}
	.st1{fill:#D8F8D7;}
</style><path
     class="st0"
     d="m 375,91.226935 c 0,14.200005 -10.1,19.299995 -21.7,19.299995 -8.9,0 -17.1,-1.7 -23.8,-6.2 l 2.2,-4.3 c 5.8,3.7 13.4,5.8 21.3,5.8 8.8,0 16.8,-3.6 16.8,-14.599995 0,-9.2 -8.3,-11.3 -18.4,-14.1 -10.7,-2.9 -19.6,-6.7 -19.6,-19.3 0,-12.6 10,-17.5 20.8,-17.5 6.2,0 12.5,0.7 18.4,3.7 l -2,4.5 c -4.9,-2.5 -10.5,-3.4 -16.3,-3.4 -8.9,0 -15.8,2.9 -15.8,12.9 0,8.7 6.2,11.4 16.7,14.3 11.6,3.3 21.4,6.2 21.4,18.9 m 74.5,-15.7 c 0,23.9 -7.9,35.100005 -28,35.100005 -20.1,0 -28,-11.200005 -28,-35.100005 0,-23.9 7.9,-35.1 28,-35.1 20.1,-0.1 28,11.1 28,35.1 m -5.3,0 c 0,-18.3 -3.8,-30.4 -22.8,-30.4 -18.9,0 -22.8,12.1 -22.8,30.4 0,18.3 3.8,30.400005 22.8,30.400005 19,-0.1 22.8,-12.200005 22.8,-30.400005 m -158.8,-35.3 -3,0 c -19.9,0 -22.6,16.7 -22.6,31.4 l 0,35.300005 c 1.6,1.4 3.5,2.5 5.4,3.5 l 0,-37.100005 c 0,-16.6 2.4,-28.2 18.1,-28.2 l 1.4,0 c 15.6,0 18.1,11.6 18.1,28.2 l 0,37.300005 c 1.9,-1 3.8,-2.1 5.4,-3.5 l 0,-35.300005 c -0.2,-14.9 -3.1,-31.6 -22.8,-31.6 m 212.2,0.1 c -9.8,0.4 -16.4,3.8 -20.5,10.3 l 0,-9.5 c -1.9,0.2 -3.6,0.6 -5.3,1.1 l 0,67.199995 c 1.6,0.5 3.4,0.9 5.3,1.1 l 0,-34.799995 0,0 c 0,-0.2 0,-0.3 0,-0.4 0,-18.3 3.8,-30.4 22.8,-30.4 l 0.1,0 -2.4,-4.6 m -330.7,6.6 0,-0.2 -0.1,0 0.1,0.2 m -19.1,-4.9 0,-17.4 -5.3,0 0,17.2 -16.7,0 -2.5,4.9 19.3,0 c 0,0 0,35.7 0,37.7 -0.2,4.1 0.5,8.1 1.9,11.6 0,0.2 1.6,3.5 4.1,6.499995 1.3,1.4 3.8,3.7 7.3,6 l 2.4,-4.9 c -2.7,-1.9 -4.6,-3.5 -5.6,-4.599995 -2.1,-2.4 -3.2,-5.1 -3.2,-5.1 -1.1,-2.5 -1.6,-5.3 -1.6,-8 0,-1.9 0,-39.3 0,-39.3 l 18.9,0 -2.5,-4.8 -16.5,0 m 89.4,33.7 0,1.8 -0.1,-0.1 -47,-0.1 0.1,2.7 c 0.8,21.599995 10.4,25.999995 22.6,25.999995 7.4,0 13.4,-1.4 19.7,-5 l 2,4.5 c -6.3,3.8 -13.5,5.3 -21.8,5.3 -15.4,0 -27.9,-6.4 -27.9,-34.999995 0,-30.8 14.5,-35.3 26.8,-35.3 15.9,0 25.6,8.7 25.6,35.2 m -5.4,-3.2 c 0,-20.8 -8.2,-27.2 -20.3,-27.2 -11,0 -21.1,4.2 -21.6,27.2 l 41.9,0 m -143.2,-48.4 c -3.3,2.1 -5.9,4.8 -7.9,7.7 -1,1.5 -15,22.5 -22.9,34.4 l 0,0 c -6.6,10 -23.2,34.999995 -24.4,36.699995 -2.8,4.6 -6.5,8.5 -10.9,11.5 -0.1,0.20001 -4.7,2.90001 -10.3,4.70001 -0.4,0.1 -0.8,0.2 -1.2,0.29999 l 94.7,0 0,-100.599995 c -4.1,0.5 -7.2,1 -9,1.6 -4.7,1.4 -8.1,3.7 -8.1,3.7 M 24.9,101.42693 c 1,-1.499995 15,-22.499995 22.9,-34.399995 l 0,0 c 6.6,-10 23.2,-35 24.4,-36.7 2.8,-4.6 6.5,-8.5 10.9,-11.5 0.1,-0.2 4.7,-2.9 10.3,-4.7 0.4,-0.1 0.8,-0.2 1.2,-0.3 l -94.6,0 0,100.699995 c 4.1,-0.5 7.2,-1 9,-1.59999 4.5,-1.40001 8,-3.70001 8,-3.70001 3.4,-2.2 6,-4.9 7.9,-7.79999"
     id="path5"
     inkscape:connector-curvature="0"
     style="fill:#86afd2;fill-opacity:1" /><path
     class="st1"
     d="m 57.5,66.526935 c -1.3,1.9 -2.9,4.4 -4.7,7.1 7.7,11.6 18.4,27.800005 19.4,29.199995 2.8,4.6 6.5,8.5 10.9,11.5 0.1,0.2 4.7,2.9 10.3,4.7 0.4,0.1 0.8,0.2 1.2,0.3 l 10.9,0 0,-4.9 c -4.1,-0.5 -7.2,-1 -9,-1.6 -4.5,-1.4 -8,-3.7 -8,-3.7 -3.3,-2.1 -5.9,-4.8 -7.9,-7.7 -1,-1.499995 -15,-22.499995 -22.9,-34.399995 l 0,0 c 0,-0.2 -0.1,-0.3 -0.2,-0.5 m -46.6,-52.8 -10.9,0 0,4.9 c 4.1,0.5 7.2,1 9,1.6 4.5,1.4 8,3.7 8,3.7 3.3,2.1 5.9,4.8 7.9,7.7 1,1.5 15,22.5 22.9,34.4 l 0,0 c 0.1,0.2 0.2,0.3 0.3,0.5 1.3,-1.9 2.9,-4.4 4.7,-7.1 -7.7,-11.6 -18.4,-27.8 -19.4,-29.2 -2.8,-4.6 -6.5,-8.5 -10.9,-11.5 -0.1,-0.2 -4.7,-2.9 -10.3,-4.7 -0.4,-0.1 -0.8,-0.2 -1.3,-0.3"
     id="path7"
     inkscape:connector-curvature="0"
     style="fill:#dde9f3;fill-opacity:1" /><path
     inkscape:connector-curvature="0"
     id="path46"
     style="fill:#ecd164;fill-opacity:1"
     d="m 760.11542,75.411651 c 0,-18.718226 -5.33731,-28.327921 -16.01197,-28.854139 -4.24731,-0.200458 -8.39439,0.4761 -12.42871,2.042222 -3.21994,1.152659 -5.38743,2.292798 -6.52757,3.445457 l 0,44.678176 c 6.82826,4.284903 12.89228,6.276993 18.17948,5.963783 11.18834,-0.73921 16.78877,-9.82269 16.78877,-27.275499 z m 13.16792,0.776795 c 0,9.509459 -2.23015,17.402692 -6.71551,23.679685 -4.99904,7.103909 -11.92755,10.762349 -20.78551,10.962829 -6.67791,0.21299 -13.5563,-1.87935 -20.63515,-6.26448 l 0,40.60627 -11.45144,-4.08443 0,-90.13315 c 1.87933,-2.305318 4.29741,-4.284889 7.22919,-5.963766 6.81574,-3.971676 15.09736,-6.013899 24.84487,-6.114121 l 0.16288,0.162874 c 8.90807,-0.112769 15.77393,3.545692 20.59758,10.962813 4.49787,6.803211 6.75309,15.523356 6.75309,26.185476 z" /><path
     inkscape:connector-curvature="0"
     id="path48"
     style="fill:#ecd164;fill-opacity:1"
     d="m 843.26995,102.83749 c 0,12.75444 -1.27794,21.58735 -3.83384,26.49869 -2.56844,4.91135 -7.45471,8.83291 -14.67139,11.75214 -5.85101,2.30532 -12.17812,3.55821 -18.96879,3.77121 l -1.89188,-7.21667 c 6.90344,-0.93966 11.76468,-1.87933 14.58368,-2.81901 5.55032,-1.87934 9.35911,-4.76098 11.45145,-8.61991 1.67887,-3.14476 2.50578,-9.14611 2.50578,-18.02913 l 0,-2.98187 c -7.83057,3.55821 -16.03704,5.32479 -24.61935,5.32479 -5.63802,0 -10.61201,-1.76658 -14.8969,-5.32479 -4.81112,-3.87146 -7.21668,-8.782799 -7.21668,-14.734032 l 0,-47.660067 11.45146,-3.921558 0,47.973281 c 0,5.124334 1.65382,9.070957 4.96145,11.839856 3.30764,2.76889 7.59254,4.09695 12.84217,3.99673 5.24962,-0.11277 10.87511,-2.14246 16.85141,-6.114123 l 0,-55.966749 11.45143,0 0,62.231212 z" /><path
     inkscape:connector-curvature="0"
     id="path50"
     style="fill:#ecd164;fill-opacity:1"
     d="m 887.97319,110.2045 c -1.36564,0.11276 -2.61853,0.16288 -3.7712,0.16288 -6.47745,0 -11.52662,-1.54106 -15.13495,-4.63571 -3.59582,-3.09464 -5.39997,-7.36701 -5.39997,-12.817092 l 0,-45.104171 -7.84311,0 0,-7.204129 7.84311,0 0,-19.131688 11.43891,-4.071911 0,23.203599 12.86721,0 0,7.204129 -12.86721,0 0,44.790945 c 0,4.297422 1.15266,7.341949 3.45799,9.121058 1.97957,1.46589 5.12434,2.30533 9.40922,2.51833 l 0,5.96376 z" /><path
     inkscape:connector-curvature="0"
     id="path52"
     style="fill:#ecd164;fill-opacity:1"
     d="m 957.3083,109.26483 -11.4514,0 0,-44.202071 c 0,-4.497894 -1.0525,-8.369334 -3.1448,-11.6018 -2.4181,-3.658448 -5.7758,-5.487679 -10.0858,-5.487679 -5.24961,0 -11.81478,2.768899 -19.69545,8.306696 l 0,52.984854 -11.45147,0 0,-105.656499 L 912.93085,0 l 0,48.123633 c 7.3169,-5.324792 15.31033,-7.993455 23.99285,-7.993455 6.064,0 10.9754,2.042209 14.7341,6.11412 3.7712,4.071898 5.6505,9.146115 5.6505,15.210117 l 0,47.810415 0,0 z" /><path
     inkscape:connector-curvature="0"
     id="path54"
     style="fill:#ecd164;fill-opacity:1"
     d="m 1018.1739,73.607485 c 0,-7.191609 -1.3657,-13.130323 -4.0844,-17.828675 -3.2325,-5.725723 -8.2566,-8.745198 -15.0473,-9.058424 -12.554,0.726689 -18.8184,9.722463 -18.8184,26.96227 0,7.905765 1.3029,14.508506 3.934,19.808246 3.3578,6.753098 8.3944,10.085798 15.1099,9.973038 12.6041,-0.10023 18.9062,-10.048208 18.9062,-29.856455 z m 12.5414,0.07517 c 0,10.236149 -2.6185,18.755822 -7.8431,25.559034 -5.7507,7.617591 -13.6941,11.438911 -23.83,11.438911 -10.0482,0 -17.8788,-3.82132 -23.5293,-11.438911 -5.1244,-6.803212 -7.6803,-15.322885 -7.6803,-25.559034 0,-9.622215 2.7689,-17.715908 8.3067,-24.306128 5.851,-6.99115 13.5438,-10.499245 23.0532,-10.499245 9.5095,0 17.2524,3.508095 23.2162,10.499245 5.5377,6.59022 8.3066,14.683913 8.3066,24.306128 z" /><path
     inkscape:connector-curvature="0"
     id="path56"
     style="fill:#ecd164;fill-opacity:1"
     d="m 1096.3669,109.26483 -11.4514,0 0,-46.707861 c 0,-5.124334 -1.5411,-9.121062 -4.6232,-12.002728 -3.0821,-2.869122 -7.1916,-4.259838 -12.3159,-4.14707 -5.4376,0.100237 -10.612,1.879336 -15.5233,5.324794 l 0,57.532865 -11.4515,0 0,-58.948634 c 6.5902,-4.798575 12.6542,-7.930818 18.192,-9.396704 5.2246,-1.36565 9.8353,-2.042209 13.8069,-2.042209 2.7188,0 5.2747,0.26311 7.6802,0.789314 4.4979,1.039904 8.1564,2.969358 10.9754,5.800906 3.1447,3.132231 4.7108,6.890916 4.7108,11.288561 l 0,52.508776 z" /><path
     inkscape:connector-curvature="0"
     id="path1948"
     style="fill:#86afd2;fill-opacity:1"
     d="m 600.59274,4.031459 c -5.89183,0.02737 -11.5184,0.5298657 -16.46922,1.4059092 -14.58444,2.5765938 -17.23241,7.9696278 -17.23243,17.9152978 l 0,13.135208 34.46486,0 0,4.378402 -34.46486,0 -12.93436,0 c -10.01643,0 -18.78712,6.020463 -21.53049,17.473441 -3.16443,13.127774 -3.30478,21.319716 0,35.02722 2.44989,10.203333 8.30055,17.473443 18.31699,17.473443 l 11.84981,0 0,-15.746183 c 0,-11.375687 9.84251,-21.409984 21.53048,-21.409986 l 34.42468,0 c 9.58263,0 17.23245,-7.890011 17.23243,-17.51361 l 0,-32.817935 c 0,-9.34017 -7.87948,-16.3564617 -17.23243,-17.9152978 C 612.62767,4.4518177 606.48458,4.004081 600.59274,4.031459 Z M 581.9544,14.595861 c 3.55999,0 6.46718,2.954686 6.46718,6.587688 0,3.620126 -2.90719,6.54752 -6.46718,6.54752 -3.57273,-1e-6 -6.46718,-2.927395 -6.46718,-6.54752 0,-3.633001 2.89445,-6.587688 6.46718,-6.587688 z" /><path
     inkscape:connector-curvature="0"
     id="path1950"
     style="fill:#ecd164;fill-opacity:1"
     d="m 640.0787,40.866276 0,15.304325 c 0,11.865236 -10.05942,21.851842 -21.5305,21.851844 l -34.42468,0 c -9.4295,0 -17.23241,8.070377 -17.23243,17.513609 l 0,32.817926 c 0,9.34018 8.12193,14.83395 17.23243,17.51361 10.90965,3.20786 21.37142,3.7876 34.42468,0 8.67668,-2.51218 17.23245,-7.56795 17.23243,-17.51361 l 0,-13.1352 -34.42468,0 0,-4.3784 34.42468,0 17.23245,0 c 10.01644,0 13.74899,-6.98669 17.23242,-17.473443 3.59825,-10.795949 3.44515,-21.178004 0,-35.02722 -2.47542,-9.971434 -7.20324,-17.473441 -17.23242,-17.473441 l -12.93438,0 z m -19.36138,83.109304 c 3.57275,2e-5 6.46719,2.92741 6.46719,6.54752 0,3.633 -2.89444,6.58769 -6.46719,6.58769 -3.55997,0 -6.46718,-2.95469 -6.46718,-6.58769 2e-5,-3.62011 2.90721,-6.54752 6.46718,-6.54752 z" /></svg>