<?xml version="1.0" encoding="utf-8"?>
<!-- Generator: Adobe Illustrator 21.1.0, SVG Export Plug-In . SVG Version: 6.00 Build 0)  -->
<svg version="1.1" id="Calque_1" xmlns="http://www.w3.org/2000/svg" xmlns:xlink="http://www.w3.org/1999/xlink" x="0px" y="0px"
	 viewBox="0 0 221 46.7" style="enable-background:new 0 0 221 46.7;" width="709.850107" height="150" xml:space="preserve">
<style type="text/css">
	.st0{fill:#7FD787;}
	.st1{opacity:0.28;fill:#7FD787;enable-background:new    ;}
</style>
<path class="st0" d="M73.8,14.7L73.8,14.7L73.8,14.7L73.8,14.7z M66.1,35.5c-0.5-1.1-0.7-2.3-0.7-3.5c0-0.8,0-17.4,0-17.4h8.4
	l-1.1-2.1h-7.3V4.8H63v7.6h-7.4l-1.1,2.2H63c0,0,0,15.8,0,16.7c-0.1,1.8,0.2,3.6,0.8,5.1c0,0.1,0.7,1.5,1.8,2.9
	c0.6,0.6,1.7,1.6,3.2,2.7l1.1-2.2c-1.2-0.8-2-1.5-2.5-2C66.6,36.6,66.1,35.5,66.1,35.5z M39.2,4.5c-1.5,0.9-2.6,2.1-3.5,3.4
	c-0.4,0.7-6.6,9.9-10.1,15.2c-2.9,4.4-10.3,15.5-10.8,16.2c-1.2,2-2.9,3.8-4.8,5.1c0,0.1-2.1,1.3-4.6,2.1c-0.2,0-0.4,0.1-0.5,0.1
	h36.8c-0.1,0-0.2-0.1-0.4-0.1c-2.5-0.8-4.5-2-4.6-2.1c-1.9-1.3-3.6-3.1-4.8-5.1c-0.4-0.6-5.2-7.8-8.6-12.9c0.8-1.2,1.5-2.3,2.1-3.1
	c0,0.1,0.1,0.1,0.1,0.2C29,28.8,35.2,38,35.6,38.7c0.9,1.3,2,2.5,3.5,3.4c0,0,1.5,1,3.5,1.6c0.8,0.3,2.2,0.5,4,0.7v2.1h0.1V2.2
	c-1.8,0.2-3.2,0.4-4,0.7C40.7,3.5,39.2,4.5,39.2,4.5z M11,38.8c0.4-0.7,6.6-9.9,10.1-15.2C24,19.1,31.4,8.1,31.9,7.3
	c1.2-2,2.9-3.8,4.8-5.1c0-0.1,2.1-1.3,4.6-2.1c0.2,0,0.4-0.1,0.5-0.1H5c0.1,0,0.3,0.1,0.4,0.1c2.5,0.8,4.5,2,4.6,2.1
	c1.9,1.3,3.6,3.1,4.8,5.1c0.4,0.6,5.2,7.8,8.6,12.9c-0.8,1.2-1.5,2.3-2.1,3.1c0-0.1-0.1-0.1-0.1-0.2C17.6,17.9,11.4,8.6,11,7.9
	c-0.9-1.3-2-2.5-3.5-3.4c0,0-1.5-1-3.5-1.6C3.2,2.6,1.8,2.4,0,2.2v42.4c1.8-0.2,3.2-0.4,4-0.7c2-0.6,3.5-1.6,3.5-1.6
	C9,41.2,10.2,40.1,11,38.8z M186.3,11.8c-8.9,0-12.4,5-12.4,15.5c0,10.6,3.5,15.5,12.4,15.5s12.4-5,12.4-15.5
	C198.7,16.7,195.2,11.8,186.3,11.8z M186.3,40.8c-8.4,0-10.1-5.3-10.1-13.4S177.9,14,186.3,14c8.4,0,10.1,5.3,10.1,13.4
	C196.4,35.4,194.7,40.7,186.3,40.8z M220,11.8c-4.3,0.2-7.2,1.7-9.1,4.6v-4.2c-0.8,0.1-1.6,0.3-2.3,0.5v29.7
	c0.7,0.2,1.5,0.4,2.3,0.5V27.2c0-8.1,1.7-13.4,10.1-13.4l0,0L220,11.8z M93.5,11.8c-5.4,0-11.8,2-11.8,15.6
	c0,12.6,5.5,15.5,12.3,15.5c3.7,0,6.9-0.7,9.6-2.3l-0.9-2c-2.8,1.6-5.4,2.2-8.7,2.2c-5.4,0-9.6-1.9-10-11.5v-1.2h20.8l0,0v-0.8
	C104.9,15.6,100.6,11.8,93.5,11.8z M83.9,25.9c0.2-10.2,4.7-12,9.5-12c5.3,0,9,2.8,9,12H83.9z M126.2,11.7h-1.3
	c-8.8,0-10,7.4-10,13.9v15.6c0.7,0.6,1.5,1.1,2.4,1.5V26.3c0-7.3,1.1-12.5,8-12.5h0.6c6.9,0,8,5.1,8,12.5v16.5
	c0.8-0.4,1.7-0.9,2.4-1.5V25.7C136.2,19.1,134.9,11.7,126.2,11.7z M156.3,25.9c-4.6-1.3-7.4-2.5-7.4-6.3c0-4.4,3.1-5.7,7-5.7
	c2.6,0,5,0.4,7.2,1.5l0.9-2c-2.6-1.3-5.4-1.6-8.1-1.6c-4.8,0-9.2,2.2-9.2,7.7s3.9,7.2,8.7,8.5c4.5,1.2,8.1,2.2,8.1,6.2
	c0,4.9-3.5,6.5-7.4,6.5c-3.5,0-6.9-0.9-9.4-2.6l-1,1.9c3,2,6.6,2.7,10.5,2.7c5.1,0,9.6-2.3,9.6-8.5
	C165.8,28.6,161.4,27.4,156.3,25.9z"/>
<path class="st1" d="M25.4,23.3c-0.6,0.8-1.3,1.9-2.1,3.1c3.4,5.1,8.1,12.3,8.6,12.9c1.2,2,2.9,3.8,4.8,5.1c0,0.1,2.1,1.3,4.6,2.1
	c0.2,0,0.4,0.1,0.5,0.1h4.8v-2.2c-1.8-0.2-3.2-0.4-4-0.7c-2-0.6-3.5-1.6-3.5-1.6c-1.5-0.9-2.6-2.1-3.5-3.4
	C35.2,38,29,28.8,25.5,23.5l0,0C25.5,23.5,25.5,23.4,25.4,23.3 M4.8,0H0v2.2c1.8,0.2,3.2,0.4,4,0.7c2,0.6,3.5,1.6,3.5,1.6
	C9,5.4,10.1,6.6,11,7.9c0.4,0.7,6.6,9.9,10.1,15.2l0,0c0,0.1,0.1,0.1,0.1,0.2c0.6-0.8,1.3-1.9,2.1-3.1c-3.4-5.1-8.1-12.3-8.6-12.9
	c-1.2-2-2.9-3.8-4.8-5.1c0-0.1-2.1-1.3-4.6-2.1C5.2,0.1,5,0,4.8,0"/>
</svg>
