<?xml version="1.0" encoding="UTF-8" standalone="no"?>
<!-- Generator: Adobe Illustrator 19.2.1, SVG Export Plug-In . SVG Version: 6.00 Build 0)  -->

<svg
   xmlns:dc="http://purl.org/dc/elements/1.1/"
   xmlns:cc="http://creativecommons.org/ns#"
   xmlns:rdf="http://www.w3.org/1999/02/22-rdf-syntax-ns#"
   xmlns:svg="http://www.w3.org/2000/svg"
   xmlns="http://www.w3.org/2000/svg"
   xmlns:sodipodi="http://sodipodi.sourceforge.net/DTD/sodipodi-0.dtd"
   xmlns:inkscape="http://www.inkscape.org/namespaces/inkscape"
   version="1.1"
   id="Calque_1"
   x="0px"
   y="0px"
   viewBox="0 0 500 105"
   xml:space="preserve"
   inkscape:version="0.91 r13725"
   sodipodi:docname="xtensor.svg"
   width="500"
   height="105"><metadata
     id="metadata13"><rdf:RDF><cc:Work
         rdf:about=""><dc:format>image/svg+xml</dc:format><dc:type
           rdf:resource="http://purl.org/dc/dcmitype/StillImage" /><dc:title /></cc:Work></rdf:RDF></metadata><defs
     id="defs11" /><sodipodi:namedview
     pagecolor="#ffffff"
     bordercolor="#666666"
     borderopacity="1"
     objecttolerance="10"
     gridtolerance="10"
     guidetolerance="10"
     inkscape:pageopacity="0"
     inkscape:pageshadow="2"
     inkscape:window-width="1640"
     inkscape:window-height="917"
     id="namedview9"
     showgrid="false"
     inkscape:zoom="1.888"
     inkscape:cx="240.60899"
     inkscape:cy="76.989961"
     inkscape:window-x="83"
     inkscape:window-y="34"
     inkscape:window-maximized="0"
     inkscape:current-layer="Calque_1" /><style
     type="text/css"
     id="style3">
	.st0{fill:#7DDB85;}
	.st1{fill:#D8F8D7;}
</style><path
     style="fill:#7ddb85"
     d="M 11.333984 -0.5 C 11.630027 -0.43338094 11.932743 -0.36740031 12.199219 -0.30078125 C 17.799219 1.4992188 22.4 4.2003906 22.5 4.4003906 C 26.9 7.4003906 30.600391 11.300391 33.400391 15.900391 C 34.400391 17.300391 45.100781 33.499609 52.800781 45.099609 C 51.000781 47.799609 49.399609 50.299219 48.099609 52.199219 C 47.999609 51.999219 47.900781 51.899219 47.800781 51.699219 C 39.900781 39.799219 25.900391 18.800781 24.900391 17.300781 C 22.900391 14.400781 20.3 11.699609 17 9.5996094 C 17 9.5996094 13.5 7.3003906 9 5.9003906 C 7.2 5.3003906 4.1 4.8007812 0 4.3007812 L 0 100.19922 C 4.1 99.699219 7.2 99.199609 9 98.599609 C 13.5 97.199609 17 94.900391 17 94.900391 C 20.4 92.700391 23.000391 89.999609 24.900391 87.099609 C 25.900391 85.599609 39.900781 64.599219 47.800781 52.699219 C 54.400781 42.699219 70.999219 17.7 72.199219 16 C 74.999219 11.4 78.699609 7.5 83.099609 4.5 C 83.199609 4.3 87.800391 1.6007812 93.400391 -0.19921875 L 94.599609 -0.5 L 11.333984 -0.5 z M 105.69922 4.3007812 C 101.59922 4.8007812 98.499219 5.3003906 96.699219 5.9003906 C 91.999219 7.3003906 88.599609 9.5996094 88.599609 9.5996094 C 85.299609 11.699609 82.699219 14.400781 80.699219 17.300781 C 79.699219 18.800781 65.700781 39.799219 57.800781 51.699219 C 51.200781 61.699219 34.600391 86.700391 33.400391 88.400391 C 30.600391 93.000391 26.9 96.900391 22.5 99.900391 C 22.4 100.10039 17.799219 102.79961 12.199219 104.59961 L 11 104.90039 L 94.203125 104.90039 L 93.400391 104.69922 C 87.800391 102.89922 83.199609 100.2 83.099609 100 C 78.699609 97 74.999219 93.1 72.199219 88.5 C 71.199219 87.1 60.500781 70.900781 52.800781 59.300781 C 54.600781 56.600781 56.2 54.099219 57.5 52.199219 C 57.6 52.399219 57.699219 52.499219 57.699219 52.699219 C 65.599219 64.599219 79.599609 85.599609 80.599609 87.099609 C 82.599609 89.999609 85.2 92.700781 88.5 94.800781 C 88.5 94.800781 92 97.1 96.5 98.5 C 98.3 99.1 101.4 99.599609 105.5 100.09961 L 105.5 104.90039 L 105.69922 104.90039 L 105.69922 4.3007812 z M 142.5 10.300781 L 142.5 27.5 L 125.80078 27.5 L 123.30078 32.400391 L 142.59961 32.400391 L 142.59961 70.099609 C 142.39961 74.199609 143.1 78.199219 144.5 81.699219 C 144.5 81.899219 146.09961 85.199219 148.59961 88.199219 C 149.89961 89.599219 152.40039 91.899219 155.90039 94.199219 L 158.30078 89.300781 C 155.60078 87.400781 153.69922 85.799219 152.69922 84.699219 C 150.59922 82.299219 149.5 79.599609 149.5 79.599609 C 148.4 77.099609 147.90039 74.299609 147.90039 71.599609 L 147.90039 32.300781 L 166.80078 32.300781 L 164.30078 27.5 L 147.80078 27.5 L 147.80078 10.300781 L 142.5 10.300781 z M 282.40039 25.900391 C 262.50039 25.900391 259.80078 42.600781 259.80078 57.300781 L 259.80078 92.599609 C 261.40078 93.999609 263.29922 95.099609 265.19922 96.099609 L 265.19922 59 C 265.19922 42.4 267.60078 30.800781 283.30078 30.800781 L 284.69922 30.800781 C 300.29922 30.800781 302.80078 42.4 302.80078 59 L 302.80078 96.300781 C 304.70078 95.300781 306.59922 94.200781 308.19922 92.800781 L 308.19922 57.5 C 307.99922 42.6 305.10039 25.900391 285.40039 25.900391 L 282.40039 25.900391 z M 211.59961 26 C 199.29961 26 184.80078 30.500781 184.80078 61.300781 C 184.80078 89.900781 197.29922 96.300781 212.69922 96.300781 C 220.99922 96.300781 228.2 94.8 234.5 91 L 232.5 86.5 C 226.2 90.1 220.20078 91.5 212.80078 91.5 C 200.60078 91.5 190.99922 87.1 190.19922 65.5 L 190.09961 62.800781 L 237.09961 62.900391 L 237.19922 63 L 237.19922 61.199219 C 237.19922 34.699219 227.49961 26 211.59961 26 z M 352.59961 26 C 341.79961 26 331.80078 30.9 331.80078 43.5 C 331.80078 56.1 340.70039 59.900781 351.40039 62.800781 C 361.50039 65.600781 369.80078 67.700391 369.80078 76.900391 C 369.80078 87.900391 361.8 91.5 353 91.5 C 345.1 91.5 337.49922 89.399219 331.69922 85.699219 L 329.5 90 C 336.2 94.5 344.40078 96.199219 353.30078 96.199219 C 364.90078 96.199219 375 91.100391 375 76.900391 C 375 64.200391 365.19961 61.3 353.59961 58 C 343.09961 55.1 336.90039 52.399219 336.90039 43.699219 C 336.90039 33.699219 343.79922 30.800781 352.69922 30.800781 C 358.49922 30.800781 364.1 31.699219 369 34.199219 L 371 29.699219 C 365.1 26.699219 358.79961 26 352.59961 26 z M 497.59961 26 C 487.79961 26.4 481.19961 29.800781 477.09961 36.300781 L 477.09961 26.800781 C 475.19961 27.000781 473.50078 27.400391 471.80078 27.900391 L 471.80078 95.099609 C 473.40078 95.599609 475.19961 95.999219 477.09961 96.199219 L 477.09961 61.400391 L 477.09961 61 C 477.09961 42.7 480.90039 30.599609 499.90039 30.599609 L 500 30.599609 L 497.59961 26 z M 421.5 26.099609 C 401.4 26.099609 393.5 37.299219 393.5 61.199219 C 393.5 85.099219 401.4 96.300781 421.5 96.300781 C 441.6 96.300781 449.5 85.099219 449.5 61.199219 C 449.5 37.199219 441.6 25.999609 421.5 26.099609 z M 211.5 30.800781 C 223.6 30.800781 231.80078 37.2 231.80078 58 L 189.90039 58 C 190.40039 35 200.5 30.800781 211.5 30.800781 z M 421.40039 30.800781 C 440.40039 30.800781 444.19922 42.899219 444.19922 61.199219 C 444.19922 79.399219 440.40039 91.499609 421.40039 91.599609 C 402.40039 91.599609 398.59961 79.499219 398.59961 61.199219 C 398.59961 42.899219 402.50039 30.800781 421.40039 30.800781 z M 166.80078 32.400391 L 166.90039 32.599609 L 166.90039 32.400391 L 166.80078 32.400391 z "
     id="path5" /><path
     class="st1"
     d="m 57.5,52.2 c -1.3,1.9 -2.9,4.4 -4.7,7.1 7.7,11.6 18.4,27.8 19.4,29.2 2.8,4.6 6.5,8.5 10.9,11.5 0.1,0.2 4.7,2.9 10.3,4.7 0.4,0.1 0.8,0.2 1.2,0.3 l 10.9,0 0,-4.9 c -4.1,-0.5 -7.2,-1 -9,-1.6 -4.5,-1.4 -8,-3.7 -8,-3.7 -3.3,-2.1 -5.9,-4.8 -7.9,-7.7 -1,-1.5 -15,-22.5 -22.9,-34.4 l 0,0 c 0,-0.2 -0.1,-0.3 -0.2,-0.5 M 10.9,-0.6 0,-0.6 0,4.3 c 4.1,0.5 7.2,1 9,1.6 4.5,1.4 8,3.7 8,3.7 3.3,2.1 5.9,4.8 7.9,7.7 1,1.5 15,22.5 22.9,34.4 l 0,0 c 0.1,0.2 0.2,0.3 0.3,0.5 1.3,-1.9 2.9,-4.4 4.7,-7.1 C 45.1,33.5 34.4,17.3 33.4,15.9 30.6,11.3 26.9,7.4 22.5,4.4 22.4,4.2 17.8,1.5 12.2,-0.3 11.8,-0.4 11.4,-0.5 10.9,-0.6"
     id="path7-3"
     inkscape:connector-curvature="0"
     style="fill:#7ddb85;fill-opacity:0.28000004" /></svg>