<?xml version="1.0" encoding="UTF-8" standalone="no"?>
<svg
   xmlns:dc="http://purl.org/dc/elements/1.1/"
   xmlns:cc="http://creativecommons.org/ns#"
   xmlns:rdf="http://www.w3.org/1999/02/22-rdf-syntax-ns#"
   xmlns:svg="http://www.w3.org/2000/svg"
   xmlns="http://www.w3.org/2000/svg"
   xmlns:sodipodi="http://sodipodi.sourceforge.net/DTD/sodipodi-0.dtd"
   xmlns:inkscape="http://www.inkscape.org/namespaces/inkscape"
   preserveAspectRatio="xMidYMid"
   width="2609.0693"
   height="553.43463"
   viewBox="0 0 2609.0693 553.43463"
   id="svg2"
   version="1.1"
   inkscape:version="0.91 r13725"
   sodipodi:docname="xtensor-r.svg">
  <metadata
     id="metadata22">
    <rdf:RDF>
      <cc:Work
         rdf:about="">
        <dc:format>image/svg+xml</dc:format>
        <dc:type
           rdf:resource="http://purl.org/dc/dcmitype/StillImage" />
        <dc:title></dc:title>
      </cc:Work>
    </rdf:RDF>
  </metadata>
  <sodipodi:namedview
     pagecolor="#ffffff"
     bordercolor="#666666"
     borderopacity="1"
     objecttolerance="10"
     gridtolerance="10"
     guidetolerance="10"
     inkscape:pageopacity="0"
     inkscape:pageshadow="2"
     inkscape:window-width="1847"
     inkscape:window-height="1056"
     id="namedview20"
     showgrid="false"
     fit-margin-top="0"
     fit-margin-left="0"
     fit-margin-right="0"
     fit-margin-bottom="0"
     inkscape:zoom="0.35355339"
     inkscape:cx="1410.4331"
     inkscape:cy="30.99415"
     inkscape:window-x="73"
     inkscape:window-y="24"
     inkscape:window-maximized="1"
     inkscape:current-layer="svg2" />
  <defs
     id="defs4">
    <linearGradient
       id="gradientFill-1"
       x1="0.7414425"
       x2="590.86261"
       y1="3.6658268"
       y2="593.78699"
       gradientUnits="userSpaceOnUse"
       spreadMethod="pad"
       gradientTransform="matrix(1.1357266,0,0,0.76062817,1938.0109,-2.7883307)">
      <stop
         offset="0"
         stop-color="rgb(203,206,208)"
         stop-opacity="1"
         id="stop7" />
      <stop
         offset="1"
         stop-color="rgb(132,131,139)"
         stop-opacity="1"
         id="stop9" />
    </linearGradient>
    <linearGradient
       id="gradientFill-2"
       x1="301.02603"
       x2="703.0675"
       y1="151.4006"
       y2="553.44208"
       gradientUnits="userSpaceOnUse"
       spreadMethod="pad"
       gradientTransform="matrix(0.92010058,0,0,0.9388818,1938.0109,-2.7883307)">
      <stop
         offset="0"
         stop-color="rgb(39,109,195)"
         stop-opacity="1"
         id="stop12" />
      <stop
         offset="1"
         stop-color="rgb(22,92,170)"
         stop-opacity="1"
         id="stop14" />
    </linearGradient>
  </defs>
  <path
     d="m 2273.9611,448.86278 c -185.0745,0 -335.1081,-100.48124 -335.1081,-224.43092 C 1938.853,100.48124 2088.8866,0 2273.9611,0 c 185.0755,0 335.1082,100.48124 335.1082,224.43186 0,123.94968 -150.0327,224.43092 -335.1082,224.43092 z m 51.2942,-361.11771 c -140.6732,0 -254.7113,68.69333 -254.7113,153.43071 0,84.73739 114.0381,153.43072 254.7113,153.43072 140.6722,0 244.4865,-46.96387 244.4865,-153.43072 0,-106.43339 -103.8143,-153.43071 -244.4865,-153.43071 z"
     id="path16"
     style="fill:url(#gradientFill-1);fill-rule:evenodd"
     inkscape:connector-curvature="0" />
  <path
     d="m 2449.205,347.61196 c 0,0 20.2823,6.12039 32.0658,12.08277 4.0886,2.06894 11.1626,6.19753 16.2653,11.61805 4.9985,5.30898 7.4355,10.68861 7.4355,10.68861 l 79.9322,134.76934 -129.1927,0.0576 -60.4139,-113.44976 c 0,0 -12.3708,-21.25545 -19.983,-27.41859 -6.35,-5.14076 -9.0574,-6.97084 -15.3358,-6.97084 -4.3703,0 -30.6958,0 -30.6958,0 l 0.024,147.7574 -114.3216,0.0483 0,-377.43595 229.5726,0 c 0,0 104.5624,1.88584 104.5624,101.36699 0,99.48114 -99.9152,106.88603 -99.9152,106.88603 z m -49.7253,-126.38205 -69.2091,-0.0446 -0.034,64.17808 69.2435,-0.0223 c 0,0 32.0658,-0.0995 32.0658,-32.64672 0,-33.20158 -32.0658,-31.46446 -32.0658,-31.46446 z"
     id="path18"
     style="fill:url(#gradientFill-2);fill-rule:evenodd"
     inkscape:connector-curvature="0" />
  <path
     inkscape:connector-curvature="0"
     style="fill:#2369bd;fill-opacity:1"
     d="m 47.1862,114.2119 c 1.2325,0.27728 2.4928,0.55205 3.6022,0.82941 23.3142,7.49384 42.4684,18.73949 42.8847,19.57214 18.3183,12.48974 33.724,28.72641 45.3811,47.87735 4.1632,5.82855 48.7116,73.26993 80.7686,121.56361 -7.4939,11.24077 -14.1599,21.64727 -19.5721,29.55744 -0.4164,-0.83265 -0.8278,-1.24898 -1.2441,-2.08163 C 166.1169,281.98757 107.8298,194.56585 103.6665,188.32097 95.34,176.24755 84.514,165.00191 70.7753,156.25909 c 0,0 -14.5714,-9.57222 -33.306,-15.40077 C 29.9754,138.36037 17.0694,136.28037 0,134.19874 l 0,399.24903 c 17.0694,-2.08162 29.9754,-4.16162 37.4693,-6.65957 18.7346,-5.82855 33.306,-15.40078 33.306,-15.40078 14.155,-9.15914 24.9811,-20.40316 32.8912,-32.47658 4.1633,-6.24487 62.4504,-93.67471 95.3401,-143.21737 27.4774,-41.63248 96.5808,-145.71044 101.5767,-152.78797 11.6571,-19.15094 27.0628,-35.38761 45.3811,-47.87735 0.4163,-0.83265 19.5705,-12.07018 42.8847,-19.56402 l 4.9926,-1.25223 -346.6555,0 z m 392.8659,19.98684 c -17.0693,2.08163 -29.9753,4.16163 -37.4692,6.65958 -19.5673,5.82855 -33.7207,15.40077 -33.7207,15.40077 -13.7387,8.74282 -24.5648,19.98846 -32.8913,32.06188 -4.1632,6.24488 -62.4422,93.6666 -95.3319,143.20925 -27.4774,41.63249 -96.5889,145.71857 -101.5848,152.79609 -11.6571,19.15094 -27.0628,35.38761 -45.3811,47.87736 -0.4163,0.83265 -19.5705,12.07017 -42.8847,19.56402 l -4.9926,1.25222 346.3952,0 -3.3419,-0.83752 c -23.3142,-7.49385 -42.4684,-18.73137 -42.8847,-19.56402 -18.3183,-12.48975 -33.724,-28.72642 -45.3811,-47.87736 -4.1632,-5.82855 -48.7035,-73.26992 -80.7605,-121.5636 7.4938,-11.24078 14.1518,-21.65539 19.564,-29.56556 0.4163,0.83265 0.8294,1.24897 0.8294,2.08162 32.8897,49.54266 91.1768,136.9725 95.34,143.21737 8.3265,12.07342 19.1526,23.31906 32.8913,32.06188 0,0 14.5714,9.57223 33.306,15.40078 7.4939,2.49794 20.3999,4.57795 37.4692,6.65957 l 0,19.98684 0.8294,0 0,-418.82117 z m 153.2108,24.97949 0,71.60463 -69.523,0 -10.4081,20.40154 80.3458,0 0,156.95122 c -0.8326,17.06932 2.0833,33.72069 7.9118,48.29206 0,0.83264 6.6596,14.57136 17.0677,27.06111 5.4122,5.82855 15.8236,15.40402 30.395,24.97949 l 9.9934,-20.39342 c -11.2408,-7.91017 -19.1574,-14.57787 -23.3207,-19.15744 -8.7428,-9.9918 -13.3191,-21.23094 -13.3191,-21.23094 -4.5796,-10.40812 -6.6596,-22.06522 -6.6596,-33.30599 l 0,-163.61079 78.687,0 -10.4081,-19.98684 -68.6936,0 0,-71.60463 -22.0685,0 z m 582.4401,64.94506 c -82.8486,0 -94.0878,69.52787 -94.0878,130.72762 l 0,146.9578 c 6.6612,5.82854 14.5649,10.40812 22.4751,14.57137 l 0,-154.4549 c 0,-69.10992 9.9982,-117.40035 75.3612,-117.40035 l 5.8221,0 c 64.9467,0 75.3613,48.29043 75.3613,117.40035 l 0,155.29242 c 7.9101,-4.16325 15.8138,-8.74283 22.475,-14.57137 l 0,-146.96592 c -0.8326,-62.0324 -12.9012,-131.55702 -94.9172,-131.55702 l -12.4897,0 z m -294.7612,0.41466 c -51.208,0 -111.5702,18.73786 -111.5702,146.96591 0,119.06891 52.0341,145.71369 116.1481,145.71369 34.555,0 64.5336,-6.24812 90.76208,-22.06846 l -8.3265,-18.73462 c -26.22848,14.9877 -51.20468,20.81625 -82.01278,20.81625 -50.7916,0 -90.7653,-18.3183 -94.0959,-108.24446 l -0.4146,-11.23753 195.67258,0.41466 0.4147,0.41466 0,-7.49709 c 0,-110.32608 -40.38188,-146.5431 -106.57748,-146.5431 z m 587.018,0 c -44.9631,0 -86.5907,20.39991 -86.5907,72.85684 0,52.45693 37.0513,68.28052 81.598,80.35394 42.0488,11.6571 76.6054,20.3983 76.6054,58.70018 0,45.79573 -33.3092,60.78181 -69.9458,60.78181 -32.8897,0 -64.5336,-8.74607 -88.6804,-24.15009 l -9.1559,17.90521 c 27.8937,18.73462 62.0356,25.8089 99.0885,25.8089 48.2937,0 90.3393,-21.2277 90.3393,-80.34583 0,-52.87325 -40.8015,-64.9483 -89.0952,-78.68702 -43.7141,-12.07342 -69.523,-23.31743 -69.523,-59.5377 0,-41.63248 28.7216,-53.6994 65.7745,-53.6994 24.1468,0 47.4643,3.74042 67.8642,14.14854 l 8.3265,-18.73461 c -24.5632,-12.48975 -50.7933,-15.40077 -76.6054,-15.40077 z m 603.671,0 c -40.7999,1.66529 -68.2773,15.82359 -85.3466,42.8847 l 0,-39.55086 c -7.9102,0.83265 -14.9829,2.49633 -22.0604,4.57795 l 0,279.76705 c 6.6612,2.08162 14.1502,3.7453 22.0604,4.57795 l 0,-144.87618 0,-1.66692 c 0,-76.18745 15.8236,-126.56438 94.9253,-126.56438 l 0.4146,0 -9.9933,-19.14931 z m -316.8216,0.41465 c -83.6813,0 -116.5709,46.62676 -116.5709,146.1284 0,99.50164 32.8896,146.13651 116.5709,146.13651 83.6813,0 116.571,-46.63487 116.571,-146.13651 0,-99.91796 -32.8897,-146.54472 -116.571,-146.1284 z m -874.2821,19.57214 c 50.3753,0 84.51718,26.64155 84.51718,113.23711 l -174.44178,0 c 2.0817,-95.75471 44.1288,-113.23711 89.9246,-113.23711 z m 873.8674,0 c 79.1017,0 94.9172,50.36881 94.9172,126.55626 0,75.77112 -15.8155,126.14805 -94.9172,126.56437 -79.1017,0 -94.9253,-50.37692 -94.9253,-126.56437 0,-76.18745 16.2399,-126.55626 94.9253,-126.55626 z m -1059.9614,6.65958 0.4147,0.8294 0,-0.8294 -0.4147,0 z"
     id="path5" />
  <path
     class="st1"
     d="m 239.3868,333.61509 c -5.4122,7.91018 -12.0734,18.3183 -19.5673,29.55907 32.0571,48.29368 76.6038,115.7383 80.7671,121.56685 11.6571,19.15094 27.0611,35.38761 45.3794,47.87736 0.4163,0.83265 19.5672,12.07342 42.8814,19.56727 1.6653,0.41632 3.3306,0.83265 4.9959,1.24897 l 45.3794,0 0,-20.39992 c -17.0693,-2.08162 -29.9753,-4.16325 -37.4692,-6.66119 -18.7346,-5.82855 -33.306,-15.40402 -33.306,-15.40402 -13.7387,-8.74283 -24.5631,-19.9836 -32.8896,-32.05702 -4.1633,-6.24487 -62.4488,-93.67309 -95.3384,-143.21574 l 0,0 c 0,-0.83265 -0.4164,-1.24898 -0.8327,-2.08163 M 45.3794,113.79558 0,113.79558 0,134.1955 c 17.0694,2.08162 29.9754,4.16325 37.4693,6.66119 18.7346,5.82855 33.306,15.40402 33.306,15.40402 13.7387,8.74283 24.5631,19.9836 32.8896,32.05702 4.1633,6.24487 62.4487,93.67308 95.3384,143.21574 l 0,0 c 0.4163,0.83265 0.8327,1.24898 1.249,2.08162 5.4122,-7.91017 12.0734,-18.31829 19.5672,-29.55906 -32.057,-48.29368 -76.6037,-115.7383 -80.767,-121.56685 -11.6571,-19.15094 -27.0611,-35.38761 -45.3794,-47.87736 -0.4163,-0.83265 -19.5672,-12.07342 -42.8814,-19.56727 -1.6653,-0.41632 -3.3306,-0.83265 -5.4123,-1.24897"
     id="path7-3"
     inkscape:connector-curvature="0"
     style="fill:#1f65b9;fill-opacity:0.23529412" />
</svg>
