<?xml version="1.0" encoding="UTF-8" standalone="no"?>
<!-- Generator: Adobe Illustrator 19.2.1, SVG Export Plug-In . SVG Version: 6.00 Build 0)  -->

<svg
   xmlns:dc="http://purl.org/dc/elements/1.1/"
   xmlns:cc="http://creativecommons.org/ns#"
   xmlns:rdf="http://www.w3.org/1999/02/22-rdf-syntax-ns#"
   xmlns:svg="http://www.w3.org/2000/svg"
   xmlns="http://www.w3.org/2000/svg"
   xmlns:sodipodi="http://sodipodi.sourceforge.net/DTD/sodipodi-0.dtd"
   xmlns:inkscape="http://www.inkscape.org/namespaces/inkscape"
   version="1.1"
   id="Calque_1"
   x="0px"
   y="0px"
   viewBox="0 0 500 105"
   xml:space="preserve"
   inkscape:version="0.91 r13725"
   sodipodi:docname="xtensor.svg"
   width="500"
   height="105"><metadata
     id="metadata13"><rdf:RDF><cc:Work
         rdf:about=""><dc:format>image/svg+xml</dc:format><dc:type
           rdf:resource="http://purl.org/dc/dcmitype/StillImage" /><dc:title></dc:title></cc:Work></rdf:RDF></metadata><defs
     id="defs11" /><sodipodi:namedview
     pagecolor="#ffffff"
     bordercolor="#666666"
     borderopacity="1"
     objecttolerance="10"
     gridtolerance="10"
     guidetolerance="10"
     inkscape:pageopacity="0"
     inkscape:pageshadow="2"
     inkscape:window-width="1640"
     inkscape:window-height="725"
     id="namedview9"
     showgrid="false"
     inkscape:zoom="1.888"
     inkscape:cx="267.1001"
     inkscape:cy="25.541221"
     inkscape:window-x="83"
     inkscape:window-y="34"
     inkscape:window-maximized="0"
     inkscape:current-layer="Calque_1" /><style
     type="text/css"
     id="style3">
	.st0{fill:#7DDB85;}
	.st1{fill:#D8F8D7;}
</style><path
     class="st0"
     d="m 375,76.9 c 0,14.2 -10.1,19.3 -21.7,19.3 -8.9,0 -17.1,-1.7 -23.8,-6.2 l 2.2,-4.3 c 5.8,3.7 13.4,5.8 21.3,5.8 8.8,0 16.8,-3.6 16.8,-14.6 0,-9.2 -8.3,-11.3 -18.4,-14.1 -10.7,-2.9 -19.6,-6.7 -19.6,-19.3 0,-12.6 10,-17.5 20.8,-17.5 6.2,0 12.5,0.7 18.4,3.7 l -2,4.5 c -4.9,-2.5 -10.5,-3.4 -16.3,-3.4 -8.9,0 -15.8,2.9 -15.8,12.9 0,8.7 6.2,11.4 16.7,14.3 11.6,3.3 21.4,6.2 21.4,18.9 m 74.5,-15.7 c 0,23.9 -7.9,35.1 -28,35.1 -20.1,0 -28,-11.2 -28,-35.1 0,-23.9 7.9,-35.1 28,-35.1 20.1,-0.1 28,11.1 28,35.1 m -5.3,0 c 0,-18.3 -3.8,-30.4 -22.8,-30.4 -18.9,0 -22.8,12.1 -22.8,30.4 0,18.3 3.8,30.4 22.8,30.4 19,-0.1 22.8,-12.2 22.8,-30.4 m -158.8,-35.3 -3,0 c -19.9,0 -22.6,16.7 -22.6,31.4 l 0,35.3 c 1.6,1.4 3.5,2.5 5.4,3.5 l 0,-37.1 c 0,-16.6 2.4,-28.2 18.1,-28.2 l 1.4,0 c 15.6,0 18.1,11.6 18.1,28.2 l 0,37.3 c 1.9,-1 3.8,-2.1 5.4,-3.5 l 0,-35.3 C 308,42.6 305.1,25.9 285.4,25.9 M 497.6,26 c -9.8,0.4 -16.4,3.8 -20.5,10.3 l 0,-9.5 c -1.9,0.2 -3.6,0.6 -5.3,1.1 l 0,67.2 c 1.6,0.5 3.4,0.9 5.3,1.1 l 0,-34.8 0,0 c 0,-0.2 0,-0.3 0,-0.4 0,-18.3 3.8,-30.4 22.8,-30.4 l 0.1,0 -2.4,-4.6 m -330.7,6.6 0,-0.2 -0.1,0 0.1,0.2 m -19.1,-4.9 0,-17.4 -5.3,0 0,17.2 -16.7,0 -2.5,4.9 19.3,0 c 0,0 0,35.7 0,37.7 -0.2,4.1 0.5,8.1 1.9,11.6 0,0.2 1.6,3.5 4.1,6.5 1.3,1.4 3.8,3.7 7.3,6 l 2.4,-4.9 c -2.7,-1.9 -4.6,-3.5 -5.6,-4.6 -2.1,-2.4 -3.2,-5.1 -3.2,-5.1 -1.1,-2.5 -1.6,-5.3 -1.6,-8 0,-1.9 0,-39.3 0,-39.3 l 18.9,0 -2.5,-4.8 -16.5,0 m 89.4,33.7 0,1.8 -0.1,-0.1 -47,-0.1 0.1,2.7 c 0.8,21.6 10.4,26 22.6,26 7.4,0 13.4,-1.4 19.7,-5 l 2,4.5 c -6.3,3.8 -13.5,5.3 -21.8,5.3 -15.4,0 -27.9,-6.4 -27.9,-35 0,-30.8 14.5,-35.3 26.8,-35.3 15.9,0 25.6,8.7 25.6,35.2 M 231.8,58 c 0,-20.8 -8.2,-27.2 -20.3,-27.2 -11,0 -21.1,4.2 -21.6,27.2 l 41.9,0 M 88.6,9.6 c -3.3,2.1 -5.9,4.8 -7.9,7.7 -1,1.5 -15,22.5 -22.9,34.4 l 0,0 c -6.6,10 -23.2,35 -24.4,36.7 -2.8,4.6 -6.5,8.5 -10.9,11.5 -0.1,0.2 -4.7,2.9 -10.3,4.7 -0.4,0.1 -0.8,0.2 -1.2,0.3 l 94.7,0 0,-100.6 c -4.1,0.5 -7.2,1 -9,1.6 C 92,7.3 88.6,9.6 88.6,9.6 M 24.9,87.1 c 1,-1.5 15,-22.5 22.9,-34.4 l 0,0 C 54.4,42.7 71,17.7 72.2,16 75,11.4 78.7,7.5 83.1,4.5 c 0.1,-0.2 4.7,-2.9 10.3,-4.7 0.4,-0.1 0.8,-0.2 1.2,-0.3 L 0,-0.5 0,100.2 c 4.1,-0.5 7.2,-1 9,-1.6 4.5,-1.4 8,-3.7 8,-3.7 3.4,-2.2 6,-4.9 7.9,-7.8"
     id="path5"
     inkscape:connector-curvature="0"
     style="fill:#7ddb85" /><path
     class="st1"
     d="m 57.5,52.2 c -1.3,1.9 -2.9,4.4 -4.7,7.1 7.7,11.6 18.4,27.8 19.4,29.2 2.8,4.6 6.5,8.5 10.9,11.5 0.1,0.2 4.7,2.9 10.3,4.7 0.4,0.1 0.8,0.2 1.2,0.3 l 10.9,0 0,-4.9 c -4.1,-0.5 -7.2,-1 -9,-1.6 -4.5,-1.4 -8,-3.7 -8,-3.7 -3.3,-2.1 -5.9,-4.8 -7.9,-7.7 -1,-1.5 -15,-22.5 -22.9,-34.4 l 0,0 c 0,-0.2 -0.1,-0.3 -0.2,-0.5 M 10.9,-0.6 0,-0.6 0,4.3 c 4.1,0.5 7.2,1 9,1.6 4.5,1.4 8,3.7 8,3.7 3.3,2.1 5.9,4.8 7.9,7.7 1,1.5 15,22.5 22.9,34.4 l 0,0 c 0.1,0.2 0.2,0.3 0.3,0.5 1.3,-1.9 2.9,-4.4 4.7,-7.1 C 45.1,33.5 34.4,17.3 33.4,15.9 30.6,11.3 26.9,7.4 22.5,4.4 22.4,4.2 17.8,1.5 12.2,-0.3 11.8,-0.4 11.4,-0.5 10.9,-0.6"
     id="path7"
     inkscape:connector-curvature="0"
     style="fill:#d8f8d7" /></svg>