<?xml version="1.0" encoding="UTF-8" standalone="no"?>
<!-- Generator: Adobe Illustrator 21.1.0, SVG Export Plug-In . SVG Version: 6.00 Build 0)  -->

<svg
   xmlns:dc="http://purl.org/dc/elements/1.1/"
   xmlns:cc="http://creativecommons.org/ns#"
   xmlns:rdf="http://www.w3.org/1999/02/22-rdf-syntax-ns#"
   xmlns:svg="http://www.w3.org/2000/svg"
   xmlns="http://www.w3.org/2000/svg"
   xmlns:sodipodi="http://sodipodi.sourceforge.net/DTD/sodipodi-0.dtd"
   xmlns:inkscape="http://www.inkscape.org/namespaces/inkscape"
   version="1.1"
   id="Calque_1"
   x="0px"
   y="0px"
   viewBox="0 0 238.8 73.3"
   width="710.714286"
   height="218.154762"
   style="enable-background:new 0 0 238.8 73.3;"
   xml:space="preserve"
   inkscape:version="0.91 r13725"
   sodipodi:docname="xtensor-ros.svg"><metadata
     id="metadata19"><rdf:RDF><cc:Work
         rdf:about=""><dc:format>image/svg+xml</dc:format><dc:type
           rdf:resource="http://purl.org/dc/dcmitype/StillImage" /><dc:title /></cc:Work></rdf:RDF></metadata><defs
     id="defs17" /><sodipodi:namedview
     pagecolor="#ffffff"
     bordercolor="#666666"
     borderopacity="1"
     objecttolerance="10"
     gridtolerance="10"
     guidetolerance="10"
     inkscape:pageopacity="0"
     inkscape:pageshadow="2"
     inkscape:window-width="1440"
     inkscape:window-height="783"
     id="namedview15"
     showgrid="false"
     inkscape:zoom="0.88240293"
     inkscape:cx="343.43126"
     inkscape:cy="178.27956"
     inkscape:window-x="37"
     inkscape:window-y="28"
     inkscape:window-maximized="0"
     inkscape:current-layer="text4147" /><style
     type="text/css"
     id="style3">
	.st0{fill:#666666;}
	.st1{fill:#7FD787;}
	.st2{opacity:0.28;fill:#7FD787;enable-background:new    ;}
</style><g
     style="font-style:normal;font-weight:normal;font-size:40px;line-height:125%;font-family:sans-serif;letter-spacing:0px;word-spacing:0px;fill:#666666;fill-opacity:1;stroke:none;stroke-width:1px;stroke-linecap:butt;stroke-linejoin:miter;stroke-opacity:1"
     id="text4147"><g
       style="font-style:normal;font-weight:normal;font-size:26.08276176px;line-height:125%;font-family:sans-serif;letter-spacing:0px;word-spacing:0px;fill:#666666;fill-opacity:1;stroke:none;stroke-width:1px;stroke-linecap:butt;stroke-linejoin:miter;stroke-opacity:1"
       id="text4142"><path
         d="m 190.59257,59.504924 q 0,-0.7132 -0.29292,-1.222629 -0.29292,-0.509429 -1.00613,-0.802351 -0.49669,-0.203771 -1.15895,-0.241978 -0.66225,-0.05094 -1.54102,-0.05094 l -1.77026,0 0,5.107025 1.50281,0 q 1.17169,0 1.9613,-0.114622 0.78962,-0.114621 1.32452,-0.522164 0.50943,-0.394808 0.73867,-0.866029 0.24198,-0.483958 0.24198,-1.286309 z m 7.6287,13.156003 -5.97306,0 -5.1707,-6.953705 -2.25422,0 0,6.953705 -4.86505,0 0,-18.963492 8.20181,0 q 1.68111,0 2.891,0.191035 1.2099,0.191036 2.26696,0.827822 1.0698,0.636787 1.69385,1.655644 0.63679,1.006123 0.63679,2.534409 0,2.101395 -0.98065,3.42591 -0.96791,1.324515 -2.77639,2.20328 l 6.32966,8.125392 z"
         style="font-style:normal;font-variant:normal;font-weight:bold;font-stretch:normal;font-family:'Open Sans';-inkscape-font-specification:'Open Sans Bold';fill:#666666;fill-opacity:1"
         id="path5458" /><path
         d="m 218.82767,63.185549 q 0,4.533917 -2.59809,7.208419 -2.59809,2.661766 -7.18295,2.661766 -4.57212,0 -7.17021,-2.661766 -2.59809,-2.674502 -2.59809,-7.208419 0,-4.572125 2.59809,-7.221156 2.59809,-2.661766 7.17021,-2.661766 4.55939,0 7.17021,2.661766 2.61083,2.649031 2.61083,7.221156 z m -6.48249,4.801367 q 0.71321,-0.866029 1.05707,-2.037715 0.34386,-1.184423 0.34386,-2.776388 0,-1.706587 -0.3948,-2.903745 -0.39481,-1.197158 -1.0316,-1.93583 -0.64952,-0.764144 -1.50281,-1.108008 -0.84056,-0.343865 -1.75753,-0.343865 -0.92971,0 -1.75753,0.331129 -0.81509,0.331129 -1.50282,1.095272 -0.63678,0.713201 -1.04433,1.974038 -0.3948,1.2481 -0.3948,2.903745 0,1.693851 0.38207,2.891009 0.39481,1.184422 1.03159,1.93583 0.63679,0.751407 1.49008,1.108008 0.85329,0.3566 1.79574,0.3566 0.94244,0 1.79573,-0.3566 0.8533,-0.369336 1.49008,-1.13348 z"
         style="font-style:normal;font-variant:normal;font-weight:bold;font-stretch:normal;font-family:'Open Sans';-inkscape-font-specification:'Open Sans Bold';fill:#666666;fill-opacity:1"
         id="path5460" /><path
         d="m 237.72748,66.700608 q 0,2.801859 -2.38158,4.559389 -2.36885,1.744794 -6.44428,1.744794 -2.35611,0 -4.11364,-0.407543 -1.74479,-0.420279 -3.27308,-1.057065 l 0,-4.546653 0.5349,0 q 1.51555,1.209894 3.38771,1.859415 1.88488,0.649522 3.61694,0.649522 0.44575,0 1.17169,-0.07641 0.72593,-0.07641 1.18442,-0.254714 0.56037,-0.229243 0.91697,-0.573108 0.36934,-0.343865 0.36934,-1.018858 0,-0.62405 -0.5349,-1.069801 -0.52217,-0.458486 -1.54102,-0.700464 -1.06981,-0.254715 -2.26696,-0.471222 -1.18443,-0.229243 -2.22876,-0.573108 -2.39431,-0.776879 -3.45138,-2.101394 -1.04433,-1.337251 -1.04433,-3.311288 0,-2.649031 2.36885,-4.317411 2.38158,-1.681115 6.11315,-1.681115 1.87215,0 3.69336,0.369336 1.83394,0.3566 3.17119,0.904236 l 0,4.368353 -0.52216,0 q -1.14622,-0.916972 -2.8146,-1.528286 -1.65564,-0.624051 -3.3877,-0.624051 -0.61132,0 -1.22263,0.08915 -0.59858,0.07642 -1.15895,0.305658 -0.49669,0.191035 -0.85329,0.585843 -0.3566,0.382072 -0.3566,0.878765 0,0.751408 0.5731,1.158951 0.57311,0.394807 2.16508,0.725936 1.04433,0.216507 1.9995,0.420279 0.96792,0.203771 2.07593,0.560372 2.17781,0.7132 3.2094,1.948565 1.04433,1.22263 1.04433,3.183931 z"
         style="font-style:normal;font-variant:normal;font-weight:bold;font-stretch:normal;font-family:'Open Sans';-inkscape-font-specification:'Open Sans Bold';fill:#666666;fill-opacity:1"
         id="path5462" /></g><path
       style="fill:#666666;fill-opacity:1"
       d="M 463.41992 158.63867 A 6.7121362 6.7121371 0 0 0 456.70703 165.35156 A 6.7121362 6.7121371 0 0 0 463.41992 172.0625 A 6.7121362 6.7121371 0 0 0 470.13086 165.35156 A 6.7121362 6.7121371 0 0 0 463.41992 158.63867 z M 486.10156 158.63867 A 6.7121362 6.7121371 0 0 0 479.39062 165.35156 A 6.7121362 6.7121371 0 0 0 486.10156 172.0625 A 6.7121362 6.7121371 0 0 0 492.81445 165.35156 A 6.7121362 6.7121371 0 0 0 486.10156 158.63867 z M 508.78516 158.63867 A 6.7121362 6.7121371 0 0 0 502.07227 165.35156 A 6.7121362 6.7121371 0 0 0 508.78516 172.0625 A 6.7121362 6.7121371 0 0 0 515.49609 165.35156 A 6.7121362 6.7121371 0 0 0 508.78516 158.63867 z M 463.41992 181.32031 A 6.7121362 6.7121371 0 0 0 456.70703 188.0332 A 6.7121362 6.7121371 0 0 0 463.41992 194.74609 A 6.7121362 6.7121371 0 0 0 470.13086 188.0332 A 6.7121362 6.7121371 0 0 0 463.41992 181.32031 z M 486.10156 181.32031 A 6.7121362 6.7121371 0 0 0 479.39062 188.0332 A 6.7121362 6.7121371 0 0 0 486.10156 194.74609 A 6.7121362 6.7121371 0 0 0 492.81445 188.0332 A 6.7121362 6.7121371 0 0 0 486.10156 181.32031 z M 508.78516 181.32031 A 6.7121362 6.7121371 0 0 0 502.07227 188.0332 A 6.7121362 6.7121371 0 0 0 508.78516 194.74609 A 6.7121362 6.7121371 0 0 0 515.49609 188.0332 A 6.7121362 6.7121371 0 0 0 508.78516 181.32031 z M 463.41992 204.00391 A 6.7121362 6.7121371 0 0 0 456.70703 210.71484 A 6.7121362 6.7121371 0 0 0 463.41992 217.42773 A 6.7121362 6.7121371 0 0 0 470.13086 210.71484 A 6.7121362 6.7121371 0 0 0 463.41992 204.00391 z M 486.10156 204.00391 A 6.7121362 6.7121371 0 0 0 479.39062 210.71484 A 6.7121362 6.7121371 0 0 0 486.10156 217.42773 A 6.7121362 6.7121371 0 0 0 492.81445 210.71484 A 6.7121362 6.7121371 0 0 0 486.10156 204.00391 z M 508.78516 204.00391 A 6.7121362 6.7121371 0 0 0 502.07227 210.71484 A 6.7121362 6.7121371 0 0 0 508.78516 217.42773 A 6.7121362 6.7121371 0 0 0 515.49609 210.71484 A 6.7121362 6.7121371 0 0 0 508.78516 204.00391 z "
       transform="matrix(0.33600002,0,0,0.33600004,-1.0253907e-5,-2.5634769e-6)"
       id="circle4854" /></g><g
     id="g5"><g
       id="g9"><path
         class="st1"
         d="M79.7,15.9L79.7,15.9L79.7,15.9L79.7,15.9z M71.4,38.4c-0.5-1.2-0.8-2.5-0.8-3.8c0-0.9,0-18.8,0-18.8h9.1    l-1.2-2.3h-7.9V5.2h-2.6v8.2h-8l-1.2,2.4h9.2c0,0,0,17.1,0,18c-0.1,1.9,0.2,3.9,0.9,5.5c0,0.1,0.8,1.6,1.9,3.1    c0.6,0.6,1.8,1.7,3.5,2.9l1.2-2.4c-1.3-0.9-2.2-1.6-2.7-2.2C71.9,39.5,71.4,38.4,71.4,38.4z M42.3,4.9c-1.6,1-2.8,2.3-3.8,3.7    C38.1,9.3,31.4,19.2,27.7,25C24.5,29.7,16.5,41.7,16,42.5c-1.3,2.2-3.1,4.1-5.2,5.5c0,0.1-2.3,1.4-5,2.3c-0.2,0-0.4,0.1-0.5,0.1    H45c-0.1,0-0.2-0.1-0.4-0.1c-2.7-0.9-4.9-2.2-5-2.3c-2.1-1.4-3.9-3.3-5.2-5.5c-0.4-0.6-5.6-8.4-9.3-13.9c0.9-1.3,1.6-2.5,2.3-3.3    c0,0.1,0.1,0.1,0.1,0.2c3.8,5.7,10.5,15.7,10.9,16.4c1,1.4,2.2,2.7,3.8,3.7c0,0,1.6,1.1,3.8,1.7c0.9,0.3,2.4,0.5,4.3,0.8v2.3h0.1    V2.4c-1.9,0.2-3.5,0.4-4.3,0.8C44,3.8,42.3,4.9,42.3,4.9z M11.9,41.9c0.4-0.8,7.1-10.7,10.9-16.4c3.1-4.9,11.1-16.7,11.7-17.6    c1.3-2.2,3.1-4.1,5.2-5.5c0-0.1,2.3-1.4,5-2.3C44.8,0.1,45,0,45.2,0H5.4c0.1,0,0.3,0.1,0.4,0.1c2.7,0.9,4.9,2.2,5,2.3    c2.1,1.4,3.9,3.3,5.2,5.5c0.4,0.6,5.6,8.4,9.3,13.9c-0.9,1.3-1.6,2.5-2.3,3.3c0-0.1-0.1-0.1-0.1-0.2C19,19.3,12.3,9.3,11.9,8.5    c-1-1.4-2.2-2.7-3.8-3.7c0,0-1.6-1.1-3.8-1.7C3.5,2.8,1.9,2.6,0,2.4v45.8c1.9-0.2,3.5-0.4,4.3-0.8c2.2-0.6,3.8-1.7,3.8-1.7    C9.7,44.5,11,43.3,11.9,41.9z M201.3,12.7c-9.6,0-13.4,5.4-13.4,16.7c0,11.5,3.8,16.7,13.4,16.7c9.6,0,13.4-5.4,13.4-16.7    C214.7,18,210.9,12.7,201.3,12.7z M201.3,44.1c-9.1,0-10.9-5.7-10.9-14.5s1.8-14.5,10.9-14.5c9.1,0,10.9,5.7,10.9,14.5    C212.2,38.2,210.3,44,201.3,44.1z M237.7,12.7c-4.6,0.2-7.8,1.8-9.8,5v-4.5c-0.9,0.1-1.7,0.3-2.5,0.5v32.1    c0.8,0.2,1.6,0.4,2.5,0.5v-17c0-8.8,1.8-14.5,10.9-14.5l0,0L237.7,12.7z M101,12.7c-5.8,0-12.7,2.2-12.7,16.9    c0,13.6,5.9,16.7,13.3,16.7c4,0,7.5-0.8,10.4-2.5l-1-2.2c-3,1.7-5.8,2.4-9.4,2.4c-5.8,0-10.4-2.1-10.8-12.4v-1.3h22.5l0,0v-0.9    C113.3,16.9,108.7,12.7,101,12.7z M90.6,28c0.2-11,5.1-13,10.3-13c5.7,0,9.7,3,9.7,13H90.6z M136.3,12.6h-1.4    c-9.5,0-10.8,8-10.8,15v16.9c0.8,0.6,1.6,1.2,2.6,1.6V28.4c0-7.9,1.2-13.5,8.6-13.5h0.6c7.5,0,8.6,5.5,8.6,13.5v17.8    c0.9-0.4,1.8-1,2.6-1.6V27.8C147.1,20.6,145.7,12.6,136.3,12.6z M168.9,28c-5-1.4-8-2.7-8-6.8c0-4.8,3.3-6.2,7.6-6.2    c2.8,0,5.4,0.4,7.8,1.6l1-2.2c-2.8-1.4-5.8-1.7-8.8-1.7c-5.2,0-9.9,2.4-9.9,8.3s4.2,7.8,9.4,9.2c4.9,1.3,8.8,2.4,8.8,6.7    c0,5.3-3.8,7-8,7c-3.8,0-7.5-1-10.2-2.8l-1.1,2.1c3.2,2.2,7.1,2.9,11.3,2.9c5.5,0,10.4-2.5,10.4-9.2    C179.1,30.9,174.4,29.6,168.9,28z"
         id="path11" /><path
         class="st2"
         d="M27.4,25.2c-0.6,0.9-1.4,2.1-2.3,3.3c3.7,5.5,8.8,13.3,9.3,13.9c1.3,2.2,3.1,4.1,5.2,5.5c0,0.1,2.3,1.4,5,2.3    c0.2,0,0.4,0.1,0.5,0.1h5.2V48c-1.9-0.2-3.5-0.4-4.3-0.8c-2.2-0.6-3.8-1.7-3.8-1.7c-1.6-1-2.8-2.3-3.8-3.7    c-0.4-0.8-7.1-10.7-10.9-16.4l0,0C27.5,25.4,27.5,25.3,27.4,25.2 M5.2,0H0v2.4c1.9,0.2,3.5,0.4,4.3,0.8c2.2,0.6,3.8,1.7,3.8,1.7    c1.6,1,2.8,2.3,3.8,3.7C12.3,9.3,19,19.2,22.8,25l0,0c0,0.1,0.1,0.1,0.1,0.2c0.6-0.9,1.4-2.1,2.3-3.3c-3.7-5.5-8.8-13.3-9.3-13.9    c-1.3-2.2-3.1-4.1-5.2-5.5c0-0.1-2.3-1.4-5-2.3C5.6,0.1,5.4,0,5.2,0"
         id="path13" /></g></g></svg>