<?xml version="1.0" encoding="UTF-8" standalone="no"?>
<!-- Generator: Adobe Illustrator 19.2.1, SVG Export Plug-In . SVG Version: 6.00 Build 0)  -->

<svg
   xmlns:dc="http://purl.org/dc/elements/1.1/"
   xmlns:cc="http://creativecommons.org/ns#"
   xmlns:rdf="http://www.w3.org/1999/02/22-rdf-syntax-ns#"
   xmlns:svg="http://www.w3.org/2000/svg"
   xmlns="http://www.w3.org/2000/svg"
   xmlns:xlink="http://www.w3.org/1999/xlink"
   xmlns:sodipodi="http://sodipodi.sourceforge.net/DTD/sodipodi-0.dtd"
   xmlns:inkscape="http://www.inkscape.org/namespaces/inkscape"
   version="1.1"
   id="Calque_1"
   x="0px"
   y="0px"
   viewBox="0 0 1096.3669 148.49538"
   xml:space="preserve"
   inkscape:version="0.91 r13725"
   sodipodi:docname="xtensor-python.svg"
   width="1096.3669"
   height="148.49538"><metadata
     id="metadata13"><rdf:RDF><cc:Work
         rdf:about=""><dc:format>image/svg+xml</dc:format><dc:type
           rdf:resource="http://purl.org/dc/dcmitype/StillImage" /><dc:title /></cc:Work></rdf:RDF></metadata><defs
     id="defs11"><radialGradient
       cx="61.518883"
       cy="132.28575"
       r="29.036913"
       fx="61.518883"
       fy="132.28575"
       id="radialGradient1480"
       xlink:href="#linearGradient2795"
       gradientUnits="userSpaceOnUse"
       gradientTransform="matrix(2.2482417e-8,-0.30842844,1.355673,4.8736626e-7,412.41077,172.82437)" /><linearGradient
       id="linearGradient2795"><stop
         style="stop-color:#b8b8b8;stop-opacity:0.49803922"
         offset="0"
         id="stop2797" /><stop
         style="stop-color:#7f7f7f;stop-opacity:0"
         offset="1"
         id="stop2799" /></linearGradient><linearGradient
       x1="150.96111"
       y1="192.35176"
       x2="112.03144"
       y2="137.27299"
       id="linearGradient1475"
       xlink:href="#linearGradient4671"
       gradientUnits="userSpaceOnUse"
       gradientTransform="matrix(0.72309165,0,0,0.73007266,510.73037,-11.011979)" /><linearGradient
       id="linearGradient4671"><stop
         style="stop-color:#ffd43b;stop-opacity:1"
         offset="0"
         id="stop4673" /><stop
         style="stop-color:#ffe873;stop-opacity:1"
         offset="1"
         id="stop4675" /></linearGradient><linearGradient
       x1="26.648937"
       y1="20.603781"
       x2="135.66525"
       y2="114.39767"
       id="linearGradient1478"
       xlink:href="#linearGradient4689"
       gradientUnits="userSpaceOnUse"
       gradientTransform="matrix(0.72309165,0,0,0.73007266,510.73037,-11.011979)" /><linearGradient
       id="linearGradient4689"><stop
         style="stop-color:#5a9fd4;stop-opacity:1"
         offset="0"
         id="stop4691" /><stop
         style="stop-color:#306998;stop-opacity:1"
         offset="1"
         id="stop4693" /></linearGradient></defs><sodipodi:namedview
     pagecolor="#ffffff"
     bordercolor="#666666"
     borderopacity="1"
     objecttolerance="10"
     gridtolerance="10"
     guidetolerance="10"
     inkscape:pageopacity="0"
     inkscape:pageshadow="2"
     inkscape:window-width="1640"
     inkscape:window-height="725"
     id="namedview9"
     showgrid="false"
     inkscape:zoom="2.6700352"
     inkscape:cx="154.02574"
     inkscape:cy="61.142247"
     inkscape:window-x="83"
     inkscape:window-y="34"
     inkscape:window-maximized="0"
     inkscape:current-layer="Calque_1"
     fit-margin-top="0"
     fit-margin-left="0"
     fit-margin-right="0"
     fit-margin-bottom="0" /><style
     type="text/css"
     id="style3">
	.st0{fill:#7DDB85;}
	.st1{fill:#D8F8D7;}
</style><path
     style="fill:#86afd2;fill-opacity:1"
     d="M 11.330078 13.826172 C 11.627703 13.893087 11.931557 13.960428 12.199219 14.027344 C 17.799219 15.827344 22.4 18.526563 22.5 18.726562 C 26.9 21.726562 30.600391 25.626563 33.400391 30.226562 C 34.400391 31.626563 45.100781 47.827734 52.800781 59.427734 C 51.000781 62.127734 49.399609 64.627344 48.099609 66.527344 C 47.999609 66.327344 47.900781 66.227344 47.800781 66.027344 C 39.900781 54.127344 25.900391 33.126953 24.900391 31.626953 C 22.900391 28.726953 20.3 26.027734 17 23.927734 C 17 23.927734 13.5 21.626562 9 20.226562 C 7.2 19.626562 4.1 19.126953 0 18.626953 L 0 114.52734 C 4.1 114.02734 7.2 113.52772 9 112.92773 C 13.5 111.52772 17 109.22656 17 109.22656 C 20.4 107.02656 23.000391 104.32772 24.900391 101.42773 C 25.900391 99.927739 39.900781 78.927344 47.800781 67.027344 C 54.400781 57.027344 70.999219 32.026172 72.199219 30.326172 C 74.999219 25.726172 78.699609 21.826172 83.099609 18.826172 C 83.199609 18.626172 87.800391 15.926953 93.400391 14.126953 L 94.599609 13.826172 L 11.330078 13.826172 z M 105.69922 18.626953 C 101.59922 19.126953 98.499219 19.626562 96.699219 20.226562 C 91.999219 21.626562 88.599609 23.927734 88.599609 23.927734 C 85.299609 26.027734 82.699219 28.726953 80.699219 31.626953 C 79.699219 33.126953 65.700781 54.127344 57.800781 66.027344 C 51.200781 76.027344 34.600391 101.02656 33.400391 102.72656 C 30.600391 107.32656 26.9 111.22656 22.5 114.22656 C 22.4 114.42657 17.799219 117.12773 12.199219 118.92773 L 11 119.22656 L 94.199219 119.22656 L 93.400391 119.02734 C 87.800391 117.22734 83.199609 114.52617 83.099609 114.32617 C 78.699609 111.32617 74.999219 107.42617 72.199219 102.82617 C 71.199219 101.42618 60.500781 85.226953 52.800781 73.626953 C 54.600781 70.926953 56.2 68.427344 57.5 66.527344 C 57.6 66.727344 57.699219 66.827344 57.699219 67.027344 C 65.599219 78.927344 79.599609 99.927739 80.599609 101.42773 C 82.599609 104.32773 85.2 107.02695 88.5 109.12695 C 88.5 109.12695 92 111.42617 96.5 112.82617 C 98.3 113.42617 101.4 113.92773 105.5 114.42773 L 105.5 119.22656 L 105.69922 119.22656 L 105.69922 18.626953 z M 142.5 24.626953 L 142.5 41.826172 L 125.80078 41.826172 L 123.30078 46.726562 L 142.59961 46.726562 L 142.59961 84.427734 C 142.39961 88.527734 143.1 92.527344 144.5 96.027344 C 144.5 96.227344 146.09961 99.527349 148.59961 102.52734 C 149.89961 103.92734 152.40039 106.22734 155.90039 108.52734 L 158.30078 103.62695 C 155.60078 101.72695 153.69922 100.12734 152.69922 99.027344 C 150.59922 96.627344 149.5 93.927734 149.5 93.927734 C 148.4 91.427734 147.90039 88.627734 147.90039 85.927734 L 147.90039 46.626953 L 166.80078 46.626953 L 164.30078 41.826172 L 147.80078 41.826172 L 147.80078 24.626953 L 142.5 24.626953 z M 282.40039 40.226562 C 262.50039 40.226562 259.80078 56.926953 259.80078 71.626953 L 259.80078 106.92773 C 261.40078 108.32773 263.29922 109.42773 265.19922 110.42773 L 265.19922 73.326172 C 265.19922 56.726172 267.60078 45.126953 283.30078 45.126953 L 284.69922 45.126953 C 300.29922 45.126953 302.80078 56.726172 302.80078 73.326172 L 302.80078 110.62695 C 304.70078 109.62695 306.59922 108.52695 308.19922 107.12695 L 308.19922 71.826172 C 307.99922 56.926172 305.10039 40.226562 285.40039 40.226562 L 282.40039 40.226562 z M 211.59961 40.326172 C 199.29961 40.326172 184.80078 44.826953 184.80078 75.626953 C 184.80078 104.22695 197.29922 110.62695 212.69922 110.62695 C 220.99922 110.62695 228.2 109.12617 234.5 105.32617 L 232.5 100.82617 C 226.2 104.42617 220.20078 105.82617 212.80078 105.82617 C 200.60078 105.82617 190.99922 101.42617 190.19922 79.826172 L 190.09961 77.126953 L 237.09961 77.226562 L 237.19922 77.326172 L 237.19922 75.527344 C 237.19922 49.027344 227.49961 40.326172 211.59961 40.326172 z M 352.59961 40.326172 C 341.79961 40.326172 331.80078 45.226172 331.80078 57.826172 C 331.80078 70.426172 340.70039 74.226953 351.40039 77.126953 C 361.50039 79.926953 369.80078 82.026562 369.80078 91.226562 C 369.80078 102.22656 361.8 105.82617 353 105.82617 C 345.1 105.82617 337.49922 103.72734 331.69922 100.02734 L 329.5 104.32617 C 336.2 108.82617 344.40078 110.52734 353.30078 110.52734 C 364.90078 110.52734 375 105.42657 375 91.226562 C 375 78.526563 365.19961 75.626172 353.59961 72.326172 C 343.09961 69.426172 336.90039 66.727344 336.90039 58.027344 C 336.90039 48.027344 343.79922 45.126953 352.69922 45.126953 C 358.49922 45.126953 364.1 46.027344 369 48.527344 L 371 44.027344 C 365.1 41.027344 358.79961 40.326172 352.59961 40.326172 z M 497.59961 40.326172 C 487.79961 40.726172 481.19961 44.126953 477.09961 50.626953 L 477.09961 41.126953 C 475.19961 41.326953 473.50078 41.726563 471.80078 42.226562 L 471.80078 109.42773 C 473.40078 109.92773 475.19961 110.32734 477.09961 110.52734 L 477.09961 75.726562 L 477.09961 75.326172 C 477.09961 57.026172 480.90039 44.927734 499.90039 44.927734 L 500 44.927734 L 497.59961 40.326172 z M 421.5 40.427734 C 401.4 40.427734 393.5 51.627344 393.5 75.527344 C 393.5 99.427344 401.4 110.62695 421.5 110.62695 C 441.6 110.62695 449.5 99.427344 449.5 75.527344 C 449.5 51.527344 441.6 40.327734 421.5 40.427734 z M 211.5 45.126953 C 223.6 45.126953 231.80078 51.526172 231.80078 72.326172 L 189.90039 72.326172 C 190.40039 49.326172 200.5 45.126953 211.5 45.126953 z M 421.40039 45.126953 C 440.40039 45.126953 444.19922 57.227344 444.19922 75.527344 C 444.19922 93.727344 440.40039 105.82773 421.40039 105.92773 C 402.40039 105.92773 398.59961 93.827344 398.59961 75.527344 C 398.59961 57.227344 402.50039 45.126953 421.40039 45.126953 z M 166.80078 46.726562 L 166.90039 46.927734 L 166.90039 46.726562 L 166.80078 46.726562 z "
     id="path5" /><path
     inkscape:connector-curvature="0"
     id="path46"
     style="fill:#ecd164;fill-opacity:1"
     d="m 760.11542,75.411651 c 0,-18.718226 -5.33731,-28.327921 -16.01197,-28.854139 -4.24731,-0.200458 -8.39439,0.4761 -12.42871,2.042222 -3.21994,1.152659 -5.38743,2.292798 -6.52757,3.445457 l 0,44.678176 c 6.82826,4.284903 12.89228,6.276993 18.17948,5.963783 11.18834,-0.73921 16.78877,-9.82269 16.78877,-27.275499 z m 13.16792,0.776795 c 0,9.509459 -2.23015,17.402692 -6.71551,23.679685 -4.99904,7.103909 -11.92755,10.762349 -20.78551,10.962829 -6.67791,0.21299 -13.5563,-1.87935 -20.63515,-6.26448 l 0,40.60627 -11.45144,-4.08443 0,-90.13315 c 1.87933,-2.305318 4.29741,-4.284889 7.22919,-5.963766 6.81574,-3.971676 15.09736,-6.013899 24.84487,-6.114121 l 0.16288,0.162874 c 8.90807,-0.112769 15.77393,3.545692 20.59758,10.962813 4.49787,6.803211 6.75309,15.523356 6.75309,26.185476 z" /><path
     inkscape:connector-curvature="0"
     id="path48"
     style="fill:#ecd164;fill-opacity:1"
     d="m 843.26995,102.83749 c 0,12.75444 -1.27794,21.58735 -3.83384,26.49869 -2.56844,4.91135 -7.45471,8.83291 -14.67139,11.75214 -5.85101,2.30532 -12.17812,3.55821 -18.96879,3.77121 l -1.89188,-7.21667 c 6.90344,-0.93966 11.76468,-1.87933 14.58368,-2.81901 5.55032,-1.87934 9.35911,-4.76098 11.45145,-8.61991 1.67887,-3.14476 2.50578,-9.14611 2.50578,-18.02913 l 0,-2.98187 c -7.83057,3.55821 -16.03704,5.32479 -24.61935,5.32479 -5.63802,0 -10.61201,-1.76658 -14.8969,-5.32479 -4.81112,-3.87146 -7.21668,-8.782799 -7.21668,-14.734032 l 0,-47.660067 11.45146,-3.921558 0,47.973281 c 0,5.124334 1.65382,9.070957 4.96145,11.839856 3.30764,2.76889 7.59254,4.09695 12.84217,3.99673 5.24962,-0.11277 10.87511,-2.14246 16.85141,-6.114123 l 0,-55.966749 11.45143,0 0,62.231212 z" /><path
     inkscape:connector-curvature="0"
     id="path50"
     style="fill:#ecd164;fill-opacity:1"
     d="m 887.97319,110.2045 c -1.36564,0.11276 -2.61853,0.16288 -3.7712,0.16288 -6.47745,0 -11.52662,-1.54106 -15.13495,-4.63571 -3.59582,-3.09464 -5.39997,-7.36701 -5.39997,-12.817092 l 0,-45.104171 -7.84311,0 0,-7.204129 7.84311,0 0,-19.131688 11.43891,-4.071911 0,23.203599 12.86721,0 0,7.204129 -12.86721,0 0,44.790945 c 0,4.297422 1.15266,7.341949 3.45799,9.121058 1.97957,1.46589 5.12434,2.30533 9.40922,2.51833 l 0,5.96376 z" /><path
     inkscape:connector-curvature="0"
     id="path52"
     style="fill:#ecd164;fill-opacity:1"
     d="m 957.3083,109.26483 -11.4514,0 0,-44.202071 c 0,-4.497894 -1.0525,-8.369334 -3.1448,-11.6018 -2.4181,-3.658448 -5.7758,-5.487679 -10.0858,-5.487679 -5.24961,0 -11.81478,2.768899 -19.69545,8.306696 l 0,52.984854 -11.45147,0 0,-105.656499 L 912.93085,0 l 0,48.123633 c 7.3169,-5.324792 15.31033,-7.993455 23.99285,-7.993455 6.064,0 10.9754,2.042209 14.7341,6.11412 3.7712,4.071898 5.6505,9.146115 5.6505,15.210117 l 0,47.810415 0,0 z" /><path
     inkscape:connector-curvature="0"
     id="path54"
     style="fill:#ecd164;fill-opacity:1"
     d="m 1018.1739,73.607485 c 0,-7.191609 -1.3657,-13.130323 -4.0844,-17.828675 -3.2325,-5.725723 -8.2566,-8.745198 -15.0473,-9.058424 -12.554,0.726689 -18.8184,9.722463 -18.8184,26.96227 0,7.905765 1.3029,14.508506 3.934,19.808246 3.3578,6.753098 8.3944,10.085798 15.1099,9.973038 12.6041,-0.10023 18.9062,-10.048208 18.9062,-29.856455 z m 12.5414,0.07517 c 0,10.236149 -2.6185,18.755822 -7.8431,25.559034 -5.7507,7.617591 -13.6941,11.438911 -23.83,11.438911 -10.0482,0 -17.8788,-3.82132 -23.5293,-11.438911 -5.1244,-6.803212 -7.6803,-15.322885 -7.6803,-25.559034 0,-9.622215 2.7689,-17.715908 8.3067,-24.306128 5.851,-6.99115 13.5438,-10.499245 23.0532,-10.499245 9.5095,0 17.2524,3.508095 23.2162,10.499245 5.5377,6.59022 8.3066,14.683913 8.3066,24.306128 z" /><path
     inkscape:connector-curvature="0"
     id="path56"
     style="fill:#ecd164;fill-opacity:1"
     d="m 1096.3669,109.26483 -11.4514,0 0,-46.707861 c 0,-5.124334 -1.5411,-9.121062 -4.6232,-12.002728 -3.0821,-2.869122 -7.1916,-4.259838 -12.3159,-4.14707 -5.4376,0.100237 -10.612,1.879336 -15.5233,5.324794 l 0,57.532865 -11.4515,0 0,-58.948634 c 6.5902,-4.798575 12.6542,-7.930818 18.192,-9.396704 5.2246,-1.36565 9.8353,-2.042209 13.8069,-2.042209 2.7188,0 5.2747,0.26311 7.6802,0.789314 4.4979,1.039904 8.1564,2.969358 10.9754,5.800906 3.1447,3.132231 4.7108,6.890916 4.7108,11.288561 l 0,52.508776 z" /><path
     inkscape:connector-curvature="0"
     id="path1948"
     style="fill:#86afd2;fill-opacity:1"
     d="m 600.59274,4.031459 c -5.89183,0.02737 -11.5184,0.5298657 -16.46922,1.4059092 -14.58444,2.5765938 -17.23241,7.9696278 -17.23243,17.9152978 l 0,13.135208 34.46486,0 0,4.378402 -34.46486,0 -12.93436,0 c -10.01643,0 -18.78712,6.020463 -21.53049,17.473441 -3.16443,13.127774 -3.30478,21.319716 0,35.02722 2.44989,10.203333 8.30055,17.473443 18.31699,17.473443 l 11.84981,0 0,-15.746183 c 0,-11.375687 9.84251,-21.409984 21.53048,-21.409986 l 34.42468,0 c 9.58263,0 17.23245,-7.890011 17.23243,-17.51361 l 0,-32.817935 c 0,-9.34017 -7.87948,-16.3564617 -17.23243,-17.9152978 C 612.62767,4.4518177 606.48458,4.004081 600.59274,4.031459 Z M 581.9544,14.595861 c 3.55999,0 6.46718,2.954686 6.46718,6.587688 0,3.620126 -2.90719,6.54752 -6.46718,6.54752 -3.57273,-1e-6 -6.46718,-2.927395 -6.46718,-6.54752 0,-3.633001 2.89445,-6.587688 6.46718,-6.587688 z" /><path
     inkscape:connector-curvature="0"
     id="path1950"
     style="fill:#ecd164;fill-opacity:1"
     d="m 640.0787,40.866276 0,15.304325 c 0,11.865236 -10.05942,21.851842 -21.5305,21.851844 l -34.42468,0 c -9.4295,0 -17.23241,8.070377 -17.23243,17.513609 l 0,32.817926 c 0,9.34018 8.12193,14.83395 17.23243,17.51361 10.90965,3.20786 21.37142,3.7876 34.42468,0 8.67668,-2.51218 17.23245,-7.56795 17.23243,-17.51361 l 0,-13.1352 -34.42468,0 0,-4.3784 34.42468,0 17.23245,0 c 10.01644,0 13.74899,-6.98669 17.23242,-17.473443 3.59825,-10.795949 3.44515,-21.178004 0,-35.02722 -2.47542,-9.971434 -7.20324,-17.473441 -17.23242,-17.473441 l -12.93438,0 z m -19.36138,83.109304 c 3.57275,2e-5 6.46719,2.92741 6.46719,6.54752 0,3.633 -2.89444,6.58769 -6.46719,6.58769 -3.55997,0 -6.46718,-2.95469 -6.46718,-6.58769 2e-5,-3.62011 2.90721,-6.54752 6.46718,-6.54752 z" /><path
     class="st1"
     d="m 57.5,66.527377 c -1.3,1.9 -2.9,4.4 -4.7,7.1 7.7,11.6 18.4,27.800003 19.4,29.199993 2.8,4.6 6.5,8.5 10.9,11.50001 0.1,0.2 4.7,2.9 10.3,4.7 0.4,0.1 0.8,0.2 1.2,0.3 l 10.9,0 0,-4.9 c -4.1,-0.5 -7.2,-1.00001 -9,-1.60001 -4.5,-1.4 -8,-3.7 -8,-3.7 -3.3,-2.1 -5.9,-4.8 -7.9,-7.7 -1,-1.499993 -15,-22.499993 -22.9,-34.399993 l 0,0 c 0,-0.2 -0.1,-0.3 -0.2,-0.5 m -46.6,-52.8 -10.9,0 0,4.9 c 4.1,0.5 7.2,1 9,1.6 4.5,1.4 8,3.7 8,3.7 3.3,2.1 5.9,4.8 7.9,7.7 1,1.5 15,22.5 22.9,34.4 l 0,0 c 0.1,0.2 0.2,0.3 0.3,0.5 1.3,-1.9 2.9,-4.4 4.7,-7.1 -7.7,-11.600001 -18.4,-27.8 -19.4,-29.2 -2.8,-4.6 -6.5,-8.5 -10.9,-11.5 -0.1,-0.2 -4.7,-2.9 -10.3,-4.7 -0.4,-0.1 -0.8,-0.2 -1.3,-0.3"
     id="path7-3"
     inkscape:connector-curvature="0"
     style="fill:#86afd2;fill-opacity:0.27843139" /></svg>