<?xml version="1.0" encoding="UTF-8" standalone="no"?>
<svg
   xmlns:dc="http://purl.org/dc/elements/1.1/"
   xmlns:cc="http://creativecommons.org/ns#"
   xmlns:rdf="http://www.w3.org/1999/02/22-rdf-syntax-ns#"
   xmlns:svg="http://www.w3.org/2000/svg"
   xmlns="http://www.w3.org/2000/svg"
   xmlns:sodipodi="http://sodipodi.sourceforge.net/DTD/sodipodi-0.dtd"
   xmlns:inkscape="http://www.inkscape.org/namespaces/inkscape"
   xml:space="preserve"
   version="1.1"
   viewBox="0 0 1092.7872 248.88164"
   id="svg2"
   inkscape:version="0.91 r13725"
   sodipodi:docname="xtensor-julia.svg"
   width="1092.7872"
   height="248.88164"><metadata
     id="metadata32"><rdf:RDF><cc:Work
         rdf:about=""><dc:format>image/svg+xml</dc:format><dc:type
           rdf:resource="http://purl.org/dc/dcmitype/StillImage" /><dc:title></dc:title></cc:Work></rdf:RDF></metadata><defs
     id="defs30" /><sodipodi:namedview
     pagecolor="#ffffff"
     bordercolor="#666666"
     borderopacity="1"
     objecttolerance="10"
     gridtolerance="10"
     guidetolerance="10"
     inkscape:pageopacity="0"
     inkscape:pageshadow="2"
     inkscape:window-width="1704"
     inkscape:window-height="928"
     id="namedview28"
     showgrid="false"
     inkscape:zoom="0.77731696"
     inkscape:cx="533.52217"
     inkscape:cy="131.7087"
     inkscape:window-x="83"
     inkscape:window-y="34"
     inkscape:window-maximized="0"
     inkscape:current-layer="g4"
     fit-margin-top="0"
     fit-margin-left="0"
     fit-margin-right="0"
     fit-margin-bottom="0" /><g
     transform="matrix(1.25,0,0,-1.25,714.41803,253.88145)"
     id="g4"><g
       id="g6"
       style="fill:#a1a1a1;fill-opacity:1;fill-rule:nonzero;stroke:none;stroke-opacity:1"><path
         d="m 62.1133,39.5703 0,87.5664 -25.9414,-7.13672 0,-93.1172 c -6e-6,-4.90883 -0.377609,-8.21286 -1.13281,-9.91211 -0.755211,-1.6992 -1.85026,-2.5488 -3.28516,-2.54883 -0.679692,2e-5 -1.4349,0.264343 -2.26562,0.792968 -0.830727,0.528675 -1.85026,1.58596 -3.05859,3.17188 -1.05729,1.43492 -2.39778,2.8887 -4.02148,4.36133 -1.62369,1.47267 -3.79491,2.209 -6.51367,2.20898 -3.62499,1.4e-5 -6.51366,-0.906235 -8.66602,-2.71875 -2.15229,-1.8126 -3.22846,-4.0405 -3.22848,-6.6837 2e-5,-3.1719 1.9258,-5.8906 5.77734,-8.15626 3.85158,-2.26559 9.40235,-3.3984 16.6523,-3.39844 5.36197,3e-5 10.2331,0.434275 14.6133,1.30273 4.38019,0.868583 8.13735,2.58668 11.2715,5.1543 3.13408,2.56774 5.55075,6.17386 7.25,10.8184 1.69918,4.64454 2.54879,10.7428 2.54883,18.2949 z"
         id="path8"
         style="fill:#a1a1a1;fill-opacity:1;stroke:none;stroke-opacity:1"
         inkscape:connector-curvature="0" /><path
         d="m 98.1434,124.645 -25.8281,0 0,-59.9258 c -6e-6,-3.70053 0.774082,-7.17448 2.32226,-10.4219 1.54816,-3.2474 3.68162,-6.07943 6.40039,-8.49609 2.71873,-2.41667 5.8906,-4.32357 9.51562,-5.7207 3.62497,-1.39713 7.55205,-2.0957 11.7813,-2.0957 3.62495,10e-7 7.36323,0.86849 11.2148,2.60547 3.85151,1.73698 7.4765,4.04036 10.875,6.91016 l 0,-7.92969 25.8281,0 0,85.0742 -25.8281,0 0,-61.3984 c -1.9636,-3.02084 -4.26698,-5.5319 -6.91016,-7.5332 -2.64318,-2.00131 -4.94656,-3.00196 -6.91015,-3.00195 -1.73694,-1.3e-5 -3.36063,0.32095 -4.8711,0.962891 -1.51045,0.641917 -2.83207,1.49152 -3.96484,2.54883 -1.13285,1.05727 -2.02022,2.32225 -2.66211,3.79492 -0.641963,1.47263 -0.962926,3.03968 -0.96289,4.70117 z"
         id="path10"
         style="fill:#a1a1a1;fill-opacity:1;stroke:none;stroke-opacity:1"
         inkscape:connector-curvature="0" /><path
         d="m 186.141,39.5703 0,126.422 -25.7148,-7.13672 0,-119.285 z"
         id="path12"
         style="fill:#a1a1a1;fill-opacity:1;stroke:none;stroke-opacity:1"
         inkscape:connector-curvature="0" /><path
         d="m 196.427,120 0,-80.4297 25.8281,0 0,87.5664 z"
         id="path14"
         style="fill:#a1a1a1;fill-opacity:1;stroke:none;stroke-opacity:1"
         inkscape:connector-curvature="0" /><path
         d="m 276.754,83.5234 0,-24.582 c -2.64327,-1.96356 -5.04106,-3.58726 -7.19335,-4.87109 -2.15239,-1.28386 -4.28585,-1.92579 -6.4004,-1.92578 -1.05732,-1.3e-5 -2.03909,0.32095 -2.94531,0.96289 -0.90628,0.641918 -1.73701,1.49153 -2.49219,2.54883 -0.75523,1.05728 -1.34052,2.32225 -1.75585,3.79492 -0.4154,1.47264 -0.62308,3.00193 -0.62305,4.58789 -3e-5,2.03903 0.6419,4.00257 1.92578,5.89062 1.28382,1.88793 2.96416,3.66267 5.04102,5.32422 2.07678,1.66142 4.38017,3.19072 6.91015,4.58789 2.5299,1.3971 5.04097,2.62431 7.5332,3.68164 z m 25.9414,-43.9531 0,63.7773 c -8e-5,3.54935 -0.67976,6.75898 -2.03906,9.62891 -1.35945,2.86971 -3.47403,5.32414 -6.34375,7.36328 -2.86986,2.03898 -6.51374,3.60603 -10.9316,4.70117 -4.41803,1.09497 -9.6856,1.6425 -15.8027,1.64258 -4.98441,-9e-5 -9.70445,-0.52874 -14.1602,-1.58594 -4.45576,-1.05737 -8.38284,-2.49226 -11.7812,-4.30468 -3.39845,-1.81259 -6.09832,-3.98381 -8.09961,-6.51368 -2.00131,-2.53001 -3.00196,-5.26764 -3.00196,-8.21289 0,-3.17194 1.13281,-5.79629 3.39844,-7.87304 2.26562,-2.07688 5.21092,-3.11528 8.83594,-3.11524 2.34112,-5.5e-5 4.28578,0.339788 5.83398,1.01953 1.54816,0.67963 2.73761,1.58588 3.56836,2.71875 0.8307,1.13275 1.41599,2.45437 1.75586,3.96485 0.33982,1.51035 0.50974,3.05853 0.50977,4.64453 -3e-5,2.7942 0.79294,5.17311 2.3789,7.13672 1.58591,1.96346 4.41794,2.94523 8.4961,2.94531 3.47392,-8e-5 6.2493,-1.13289 8.32617,-3.39844 2.07677,-2.2657 3.11518,-6.11725 3.11523,-11.5547 l 0,-8.38282 -2.83203,-0.679687 c -3.474,-1.05715 -6.98571,-2.17108 -10.5352,-3.3418 -3.54952,-1.17057 -6.96683,-2.45442 -10.252,-3.85156 -3.28518,-1.39718 -6.36265,-2.92647 -9.23242,-4.58789 -2.86981,-1.66149 -5.38087,-3.54951 -7.5332,-5.66406 -2.15235,-2.11461 -3.85157,-4.49352 -5.09766,-7.13672 -1.2461,-2.64325 -1.86914,-5.58856 -1.86914,-8.83594 0,-3.17189 0.58529,-6.09832 1.75586,-8.7793 1.17057,-2.68099 2.85091,-5.00326 5.04102,-6.9668 2.19009,-1.96354 4.85219,-3.51172 7.98633,-4.64453 3.13409,-1.13281 6.66468,-1.69922 10.5918,-1.69922 2.86977,-3e-6 5.36195,0.207679 7.47656,0.623046 2.11455,0.415366 4.02145,1.00065 5.72071,1.75586 1.69917,0.755211 3.22847,1.64258 4.58789,2.66211 1.35933,1.01952 2.75646,2.13345 4.1914,3.3418 l 0,-6.79688 z"
         id="path16"
         style="fill:#a1a1a1;fill-opacity:1;stroke:none;stroke-opacity:1"
         inkscape:connector-curvature="0" /></g><g
       stroke-miterlimit="4"
       id="g18"
       style="stroke-width:3.0703125;stroke-linecap:butt;stroke-miterlimit:4"><circle
         cx="48.841999"
         cy="149.57001"
         r="16"
         id="circle20"
         style="fill:#6682df;stroke:#4063d8" /><circle
         cx="211.131"
         cy="149.57001"
         r="16"
         id="circle22"
         style="fill:#d5635c;stroke:#cb3c33" /><circle
         cx="232.131"
         cy="185.57001"
         r="16"
         id="circle24"
         style="fill:#60ad51;stroke:#389826" /><circle
         cx="253.131"
         cy="149.57001"
         r="16"
         id="circle26"
         style="fill:#aa79c1;stroke:#9558b2" /></g><path
       class="st0"
       d="m -144.17323,62.855467 c 0,-16.182743 -11.51026,-21.994855 -24.72997,-21.994855 -10.14271,0 -19.48767,1.937371 -27.12319,7.065705 l 2.50719,4.900408 c 6.60985,-4.21663 15.27104,-6.609853 24.27411,-6.609853 10.02874,0 19.14578,4.102667 19.14578,16.638595 0,10.484594 -9.45893,12.877817 -20.96919,16.06878 -12.19404,3.304927 -22.33674,7.63552 -22.33674,21.994853 0,14.35933 11.3963,19.94352 23.7043,19.94352 7.0657,0 14.24537,-0.79774 20.96919,-4.21663 l -2.27926,-5.12833 c -5.58419,2.84907 -11.96612,3.87474 -18.57597,3.87474 -10.1427,0 -18.00615,-3.30493 -18.00615,-14.70122 0,-9.914781 7.06571,-12.991783 19.03182,-16.29671 13.2197,-3.760778 24.38808,-7.065704 24.38808,-21.539003 m 84.902412,17.892188 c 0,-27.237152 -9.00308,-40.001006 -31.90964,-40.001006 -22.906562,0 -31.909632,12.763854 -31.909632,40.001006 0,27.237155 9.00307,40.001005 31.909632,40.001005 22.90656,0.11396 31.90964,-12.64989 31.90964,-40.001005 m -6.04004,0 c 0,20.855225 -4.3306,34.644745 -25.98356,34.644745 -21.539002,0 -25.983562,-13.78952 -25.983562,-34.644745 0,-20.855225 4.33059,-34.644746 25.983562,-34.644746 21.65296,0.113963 25.98356,13.903484 25.98356,34.644746 m -180.973202,40.228925 -3.41889,0 c -22.67864,0 -25.75564,-19.03181 -25.75564,-35.784369 l 0,-40.228932 c 1.82341,-1.595481 3.98871,-2.849074 6.154,-3.988704 l 0,42.280266 c 0,18.917859 2.73512,32.137559 20.6273,32.137559 l 1.59549,0 c 17.77822,0 20.62729,-13.2197 20.62729,-32.137559 l 0,-42.508192 c 2.1653,1.13963 4.3306,2.393223 6.15401,3.988705 l 0,40.228931 c -0.22793,16.980485 -3.53286,36.012295 -25.98356,36.012295 M -4.4546277,120.86262 C -15.622998,120.40677 -23.144558,116.53203 -27.817038,109.12444 l 0,10.82648 c -2.1653,-0.22793 -4.10267,-0.68378 -6.04004,-1.2536 l 0,-76.583115 c 1.82341,-0.569815 3.87474,-1.025667 6.04004,-1.253593 l 0,39.659117 0,0 c 0,0.227926 0,0.341889 0,0.455852 0,20.855229 4.33059,34.644739 25.9835603,34.644739 l 0.11396,0 -2.73511,5.2423 m -376.8755723,-7.52156 0,0.22793 -0.11397,0 0.11397,-0.22793 m -21.76693,5.58419 0,19.82956 -6.04004,0 0,-19.60163 -19.03182,0 -2.84907,-5.58419 21.99485,0 c 0,0 0,-40.684781 0,-42.96404 -0.22792,-4.672482 0.56982,-9.231001 2.1653,-13.219706 0,-0.227926 1.82341,-3.988704 4.67248,-7.407593 1.48152,-1.595482 4.33059,-4.216631 8.3193,-6.837779 l 2.73511,5.584186 c -3.077,2.165296 -5.2423,3.988704 -6.38193,5.242297 -2.39322,2.735111 -3.64681,5.812112 -3.64681,5.812112 -1.2536,2.849074 -1.82341,6.040038 -1.82341,9.117038 0,2.165297 0,44.787445 0,44.787445 l 21.539,0 -2.84907,5.47023 -18.80389,0 m 101.88291,-38.405525 0,-2.051334 -0.11396,0.113963 -53.56261,0.113963 0.11396,-3.077 c 0.9117,-24.616004 11.85215,-29.630375 25.75564,-29.630375 8.43326,0 15.27104,1.595482 22.45071,5.698149 l 2.27926,-5.128334 c -7.17967,-4.330593 -15.385,-6.040038 -24.84393,-6.040038 -17.55031,0 -31.79568,7.293631 -31.79568,39.887043 0,35.100598 16.52463,40.228928 30.54209,40.228928 18.12011,0 29.17452,-9.91477 29.17452,-40.114965 m -6.154,3.646815 c 0,23.7043 -9.34496,30.99793 -23.13449,30.99793 -12.53593,0 -24.04619,-4.78644 -24.61601,-30.99793 l 47.7505,0 m -163.195,55.15808 c -3.76078,-2.39322 -6.72381,-5.47022 -9.00307,-8.77515 -1.13963,-1.70944 -17.09445,-25.64167 -26.09753,-39.203261 l 0,0 c -7.52155,-11.396299 -26.43941,-39.887044 -27.80696,-41.824414 -3.19097,-5.242297 -7.4076,-9.686854 -12.42197,-13.105743 -0.11396,-0.227926 -5.35626,-3.304926 -11.73818,-5.35626 -0.45586,-0.113963 -0.91171,-0.227926 -1.36756,-0.341889 l 107.92294,0 0,114.646757 c -4.67248,-0.56982 -8.20533,-1.13963 -10.25667,-1.82341 -5.35626,-1.59548 -9.231,-4.21663 -9.231,-4.21663 m -72.59442,-88.321307 c 1.13963,1.709445 17.09445,25.641671 26.09753,39.203265 l 0,0 c 7.52155,11.396302 26.43941,39.887042 27.80696,41.824412 3.19097,5.2423 7.4076,9.68685 12.42197,13.10574 0.11396,0.22793 5.35626,3.30493 11.73819,5.35627 0.45585,0.11396 0.9117,0.22792 1.36755,0.34188 l -107.80898,0 0,-114.760717 c 4.67248,0.569815 8.20534,1.13963 10.25667,1.823408 5.12834,1.595481 9.11704,4.21663 9.11704,4.21663 3.87474,2.507185 6.83778,5.584186 9.00307,8.889112"
       id="path5"
       inkscape:connector-curvature="0"
       style="fill:#6682df;fill-opacity:1" /><path
       class="st1"
       d="m -506.0057,91.004319 c -1.48152,-2.165292 -3.30493,-5.014367 -5.35626,-8.091367 8.77515,-13.219706 20.96918,-31.681709 22.10881,-33.27719 3.19097,-5.242297 7.4076,-9.686854 12.42197,-13.105743 0.11396,-0.227926 5.35626,-3.304926 11.73819,-5.35626 0.45585,-0.113963 0.9117,-0.227926 1.36755,-0.341889 l 12.42197,0 0,5.584186 c -4.67249,0.569815 -8.20534,1.13963 -10.25667,1.823408 -5.12834,1.595481 -9.11704,4.21663 -9.11704,4.21663 -3.76078,2.393222 -6.72382,5.470223 -9.00308,8.775149 -1.13963,1.709445 -17.09444,25.641671 -26.09752,39.203265 l 0,0 c 0,0.227926 -0.11396,0.341891 -0.22792,0.569811 m -53.10675,60.172461 -12.42197,0 0,-5.58419 c 4.67248,-0.56982 8.20534,-1.13963 10.25667,-1.82341 5.12834,-1.59548 9.11704,-4.21663 9.11704,-4.21663 3.76078,-2.39322 6.72382,-5.47022 9.00307,-8.77515 1.13963,-1.70944 17.09445,-25.64167 26.09753,-39.203261 l 0,0 c 0.11396,-0.22793 0.22792,-0.34189 0.34189,-0.56982 1.48151,2.1653 3.30492,5.01437 5.35626,8.09138 -8.77515,13.219701 -20.96919,31.681701 -22.10882,33.277181 -3.19097,5.2423 -7.4076,9.68686 -12.42197,13.10574 -0.11396,0.22793 -5.35626,3.30494 -11.73818,5.35627 -0.45586,0.11396 -0.91171,0.22792 -1.48152,0.34189"
       id="path7"
       inkscape:connector-curvature="0"
       style="fill:#cbd3f3;fill-opacity:1" /></g></svg>