<?xml version="1.0" encoding="utf-8"?>
<!-- Generator: Adobe Illustrator 21.1.0, SVG Export Plug-In . SVG Version: 6.00 Build 0)  -->
<svg version="1.1" id="Calque_1" xmlns="http://www.w3.org/2000/svg" xmlns:xlink="http://www.w3.org/1999/xlink" x="0px" y="0px"
	 viewBox="0 0 238.8 81.3" width="710.714286" height="241.964286" style="enable-background:new 0 0 238.8 81.3;" xml:space="preserve">
<style type="text/css">
	.st0{fill:#666666;}
	.st1{fill:#7FD787;}
	.st2{opacity:0.28;fill:#7FD787;enable-background:new    ;}
</style>
<g>
	<path class="st0" d="M177.8,62.3L177.8,62.3c-1.7,0-3.2,0.3-4.3,1c-0.5,0.3-0.9,0.6-1.3,1v15.7l2,0.7v-7.1c1.2,0.8,2.4,1.1,3.6,1.1
		c1.5,0,2.7-0.7,3.6-1.9c0.8-1.1,1.2-2.5,1.2-4.1h0c0-1.9-0.4-3.4-1.2-4.6C180.6,62.9,179.4,62.3,177.8,62.3z M177.4,73.4
		c-0.9,0.1-2-0.3-3.2-1v-7.8c0.2-0.2,0.6-0.4,1.1-0.6c0.7-0.3,1.4-0.4,2.2-0.4c1.9,0.1,2.8,1.8,2.8,5
		C180.3,71.7,179.3,73.3,177.4,73.4z M192.8,62.6h2v10.8c0,2.2-0.2,3.8-0.7,4.6c-0.4,0.9-1.3,1.5-2.6,2c-1,0.4-2.1,0.6-3.3,0.7
		l-0.3-1.3c1.2-0.2,2-0.3,2.5-0.5c1-0.3,1.6-0.8,2-1.5c0.3-0.5,0.4-1.6,0.4-3.1v-0.5c-1.4,0.6-2.8,0.9-4.3,0.9c-1,0-1.8-0.3-2.6-0.9
		c-0.8-0.7-1.3-1.5-1.3-2.6V63l2-0.7v8.3c0,0.9,0.3,1.6,0.9,2.1c0.6,0.5,1.3,0.7,2.2,0.7c0.9,0,1.9-0.4,2.9-1.1V62.6z M200.3,62.6
		h2.2v1.3h-2.2v7.8c0,0.7,0.2,1.3,0.6,1.6c0.3,0.3,0.9,0.4,1.6,0.4v1c-0.2,0-0.5,0-0.7,0c-1.1,0-2-0.3-2.6-0.8
		c-0.6-0.5-0.9-1.3-0.9-2.2v-7.8h-1.4v-1.3h1.4v-3.3l2-0.7V62.6z M213.6,63.6c0.7,0.7,1,1.6,1,2.6v8.3h-2v-7.7c0-0.8-0.2-1.5-0.5-2
		c-0.4-0.6-1-1-1.8-1c-0.9,0-2.1,0.5-3.4,1.4v9.2h-2V56.2l2-0.6v8.4c1.3-0.9,2.7-1.4,4.2-1.4C212.1,62.5,212.9,62.9,213.6,63.6z
		 M221.9,62.3c-1.7,0-3,0.6-4,1.8c-1,1.1-1.4,2.6-1.4,4.2c0,1.8,0.4,3.3,1.3,4.4c1,1.3,2.3,2,4.1,2c1.8,0,3.1-0.7,4.1-2
		c0.9-1.2,1.4-2.7,1.4-4.4c0-1.7-0.5-3.1-1.4-4.2C224.9,62.9,223.5,62.3,221.9,62.3z M221.9,73.5c-1.2,0-2-0.6-2.6-1.7
		c-0.5-0.9-0.7-2.1-0.7-3.4c0-3,1.1-4.6,3.3-4.7c1.2,0.1,2.1,0.6,2.6,1.6c0.5,0.8,0.7,1.8,0.7,3.1C225.2,71.8,224.1,73.5,221.9,73.5
		z M238.8,65.4v9.1h-2v-8.1c0-0.9-0.3-1.6-0.8-2.1c-0.5-0.5-1.3-0.7-2.1-0.7c-0.9,0-1.8,0.3-2.7,0.9v10h-2V64.3
		c1.1-0.8,2.2-1.4,3.2-1.6c0.9-0.2,1.7-0.4,2.4-0.4c0.5,0,0.9,0,1.3,0.1c0.8,0.2,1.4,0.5,1.9,1C238.5,64,238.8,64.6,238.8,65.4z
		 M149.7,68.3h6c1.7,0,3-1.4,3-3v-5.7c0-1.6-1.4-2.8-3-3.1c-1-0.2-2.1-0.2-3.1-0.2s-2,0.1-2.9,0.2c-2.5,0.4-3,1.4-3,3.1v2.3h6v0.8
		h-6h-2.2c-1.7,0-3.3,1-3.7,3c-0.6,2.3-0.6,3.7,0,6.1c0.4,1.8,1.4,3,3.2,3h2.1v-2.7C145.9,70.1,147.7,68.3,149.7,68.3z M149.3,60.4
		c-0.6,0-1.1-0.5-1.1-1.1c0-0.6,0.5-1.1,1.1-1.1c0.6,0,1.1,0.5,1.1,1.1C150.4,59.8,149.9,60.4,149.3,60.4z M161.7,62.6h-2.2v2.7
		c0,2.1-1.7,3.8-3.7,3.8h-6c-1.6,0-3,1.4-3,3v5.7c0,1.6,1.4,2.6,3,3c1.9,0.6,3.7,0.7,6,0c1.5-0.4,3-1.3,3-3v-2.3h-6v-0.8h6h3
		c1.7,0,2.4-1.2,3-3c0.6-1.9,0.6-3.7,0-6.1C164.2,63.9,163.4,62.6,161.7,62.6z M156,77.1c0.6,0,1.1,0.5,1.1,1.1
		c0,0.6-0.5,1.1-1.1,1.1c-0.6,0-1.1-0.5-1.1-1.1C154.9,77.6,155.4,77.1,156,77.1z"/>
	<g>
		<path class="st1" d="M79.7,15.9L79.7,15.9L79.7,15.9L79.7,15.9z M71.4,38.4c-0.5-1.2-0.8-2.5-0.8-3.8c0-0.9,0-18.8,0-18.8h9.1
			l-1.2-2.3h-7.9V5.2h-2.6v8.2h-8l-1.2,2.4h9.2c0,0,0,17.1,0,18c-0.1,1.9,0.2,3.9,0.9,5.5c0,0.1,0.8,1.6,1.9,3.1
			c0.6,0.6,1.8,1.7,3.5,2.9l1.2-2.4c-1.3-0.9-2.2-1.6-2.7-2.2C71.9,39.5,71.4,38.4,71.4,38.4z M42.3,4.9c-1.6,1-2.8,2.3-3.8,3.7
			C38.1,9.3,31.4,19.2,27.7,25C24.5,29.7,16.5,41.7,16,42.5c-1.3,2.2-3.1,4.1-5.2,5.5c0,0.1-2.3,1.4-5,2.3c-0.2,0-0.4,0.1-0.5,0.1
			H45c-0.1,0-0.2-0.1-0.4-0.1c-2.7-0.9-4.9-2.2-5-2.3c-2.1-1.4-3.9-3.3-5.2-5.5c-0.4-0.6-5.6-8.4-9.3-13.9c0.9-1.3,1.6-2.5,2.3-3.3
			c0,0.1,0.1,0.1,0.1,0.2c3.8,5.7,10.5,15.7,10.9,16.4c1,1.4,2.2,2.7,3.8,3.7c0,0,1.6,1.1,3.8,1.7c0.9,0.3,2.4,0.5,4.3,0.8v2.3h0.1
			V2.4c-1.9,0.2-3.5,0.4-4.3,0.8C44,3.8,42.3,4.9,42.3,4.9z M11.9,41.9c0.4-0.8,7.1-10.7,10.9-16.4c3.1-4.9,11.1-16.7,11.7-17.6
			c1.3-2.2,3.1-4.1,5.2-5.5c0-0.1,2.3-1.4,5-2.3C44.8,0.1,45,0,45.2,0H5.4c0.1,0,0.3,0.1,0.4,0.1c2.7,0.9,4.9,2.2,5,2.3
			c2.1,1.4,3.9,3.3,5.2,5.5c0.4,0.6,5.6,8.4,9.3,13.9c-0.9,1.3-1.6,2.5-2.3,3.3c0-0.1-0.1-0.1-0.1-0.2C19,19.3,12.3,9.3,11.9,8.5
			c-1-1.4-2.2-2.7-3.8-3.7c0,0-1.6-1.1-3.8-1.7C3.5,2.8,1.9,2.6,0,2.4v45.8c1.9-0.2,3.5-0.4,4.3-0.8c2.2-0.6,3.8-1.7,3.8-1.7
			C9.7,44.5,11,43.3,11.9,41.9z M201.3,12.7c-9.6,0-13.4,5.4-13.4,16.7c0,11.5,3.8,16.7,13.4,16.7c9.6,0,13.4-5.4,13.4-16.7
			C214.7,18,210.9,12.7,201.3,12.7z M201.3,44.1c-9.1,0-10.9-5.7-10.9-14.5s1.8-14.5,10.9-14.5c9.1,0,10.9,5.7,10.9,14.5
			C212.2,38.2,210.3,44,201.3,44.1z M237.7,12.7c-4.6,0.2-7.8,1.8-9.8,5v-4.5c-0.9,0.1-1.7,0.3-2.5,0.5v32.1
			c0.8,0.2,1.6,0.4,2.5,0.5v-17c0-8.8,1.8-14.5,10.9-14.5l0,0L237.7,12.7z M101,12.7c-5.8,0-12.7,2.2-12.7,16.9
			c0,13.6,5.9,16.7,13.3,16.7c4,0,7.5-0.8,10.4-2.5l-1-2.2c-3,1.7-5.8,2.4-9.4,2.4c-5.8,0-10.4-2.1-10.8-12.4v-1.3h22.5l0,0v-0.9
			C113.3,16.9,108.7,12.7,101,12.7z M90.6,28c0.2-11,5.1-13,10.3-13c5.7,0,9.7,3,9.7,13H90.6z M136.3,12.6h-1.4
			c-9.5,0-10.8,8-10.8,15v16.9c0.8,0.6,1.6,1.2,2.6,1.6V28.4c0-7.9,1.2-13.5,8.6-13.5h0.6c7.5,0,8.6,5.5,8.6,13.5v17.8
			c0.9-0.4,1.8-1,2.6-1.6V27.8C147.1,20.6,145.7,12.6,136.3,12.6z M168.9,28c-5-1.4-8-2.7-8-6.8c0-4.8,3.3-6.2,7.6-6.2
			c2.8,0,5.4,0.4,7.8,1.6l1-2.2c-2.8-1.4-5.8-1.7-8.8-1.7c-5.2,0-9.9,2.4-9.9,8.3s4.2,7.8,9.4,9.2c4.9,1.3,8.8,2.4,8.8,6.7
			c0,5.3-3.8,7-8,7c-3.8,0-7.5-1-10.2-2.8l-1.1,2.1c3.2,2.2,7.1,2.9,11.3,2.9c5.5,0,10.4-2.5,10.4-9.2
			C179.1,30.9,174.4,29.6,168.9,28z"/>
		<path class="st2" d="M27.4,25.2c-0.6,0.9-1.4,2.1-2.3,3.3c3.7,5.5,8.8,13.3,9.3,13.9c1.3,2.2,3.1,4.1,5.2,5.5c0,0.1,2.3,1.4,5,2.3
			c0.2,0,0.4,0.1,0.5,0.1h5.2V48c-1.9-0.2-3.5-0.4-4.3-0.8c-2.2-0.6-3.8-1.7-3.8-1.7c-1.6-1-2.8-2.3-3.8-3.7
			c-0.4-0.8-7.1-10.7-10.9-16.4l0,0C27.5,25.4,27.5,25.3,27.4,25.2 M5.2,0H0v2.4c1.9,0.2,3.5,0.4,4.3,0.8c2.2,0.6,3.8,1.7,3.8,1.7
			c1.6,1,2.8,2.3,3.8,3.7C12.3,9.3,19,19.2,22.8,25l0,0c0,0.1,0.1,0.1,0.1,0.2c0.6-0.9,1.4-2.1,2.3-3.3c-3.7-5.5-8.8-13.3-9.3-13.9
			c-1.3-2.2-3.1-4.1-5.2-5.5c0-0.1-2.3-1.4-5-2.3C5.6,0.1,5.4,0,5.2,0"/>
	</g>
</g>
</svg>
