<?xml version="1.0" encoding="UTF-8" standalone="no"?>
<!-- Generator: Adobe Illustrator 21.1.0, SVG Export Plug-In . SVG Version: 6.00 Build 0)  -->

<svg
   xmlns:dc="http://purl.org/dc/elements/1.1/"
   xmlns:cc="http://creativecommons.org/ns#"
   xmlns:rdf="http://www.w3.org/1999/02/22-rdf-syntax-ns#"
   xmlns:svg="http://www.w3.org/2000/svg"
   xmlns="http://www.w3.org/2000/svg"
   xmlns:sodipodi="http://sodipodi.sourceforge.net/DTD/sodipodi-0.dtd"
   xmlns:inkscape="http://www.inkscape.org/namespaces/inkscape"
   version="1.1"
   id="Calque_1"
   x="0px"
   y="0px"
   viewBox="0 0 238.8 73.3"
   width="710.714286" height="218.154762"
   style="enable-background:new 0 0 238.8 73.3;"
   xml:space="preserve"
   inkscape:version="0.91 r13725"
   sodipodi:docname="xtensor-fftw.svg"><metadata
     id="metadata19"><rdf:RDF><cc:Work
         rdf:about=""><dc:format>image/svg+xml</dc:format><dc:type
           rdf:resource="http://purl.org/dc/dcmitype/StillImage" /><dc:title></dc:title></cc:Work></rdf:RDF></metadata><defs
     id="defs17" /><sodipodi:namedview
     pagecolor="#ffffff"
     bordercolor="#666666"
     borderopacity="1"
     objecttolerance="10"
     gridtolerance="10"
     guidetolerance="10"
     inkscape:pageopacity="0"
     inkscape:pageshadow="2"
     inkscape:window-width="1847"
     inkscape:window-height="1056"
     id="namedview15"
     showgrid="false"
     inkscape:zoom="3.5296117"
     inkscape:cx="149.79547"
     inkscape:cy="-38.325905"
     inkscape:window-x="73"
     inkscape:window-y="24"
     inkscape:window-maximized="1"
     inkscape:current-layer="text4147" /><style
     type="text/css"
     id="style3">
	.st0{fill:#666666;}
	.st1{fill:#7FD787;}
	.st2{opacity:0.28;fill:#7FD787;enable-background:new    ;}
</style><g
     style="font-style:normal;font-weight:normal;font-size:40px;line-height:125%;font-family:sans-serif;letter-spacing:0px;word-spacing:0px;fill:#666666;fill-opacity:1;stroke:none;stroke-width:1px;stroke-linecap:butt;stroke-linejoin:miter;stroke-opacity:1"
     id="text4147"><path
       d="m 194.18059,62.203812 -3.22266,0 0,10.85205 -3.72314,0 0,-10.85205 -2.05078,0 0,-1.794434 2.05078,-1.000977 0,-1.000976 q 0,-2.331543 1.14746,-3.405762 1.14746,-1.074219 3.67431,-1.074219 1.92872,0 3.43018,0.573731 l -0.95215,2.734375 q -1.12305,-0.354004 -2.07519,-0.354004 -0.79346,0 -1.14746,0.476074 -0.35401,0.463867 -0.35401,1.196289 l 0,0.854492 3.22266,0 0,2.795411 z m 9.68017,0 -3.22265,0 0,10.85205 -3.72315,0 0,-10.85205 -2.05078,0 0,-1.794434 2.05078,-1.000977 0,-1.000976 q 0,-2.331543 1.14746,-3.405762 1.14746,-1.074219 3.67432,-1.074219 1.92871,0 3.43018,0.573731 l -0.95215,2.734375 q -1.12305,-0.354004 -2.0752,-0.354004 -0.79345,0 -1.14746,0.476074 -0.354,0.463867 -0.354,1.196289 l 0,0.854492 3.22265,0 0,2.795411 z"
       style="font-style:normal;font-variant:normal;font-weight:bold;font-stretch:normal;font-size:25px;line-height:125%;font-family:'Open Sans';-inkscape-font-specification:'Open Sans, Bold';text-align:start;writing-mode:lr-tb;text-anchor:start;fill:#666666;fill-opacity:1"
       id="path4156" /><path
       d="m 211.72209,70.333694 q 0.97656,0 2.34375,-0.427246 l 0,2.770996 q -1.3916,0.622559 -3.41797,0.622559 -2.23388,0 -3.25927,-1.123047 -1.01319,-1.135254 -1.01319,-3.393555 l 0,-6.579589 -1.78222,0 0,-1.574707 2.05078,-1.245118 1.07422,-2.880859 2.38037,0 0,2.905273 3.8208,0 0,2.795411 -3.8208,0 0,6.579589 q 0,0.793458 0.43945,1.171875 0.45166,0.378418 1.18408,0.378418 z"
       style="font-style:normal;font-variant:normal;font-weight:bold;font-stretch:normal;font-size:25px;line-height:125%;font-family:'Open Sans';-inkscape-font-specification:'Open Sans, Bold';text-align:start;writing-mode:lr-tb;text-anchor:start;fill:#666666;fill-opacity:1"
       id="path4158" /><path
       d="m 228.03069,73.055862 -1.04981,-4.772949 -1.41601,-6.030273 -0.0855,0 -2.49024,10.803222 -4.0039,0 -3.88184,-13.647461 3.71094,0 1.5747,6.042481 q 0.37842,1.623535 0.76905,4.47998 l 0.0732,0 q 0.0488,-0.927734 0.42725,-2.941894 l 0.19531,-1.037598 1.68457,-6.542969 4.10156,0 1.59912,6.542969 q 0.0488,0.268555 0.14649,0.793457 0.10986,0.524903 0.20752,1.123047 0.0977,0.585938 0.17089,1.159668 0.0854,0.561524 0.0977,0.90332 l 0.0732,0 q 0.10987,-0.878906 0.39063,-2.404785 0.28076,-1.538086 0.40283,-2.075195 l 1.63574,-6.042481 3.6499,0 -3.93066,13.647461 -4.05273,0 z"
       style="font-style:normal;font-variant:normal;font-weight:bold;font-stretch:normal;font-size:25px;line-height:125%;font-family:'Open Sans';-inkscape-font-specification:'Open Sans, Bold';text-align:start;writing-mode:lr-tb;text-anchor:start;fill:#666666;fill-opacity:1"
       id="path4160" /></g><g
     id="g5"><g
       id="g9"><path
         class="st1"
         d="M79.7,15.9L79.7,15.9L79.7,15.9L79.7,15.9z M71.4,38.4c-0.5-1.2-0.8-2.5-0.8-3.8c0-0.9,0-18.8,0-18.8h9.1    l-1.2-2.3h-7.9V5.2h-2.6v8.2h-8l-1.2,2.4h9.2c0,0,0,17.1,0,18c-0.1,1.9,0.2,3.9,0.9,5.5c0,0.1,0.8,1.6,1.9,3.1    c0.6,0.6,1.8,1.7,3.5,2.9l1.2-2.4c-1.3-0.9-2.2-1.6-2.7-2.2C71.9,39.5,71.4,38.4,71.4,38.4z M42.3,4.9c-1.6,1-2.8,2.3-3.8,3.7    C38.1,9.3,31.4,19.2,27.7,25C24.5,29.7,16.5,41.7,16,42.5c-1.3,2.2-3.1,4.1-5.2,5.5c0,0.1-2.3,1.4-5,2.3c-0.2,0-0.4,0.1-0.5,0.1    H45c-0.1,0-0.2-0.1-0.4-0.1c-2.7-0.9-4.9-2.2-5-2.3c-2.1-1.4-3.9-3.3-5.2-5.5c-0.4-0.6-5.6-8.4-9.3-13.9c0.9-1.3,1.6-2.5,2.3-3.3    c0,0.1,0.1,0.1,0.1,0.2c3.8,5.7,10.5,15.7,10.9,16.4c1,1.4,2.2,2.7,3.8,3.7c0,0,1.6,1.1,3.8,1.7c0.9,0.3,2.4,0.5,4.3,0.8v2.3h0.1    V2.4c-1.9,0.2-3.5,0.4-4.3,0.8C44,3.8,42.3,4.9,42.3,4.9z M11.9,41.9c0.4-0.8,7.1-10.7,10.9-16.4c3.1-4.9,11.1-16.7,11.7-17.6    c1.3-2.2,3.1-4.1,5.2-5.5c0-0.1,2.3-1.4,5-2.3C44.8,0.1,45,0,45.2,0H5.4c0.1,0,0.3,0.1,0.4,0.1c2.7,0.9,4.9,2.2,5,2.3    c2.1,1.4,3.9,3.3,5.2,5.5c0.4,0.6,5.6,8.4,9.3,13.9c-0.9,1.3-1.6,2.5-2.3,3.3c0-0.1-0.1-0.1-0.1-0.2C19,19.3,12.3,9.3,11.9,8.5    c-1-1.4-2.2-2.7-3.8-3.7c0,0-1.6-1.1-3.8-1.7C3.5,2.8,1.9,2.6,0,2.4v45.8c1.9-0.2,3.5-0.4,4.3-0.8c2.2-0.6,3.8-1.7,3.8-1.7    C9.7,44.5,11,43.3,11.9,41.9z M201.3,12.7c-9.6,0-13.4,5.4-13.4,16.7c0,11.5,3.8,16.7,13.4,16.7c9.6,0,13.4-5.4,13.4-16.7    C214.7,18,210.9,12.7,201.3,12.7z M201.3,44.1c-9.1,0-10.9-5.7-10.9-14.5s1.8-14.5,10.9-14.5c9.1,0,10.9,5.7,10.9,14.5    C212.2,38.2,210.3,44,201.3,44.1z M237.7,12.7c-4.6,0.2-7.8,1.8-9.8,5v-4.5c-0.9,0.1-1.7,0.3-2.5,0.5v32.1    c0.8,0.2,1.6,0.4,2.5,0.5v-17c0-8.8,1.8-14.5,10.9-14.5l0,0L237.7,12.7z M101,12.7c-5.8,0-12.7,2.2-12.7,16.9    c0,13.6,5.9,16.7,13.3,16.7c4,0,7.5-0.8,10.4-2.5l-1-2.2c-3,1.7-5.8,2.4-9.4,2.4c-5.8,0-10.4-2.1-10.8-12.4v-1.3h22.5l0,0v-0.9    C113.3,16.9,108.7,12.7,101,12.7z M90.6,28c0.2-11,5.1-13,10.3-13c5.7,0,9.7,3,9.7,13H90.6z M136.3,12.6h-1.4    c-9.5,0-10.8,8-10.8,15v16.9c0.8,0.6,1.6,1.2,2.6,1.6V28.4c0-7.9,1.2-13.5,8.6-13.5h0.6c7.5,0,8.6,5.5,8.6,13.5v17.8    c0.9-0.4,1.8-1,2.6-1.6V27.8C147.1,20.6,145.7,12.6,136.3,12.6z M168.9,28c-5-1.4-8-2.7-8-6.8c0-4.8,3.3-6.2,7.6-6.2    c2.8,0,5.4,0.4,7.8,1.6l1-2.2c-2.8-1.4-5.8-1.7-8.8-1.7c-5.2,0-9.9,2.4-9.9,8.3s4.2,7.8,9.4,9.2c4.9,1.3,8.8,2.4,8.8,6.7    c0,5.3-3.8,7-8,7c-3.8,0-7.5-1-10.2-2.8l-1.1,2.1c3.2,2.2,7.1,2.9,11.3,2.9c5.5,0,10.4-2.5,10.4-9.2    C179.1,30.9,174.4,29.6,168.9,28z"
         id="path11" /><path
         class="st2"
         d="M27.4,25.2c-0.6,0.9-1.4,2.1-2.3,3.3c3.7,5.5,8.8,13.3,9.3,13.9c1.3,2.2,3.1,4.1,5.2,5.5c0,0.1,2.3,1.4,5,2.3    c0.2,0,0.4,0.1,0.5,0.1h5.2V48c-1.9-0.2-3.5-0.4-4.3-0.8c-2.2-0.6-3.8-1.7-3.8-1.7c-1.6-1-2.8-2.3-3.8-3.7    c-0.4-0.8-7.1-10.7-10.9-16.4l0,0C27.5,25.4,27.5,25.3,27.4,25.2 M5.2,0H0v2.4c1.9,0.2,3.5,0.4,4.3,0.8c2.2,0.6,3.8,1.7,3.8,1.7    c1.6,1,2.8,2.3,3.8,3.7C12.3,9.3,19,19.2,22.8,25l0,0c0,0.1,0.1,0.1,0.1,0.2c0.6-0.9,1.4-2.1,2.3-3.3c-3.7-5.5-8.8-13.3-9.3-13.9    c-1.3-2.2-3.1-4.1-5.2-5.5c0-0.1-2.3-1.4-5-2.3C5.6,0.1,5.4,0,5.2,0"
         id="path13" /></g></g></svg>
