<?xml version="1.0" encoding="UTF-8" standalone="no"?>
<!-- Generator: Adobe Illustrator 19.2.1, SVG Export Plug-In . SVG Version: 6.00 Build 0)  -->

<svg
   xmlns:dc="http://purl.org/dc/elements/1.1/"
   xmlns:cc="http://creativecommons.org/ns#"
   xmlns:rdf="http://www.w3.org/1999/02/22-rdf-syntax-ns#"
   xmlns:svg="http://www.w3.org/2000/svg"
   xmlns="http://www.w3.org/2000/svg"
   xmlns:sodipodi="http://sodipodi.sourceforge.net/DTD/sodipodi-0.dtd"
   xmlns:inkscape="http://www.inkscape.org/namespaces/inkscape"
   version="1.1"
   id="Calque_1"
   x="0px"
   y="0px"
   viewBox="0 0 794.524 114.33475"
   xml:space="preserve"
   inkscape:version="0.91 r13725"
   sodipodi:docname="xtensor-blas.svg"
   width="794.52405"
   height="114.33474"><metadata
     id="metadata13"><rdf:RDF><cc:Work
         rdf:about=""><dc:format>image/svg+xml</dc:format><dc:type
           rdf:resource="http://purl.org/dc/dcmitype/StillImage" /><dc:title /></cc:Work></rdf:RDF></metadata><defs
     id="defs11" /><sodipodi:namedview
     pagecolor="#ffffff"
     bordercolor="#666666"
     borderopacity="1"
     objecttolerance="10"
     gridtolerance="10"
     guidetolerance="10"
     inkscape:pageopacity="0"
     inkscape:pageshadow="2"
     inkscape:window-width="1546"
     inkscape:window-height="755"
     id="namedview9"
     showgrid="false"
     inkscape:zoom="2.6700352"
     inkscape:cx="118.67705"
     inkscape:cy="58.623555"
     inkscape:window-x="339"
     inkscape:window-y="34"
     inkscape:window-maximized="0"
     inkscape:current-layer="Calque_1"
     fit-margin-top="0"
     fit-margin-left="0"
     fit-margin-right="0"
     fit-margin-bottom="0" /><style
     type="text/css"
     id="style3">
	.st0{fill:#7DDB85;}
	.st1{fill:#D8F8D7;}
</style><path
     style="fill:#ff3930;fill-opacity:1"
     d="M 561.44141 0 L 561.44141 106 C 563.34141 105.8 565.04023 105.40039 566.74023 104.90039 L 566.74023 95.900391 C 571.14023 102.90039 578.44141 106.30078 589.44141 106.30078 C 609.54141 106.30078 617.44141 95.100779 617.44141 71.300781 C 617.44141 47.500785 609.54141 36.199219 589.44141 36.199219 C 578.44141 36.199219 571.04023 39.599611 566.74023 46.599609 L 566.74023 1.1992188 C 565.04023 0.59921878 563.34141 0.19999998 561.44141 0 z M 11.330078 8.8339844 C 11.627703 8.9008999 11.931557 8.9682407 12.199219 9.0351562 C 17.799218 10.835156 22.4 13.534375 22.5 13.734375 C 26.9 16.734375 30.600391 20.634375 33.400391 25.234375 C 34.400391 26.634375 45.100782 42.835548 52.800781 54.435547 C 51.000781 57.135547 49.399609 59.635156 48.099609 61.535156 C 47.999609 61.335156 47.900781 61.235156 47.800781 61.035156 C 39.900782 49.135157 25.900391 28.134766 24.900391 26.634766 C 22.900391 23.734766 20.3 21.035547 17 18.935547 C 17 18.935547 13.5 16.634375 9 15.234375 C 7.2000001 14.634375 4.0999997 14.134766 0 13.634766 L 0 109.53516 C 4.0999995 109.03516 7.2000002 108.53555 9 107.93555 C 13.5 106.53555 17 104.23438 17 104.23438 C 20.4 102.03438 23.000391 99.335547 24.900391 96.435547 C 25.900391 94.935547 39.900783 73.935156 47.800781 62.035156 C 54.400781 52.035158 70.999219 27.033984 72.199219 25.333984 C 74.999219 20.733986 78.699611 16.833984 83.099609 13.833984 C 83.199609 13.633984 87.800391 10.934766 93.400391 9.1347656 L 94.599609 8.8339844 L 11.330078 8.8339844 z M 105.69922 13.634766 C 101.59922 14.134766 98.499219 14.634375 96.699219 15.234375 C 91.999219 16.634375 88.599609 18.935547 88.599609 18.935547 C 85.299611 21.035547 82.699219 23.734766 80.699219 26.634766 C 79.699219 28.134766 65.700781 49.135158 57.800781 61.035156 C 51.200783 71.035156 34.600391 96.034375 33.400391 97.734375 C 30.600391 102.33438 26.9 106.23438 22.5 109.23438 C 22.4 109.43436 17.799217 112.13555 12.199219 113.93555 L 11 114.23438 L 94.199219 114.23438 L 93.400391 114.03516 C 87.800391 112.23516 83.199609 109.53398 83.099609 109.33398 C 78.69961 106.33398 74.999219 102.43399 72.199219 97.833984 C 71.199219 96.433984 60.500781 80.234765 52.800781 68.634766 C 54.600781 65.934766 56.2 63.435156 57.5 61.535156 C 57.6 61.735156 57.699219 61.835156 57.699219 62.035156 C 65.599218 73.935156 79.599609 94.935547 80.599609 96.435547 C 82.599609 99.335547 85.2 102.03477 88.5 104.13477 C 88.5 104.13477 92 106.43398 96.5 107.83398 C 98.3 108.43398 101.4 108.93555 105.5 109.43555 L 105.5 114.23438 L 105.69922 114.23438 L 105.69922 13.634766 z M 142.5 19.634766 L 142.5 36.833984 L 125.80078 36.833984 L 123.30078 41.734375 L 142.59961 41.734375 L 142.59961 79.435547 C 142.39961 83.535547 143.1 87.535156 144.5 91.035156 C 144.5 91.235156 146.09961 94.535156 148.59961 97.535156 C 149.89961 98.935156 152.40039 101.23516 155.90039 103.53516 L 158.30078 98.634766 C 155.60078 96.734766 153.69922 95.135156 152.69922 94.035156 C 150.59922 91.635156 149.5 88.935547 149.5 88.935547 C 148.4 86.435547 147.90039 83.635547 147.90039 80.935547 L 147.90039 41.634766 L 166.80078 41.634766 L 164.30078 36.833984 L 147.80078 36.833984 L 147.80078 19.634766 L 142.5 19.634766 z M 640.14258 21.535156 C 640.12818 38.617578 640.20749 58.976616 640.24219 81.333984 C 640.04219 85.433984 640.74258 89.435547 642.14258 92.935547 C 642.14258 93.135547 643.74219 96.435547 646.24219 99.435547 C 647.54219 100.83555 650.04297 103.13555 653.54297 105.43555 L 655.94141 100.53516 C 653.24141 98.635149 651.3418 97.035547 650.3418 95.935547 C 648.2418 93.535547 647.14258 90.833984 647.14258 90.833984 C 646.04258 88.333986 645.54297 85.533984 645.54297 82.833984 L 645.44141 21.535156 L 640.14258 21.535156 z M 282.40039 35.234375 C 262.50039 35.234375 259.80078 51.934768 259.80078 66.634766 L 259.80078 101.93555 C 261.40078 103.33555 263.29922 104.43555 265.19922 105.43555 L 265.19922 68.333984 C 265.19922 51.733986 267.60078 40.134766 283.30078 40.134766 L 284.69922 40.134766 C 300.29922 40.134766 302.80078 51.733986 302.80078 68.333984 L 302.80078 105.63477 C 304.70078 104.63477 306.59922 103.53477 308.19922 102.13477 L 308.19922 66.833984 C 307.99922 51.933986 305.10039 35.234375 285.40039 35.234375 L 282.40039 35.234375 z M 211.59961 35.333984 C 199.29961 35.333984 184.80078 39.834768 184.80078 70.634766 C 184.80078 99.234762 197.29922 105.63477 212.69922 105.63477 C 220.99922 105.63477 228.2 104.13398 234.5 100.33398 L 232.5 95.833984 C 226.2 99.433984 220.20078 100.83398 212.80078 100.83398 C 200.60078 100.83398 190.99922 96.433982 190.19922 74.833984 L 190.09961 72.134766 L 237.09961 72.234375 L 237.19922 72.333984 L 237.19922 70.535156 C 237.19922 44.03516 227.49961 35.333984 211.59961 35.333984 z M 352.59961 35.333984 C 341.79961 35.333984 331.80078 40.233986 331.80078 52.833984 C 331.80078 65.433984 340.70039 69.234766 351.40039 72.134766 C 361.50039 74.934764 369.80078 77.034377 369.80078 86.234375 C 369.80078 97.234373 361.8 100.83398 353 100.83398 C 345.1 100.83398 337.49922 98.735156 331.69922 95.035156 L 329.5 99.333984 C 336.2 103.83399 344.40078 105.53516 353.30078 105.53516 C 364.90078 105.53516 375 100.43438 375 86.234375 C 375 73.534377 365.19961 70.633984 353.59961 67.333984 C 343.09961 64.433986 336.90039 61.735156 336.90039 53.035156 C 336.90039 43.035158 343.79922 40.134766 352.69922 40.134766 C 358.49922 40.134766 364.1 41.035156 369 43.535156 L 371 39.035156 C 365.1 36.035156 358.79961 35.333984 352.59961 35.333984 z M 497.59961 35.333984 C 487.79961 35.733984 481.19961 39.134766 477.09961 45.634766 L 477.09961 36.134766 C 475.19961 36.334766 473.50078 36.734375 471.80078 37.234375 L 471.80078 104.43555 C 473.40078 104.93555 475.19961 105.33516 477.09961 105.53516 L 477.09961 70.734375 L 477.09961 70.333984 C 477.09961 52.033986 480.90039 39.935547 499.90039 39.935547 L 500 39.935547 L 497.59961 35.333984 z M 772.125 35.333984 C 761.325 35.333984 751.32422 40.233986 751.32422 52.833984 C 751.32422 65.433984 760.22383 69.234766 770.92383 72.134766 C 781.02383 74.934764 789.32422 77.034377 789.32422 86.234375 C 789.32422 97.234373 781.32344 100.83398 772.52344 100.83398 C 764.62344 100.83398 757.02461 98.735156 751.22461 95.035156 L 749.02344 99.333984 C 755.72344 103.83399 763.92422 105.53516 772.82422 105.53516 C 784.42422 105.53516 794.52344 100.43438 794.52344 86.234375 C 794.52344 73.534377 784.725 70.633984 773.125 67.333984 C 762.625 64.433986 756.42383 61.735156 756.42383 53.035156 C 756.42383 43.035158 763.32461 40.134766 772.22461 40.134766 C 778.02461 40.134766 783.62344 41.035156 788.52344 43.535156 L 790.52344 39.035156 C 784.62344 36.035156 778.325 35.333984 772.125 35.333984 z M 421.5 35.435547 C 401.4 35.435547 393.5 46.63516 393.5 70.535156 C 393.5 94.435154 401.4 105.63477 421.5 105.63477 C 441.6 105.63477 449.5 94.435154 449.5 70.535156 C 449.5 46.53516 441.6 35.335547 421.5 35.435547 z M 699.11328 35.910156 C 693.7576 35.910156 688.40127 36.540914 683.20312 39.21875 L 685.56641 43.787109 C 689.97696 41.739352 694.38768 40.951172 699.11328 40.951172 C 716.28293 40.951172 721.16426 50.245196 722.10938 64.894531 C 690.92047 66.154689 675.64258 69.934941 675.64258 86.001953 C 675.64258 97.500893 680.68259 105.53516 698.00977 105.53516 L 699.11328 105.53516 C 719.59084 105.53516 727.62305 94.350616 727.62305 70.722656 C 727.62305 46.937178 719.59084 35.910156 699.11328 35.910156 z M 211.5 40.134766 C 223.6 40.134766 231.80078 46.533988 231.80078 67.333984 L 189.90039 67.333984 C 190.40039 44.333988 200.5 40.134766 211.5 40.134766 z M 421.40039 40.134766 C 440.40039 40.134766 444.19922 52.235158 444.19922 70.535156 C 444.19922 88.735154 440.40039 100.83555 421.40039 100.93555 C 402.40039 100.93555 398.59961 88.835154 398.59961 70.535156 C 398.59961 52.235158 402.50039 40.134766 421.40039 40.134766 z M 589.44141 40.900391 C 608.34141 40.900391 612.14063 52.999221 612.14062 71.199219 C 612.14062 89.399217 608.34141 101.5 589.44141 101.5 C 570.54141 101.5 566.74023 89.499217 566.74023 71.199219 C 566.74023 52.999221 570.54141 40.900391 589.44141 40.900391 z M 166.80078 41.734375 L 166.90039 41.935547 L 166.90039 41.734375 L 166.80078 41.734375 z M 664.44141 43.634766 L 664.54297 43.833984 L 664.54297 43.634766 L 664.44141 43.634766 z M 510.58789 62.650391 C 510.41113 62.650391 510.26758 62.791993 510.26758 62.96875 L 510.26758 69.072266 C 510.26758 69.249023 510.41113 69.390625 510.58789 69.390625 L 545.1543 69.390625 C 545.33105 69.390625 545.47266 69.249023 545.47266 69.072266 L 545.47266 62.96875 C 545.47266 62.791993 545.33105 62.650391 545.1543 62.650391 L 510.58789 62.650391 z M 722.26758 69.621094 C 722.26758 69.936134 722.26826 70.250096 722.42578 70.722656 C 722.42578 88.837425 718.48693 100.49414 699.26953 100.49414 C 695.01649 100.49414 690.92168 99.863576 686.82617 98.130859 C 685.72353 97.6583 684.77852 97.027833 684.14844 96.240234 C 681.94316 93.87744 681.1543 90.570709 681.1543 86.160156 C 681.1543 73.086019 696.1193 70.881252 722.26758 69.621094 z "
     transform="translate(-6.103516e-5,0)"
     id="path5" /><path
     class="st1"
     d="m 57.499942,61.53473 c -1.3,1.9 -2.9,4.399999 -4.7,7.1 7.700001,11.6 18.400001,27.800002 19.400001,29.200002 2.8,4.600008 6.500001,8.500008 10.900001,11.500018 0.1,0.2 4.7,2.9 10.300001,4.7 0.4,0.1 0.8,0.2 1.2,0.3 l 10.899995,0 0,-4.9 c -4.1,-0.5 -7.199995,-1.00001 -8.999995,-1.60001 -4.500001,-1.4 -8.000001,-3.7 -8.000001,-3.7 -3.3,-2.1 -5.9,-4.800009 -7.9,-7.700008 -1,-1.5 -15.000001,-22.500002 -22.900002,-34.400003 l 0,0 c 0,-0.2 -0.1,-0.299999 -0.2,-0.5 M 10.89994,8.7347265 l -10.90000103516,0 0,4.8999995 c 4.10000003516,0.5 7.20000003516,1 9.00000003516,1.6 4.500001,1.4 8.000001,3.700001 8.000001,3.700001 3.3,2.1 5.9,4.8 7.9,7.699999 1.000001,1.5 15.000001,22.500002 22.900002,34.400003 l 0,0 c 0.1,0.200001 0.2,0.3 0.3,0.5 1.3,-1.9 2.9,-4.4 4.7,-7.1 -7.7,-11.600002 -18.400001,-27.800003 -19.400001,-29.200003 -2.8,-4.599999 -6.5,-8.5 -10.900001,-11.5 -0.1,-0.2 -4.7,-2.9 -10.3,-4.6999995 -0.4,-0.1 -0.8,-0.2 -1.3,-0.3"
     id="path7-3"
     inkscape:connector-curvature="0"
     style="fill:#ff3930;fill-opacity:0.27843139" /></svg>