<?xml version="1.0" encoding="utf-8"?>
<!-- Generator: Adobe Illustrator 21.1.0, SVG Export Plug-In . SVG Version: 6.00 Build 0)  -->
<svg version="1.1" id="Calque_1" xmlns="http://www.w3.org/2000/svg" xmlns:xlink="http://www.w3.org/1999/xlink" x="0px" y="0px"
	 viewBox="0 0 238.8 93.5" style="enable-background:new 0 0 238.8 93.5;" width="710.714286" height="278.27381" xml:space="preserve">
<style type="text/css">
	.st0{fill:#7FD787;}
	.st1{opacity:0.28;fill:#7FD787;enable-background:new    ;}
	.st2{fill:#666666;}
	.st3{fill:#B9BABA;}
</style>
<g>
	<g>
		<path class="st0" d="M79.7,15.9L79.7,15.9L79.7,15.9L79.7,15.9z M71.4,38.4c-0.5-1.2-0.8-2.5-0.8-3.8c0-0.9,0-18.8,0-18.8h9.1
			l-1.2-2.3h-7.9V5.2H68v8.2h-8l-1.2,2.4H68c0,0,0,17.1,0,18c-0.1,1.9,0.2,3.9,0.9,5.5c0,0.1,0.8,1.6,1.9,3.1
			c0.6,0.6,1.8,1.7,3.5,2.9l1.2-2.4c-1.3-0.9-2.2-1.6-2.7-2.2C71.9,39.5,71.4,38.4,71.4,38.4z M42.3,4.9c-1.6,1-2.8,2.3-3.8,3.7
			C38.1,9.3,31.4,19.2,27.7,25C24.5,29.7,16.5,41.7,16,42.5c-1.3,2.2-3.1,4.1-5.2,5.5c0,0.1-2.3,1.4-5,2.3c-0.2,0-0.4,0.1-0.5,0.1
			H45c-0.1,0-0.2-0.1-0.4-0.1c-2.7-0.9-4.9-2.2-5-2.3c-2.1-1.4-3.9-3.3-5.2-5.5c-0.4-0.6-5.6-8.4-9.3-13.9c0.9-1.3,1.6-2.5,2.3-3.3
			c0,0.1,0.1,0.1,0.1,0.2c3.8,5.7,10.5,15.7,10.9,16.4c1,1.4,2.2,2.7,3.8,3.7c0,0,1.6,1.1,3.8,1.7c0.9,0.3,2.4,0.5,4.3,0.8v2.3h0.1
			v-48c-1.9,0.2-3.5,0.4-4.3,0.8C44,3.8,42.3,4.9,42.3,4.9z M11.9,41.9c0.4-0.8,7.1-10.7,10.9-16.4c3.1-4.9,11.1-16.7,11.7-17.6
			c1.3-2.2,3.1-4.1,5.2-5.5c0-0.1,2.3-1.4,5-2.3C44.8,0.1,45,0,45.2,0H5.4c0.1,0,0.3,0.1,0.4,0.1c2.7,0.9,4.9,2.2,5,2.3
			c2.1,1.4,3.9,3.3,5.2,5.5c0.4,0.6,5.6,8.4,9.3,13.9c-0.9,1.3-1.6,2.5-2.3,3.3c0-0.1-0.1-0.1-0.1-0.2C19,19.3,12.3,9.3,11.9,8.5
			c-1-1.4-2.2-2.7-3.8-3.7c0,0-1.6-1.1-3.8-1.7C3.5,2.8,1.9,2.6,0,2.4v45.8c1.9-0.2,3.5-0.4,4.3-0.8c2.2-0.6,3.8-1.7,3.8-1.7
			C9.7,44.5,11,43.3,11.9,41.9z M201.3,12.7c-9.6,0-13.4,5.4-13.4,16.7c0,11.5,3.8,16.7,13.4,16.7c9.6,0,13.4-5.4,13.4-16.7
			C214.7,18,210.9,12.7,201.3,12.7z M201.3,44.1c-9.1,0-10.9-5.7-10.9-14.5s1.8-14.5,10.9-14.5c9.1,0,10.9,5.7,10.9,14.5
			C212.2,38.2,210.3,44,201.3,44.1z M237.7,12.7c-4.6,0.2-7.8,1.8-9.8,5v-4.5c-0.9,0.1-1.7,0.3-2.5,0.5v32.1
			c0.8,0.2,1.6,0.4,2.5,0.5v-17c0-8.8,1.8-14.5,10.9-14.5l0,0L237.7,12.7z M101,12.7c-5.8,0-12.7,2.2-12.7,16.9
			c0,13.6,5.9,16.7,13.3,16.7c4,0,7.5-0.8,10.4-2.5l-1-2.2c-3,1.7-5.8,2.4-9.4,2.4c-5.8,0-10.4-2.1-10.8-12.4v-1.3h22.5l0,0v-0.9
			C113.3,16.9,108.7,12.7,101,12.7z M90.6,28c0.2-11,5.1-13,10.3-13c5.7,0,9.7,3,9.7,13H90.6z M136.3,12.6h-1.4
			c-9.5,0-10.8,8-10.8,15v16.9c0.8,0.6,1.6,1.2,2.6,1.6V28.4c0-7.9,1.2-13.5,8.6-13.5h0.6c7.5,0,8.6,5.5,8.6,13.5v17.8
			c0.9-0.4,1.8-1,2.6-1.6V27.8C147.1,20.6,145.7,12.6,136.3,12.6z M168.9,28c-5-1.4-8-2.7-8-6.8c0-4.8,3.3-6.2,7.6-6.2
			c2.8,0,5.4,0.4,7.8,1.6l1-2.2c-2.8-1.4-5.8-1.7-8.8-1.7c-5.2,0-9.9,2.4-9.9,8.3s4.2,7.8,9.4,9.2c4.9,1.3,8.8,2.4,8.8,6.7
			c0,5.3-3.8,7-8,7c-3.8,0-7.5-1-10.2-2.8l-1.1,2.1c3.2,2.2,7.1,2.9,11.3,2.9c5.5,0,10.4-2.5,10.4-9.2
			C179.1,30.9,174.4,29.6,168.9,28z"/>
		<path class="st1" d="M27.4,25.2c-0.6,0.9-1.4,2.1-2.3,3.3c3.7,5.5,8.8,13.3,9.3,13.9c1.3,2.2,3.1,4.1,5.2,5.5c0,0.1,2.3,1.4,5,2.3
			c0.2,0,0.4,0.1,0.5,0.1h5.2V48c-1.9-0.2-3.5-0.4-4.3-0.8c-2.2-0.6-3.8-1.7-3.8-1.7c-1.6-1-2.8-2.3-3.8-3.7
			C38,41,31.3,31.1,27.5,25.4l0,0C27.5,25.4,27.5,25.3,27.4,25.2 M5.2,0H0v2.4c1.9,0.2,3.5,0.4,4.3,0.8c2.2,0.6,3.8,1.7,3.8,1.7
			c1.6,1,2.8,2.3,3.8,3.7C12.3,9.3,19,19.2,22.8,25l0,0c0,0.1,0.1,0.1,0.1,0.2c0.6-0.9,1.4-2.1,2.3-3.3C21.5,16.4,16.4,8.6,15.9,8
			c-1.3-2.2-3.1-4.1-5.2-5.5c0-0.1-2.3-1.4-5-2.3C5.6,0.1,5.4,0,5.2,0"/>
	</g>
	<path class="st2" d="M187.6,86L187.6,86c0,1.6-0.2,2.9-0.5,3.9c-0.4,1-0.9,1.7-1.5,2.3c-0.7,0.5-1.5,0.9-2.4,1.1
		c-0.9,0.2-2,0.3-3.1,0.3c-1.5,0-2.7-0.2-3.5-0.7c-0.8-0.5-1.2-1.1-1.2-1.7c0-0.6,0.2-1,0.7-1.4c0.5-0.4,1.1-0.6,1.8-0.6
		c0.6,0,1,0.2,1.4,0.5c0.3,0.3,0.6,0.6,0.9,0.9c0.3,0.3,0.5,0.6,0.6,0.7c0.2,0.1,0.3,0.2,0.5,0.2c0.3,0,0.5-0.2,0.7-0.5
		c0.2-0.4,0.2-1.1,0.2-2.1V68.9l5.5-1.5V86z M200.8,80.9c-0.4,0.6-0.9,1.2-1.5,1.6c-0.6,0.4-1,0.6-1.5,0.6c-0.4,0-0.7-0.1-1-0.2
		s-0.6-0.3-0.8-0.5c-0.2-0.2-0.4-0.5-0.6-0.8c-0.1-0.3-0.2-0.6-0.2-1V67.9h-5.5v12.7c0,0.8,0.2,1.5,0.5,2.2c0.3,0.7,0.8,1.3,1.4,1.8
		c0.6,0.5,1.2,0.9,2,1.2c0.8,0.3,1.6,0.4,2.5,0.4c0.8,0,1.6-0.2,2.4-0.6s1.6-0.9,2.3-1.5V86h5.5v-18h-5.5V80.9z M208.5,86l5.4,0
		V59.2l-5.4,1.5V86z M216.1,86h5.5V67.4l-5.5,1.5V86z M238.6,72.5V86l-5.5,0v-1.4c-0.3,0.3-0.6,0.5-0.9,0.7c-0.3,0.2-0.6,0.4-1,0.6
		c-0.4,0.2-0.8,0.3-1.2,0.4c-0.4,0.1-1,0.1-1.6,0.1c-0.8,0-1.6-0.1-2.2-0.4c-0.7-0.2-1.2-0.6-1.7-1c-0.5-0.4-0.8-0.9-1.1-1.5
		c-0.2-0.6-0.4-1.2-0.4-1.9c0-0.7,0.1-1.3,0.4-1.9c0.3-0.6,0.6-1.1,1.1-1.5c0.5-0.4,1-0.8,1.6-1.2c0.6-0.4,1.3-0.7,2-1
		s1.4-0.6,2.2-0.8c0.8-0.2,1.5-0.5,2.2-0.7l0.6-0.1v-1.8c0-1.2-0.2-2-0.7-2.4c-0.4-0.5-1-0.7-1.8-0.7c-0.9,0-1.5,0.2-1.8,0.6
		c-0.3,0.4-0.5,0.9-0.5,1.5c0,0.3,0,0.7-0.1,1c-0.1,0.3-0.2,0.6-0.4,0.8c-0.2,0.2-0.4,0.4-0.8,0.6c-0.3,0.1-0.7,0.2-1.2,0.2
		c-0.8,0-1.4-0.2-1.9-0.7c-0.5-0.4-0.7-1-0.7-1.7c0-0.6,0.2-1.2,0.6-1.7c0.4-0.5,1-1,1.7-1.4c0.7-0.4,1.6-0.7,2.5-0.9
		c0.9-0.2,1.9-0.3,3-0.3c1.3,0,2.4,0.1,3.3,0.3c0.9,0.2,1.7,0.6,2.3,1c0.6,0.4,1.1,1,1.3,1.6C238.5,71,238.6,71.7,238.6,72.5z
		 M233.1,76.7c-0.5,0.2-1.1,0.5-1.6,0.8c-0.5,0.3-1,0.6-1.5,1c-0.4,0.4-0.8,0.7-1.1,1.1c-0.3,0.4-0.4,0.8-0.4,1.2c0,0.3,0,0.7,0.1,1
		c0.1,0.3,0.2,0.6,0.4,0.8c0.2,0.2,0.3,0.4,0.5,0.5c0.2,0.1,0.4,0.2,0.6,0.2c0.4,0,0.9-0.1,1.4-0.4c0.5-0.3,1-0.6,1.5-1V76.7
		L233.1,76.7z"/>
	<path class="st3" d="M222.9,62.7c0,2-1.6,3.7-3.7,3.7c-2,0-3.7-1.6-3.7-3.7c0-2,1.6-3.7,3.7-3.7C221.2,59,222.9,60.6,222.9,62.7z
		 M184.8,59c-2,0-3.7,1.6-3.7,3.7c0,2,1.6,3.7,3.7,3.7s3.7-1.6,3.7-3.7C188.5,60.6,186.8,59,184.8,59z M227.3,55
		c0-2-1.6-3.7-3.7-3.7c-2,0-3.7,1.6-3.7,3.7s1.6,3.7,3.7,3.7C225.7,58.7,227.3,57,227.3,55z M228.1,59c-2,0-3.7,1.6-3.7,3.7
		c0,2,1.6,3.7,3.7,3.7c2,0,3.7-1.6,3.7-3.7C231.8,60.6,230.1,59,228.1,59z"/>
</g>
</svg>
