<?xml version="1.0" encoding="UTF-8" standalone="no"?>
<!-- Created with Inkscape (http://www.inkscape.org/) -->

<svg
   xmlns:dc="http://purl.org/dc/elements/1.1/"
   xmlns:cc="http://creativecommons.org/ns#"
   xmlns:rdf="http://www.w3.org/1999/02/22-rdf-syntax-ns#"
   xmlns:svg="http://www.w3.org/2000/svg"
   xmlns="http://www.w3.org/2000/svg"
   xmlns:sodipodi="http://sodipodi.sourceforge.net/DTD/sodipodi-0.dtd"
   xmlns:inkscape="http://www.inkscape.org/namespaces/inkscape"
   width="93.34153"
   height="32.905998"
   viewBox="0 0 93.341532 32.905999"
   id="svg4217"
   version="1.1"
   inkscape:version="0.91 r13725"
   sodipodi:docname="cling-logo.svg"
   inkscape:export-filename="/home/sylvain/dev/QuantStack/xtensor/notebooks/images/cling-logo.png"
   inkscape:export-xdpi="90"
   inkscape:export-ydpi="90">
  <defs
     id="defs4219" />
  <sodipodi:namedview
     id="base"
     pagecolor="#ffffff"
     bordercolor="#666666"
     borderopacity="1.0"
     inkscape:pageopacity="0.0"
     inkscape:pageshadow="2"
     inkscape:zoom="7.919596"
     inkscape:cx="18.539047"
     inkscape:cy="15.025379"
     inkscape:document-units="px"
     inkscape:current-layer="layer1"
     showgrid="false"
     units="px"
     inkscape:window-width="1847"
     inkscape:window-height="1056"
     inkscape:window-x="73"
     inkscape:window-y="24"
     inkscape:window-maximized="1"
     fit-margin-top="0"
     fit-margin-left="0"
     fit-margin-right="0"
     fit-margin-bottom="0" />
  <metadata
     id="metadata4222">
    <rdf:RDF>
      <cc:Work
         rdf:about="">
        <dc:format>image/svg+xml</dc:format>
        <dc:type
           rdf:resource="http://purl.org/dc/dcmitype/StillImage" />
        <dc:title></dc:title>
      </cc:Work>
    </rdf:RDF>
  </metadata>
  <g
     inkscape:label="Layer 1"
     inkscape:groupmode="layer"
     id="layer1"
     transform="translate(-71.564699,-1012.1585)">
    <g
       id="g9"
       transform="matrix(0.13071895,0,0,0.13071895,64.898033,1004.0737)"
       style="fill:#5a5a5a;fill-opacity:1">
      <path
         style="fill:#5a5a5a;fill-opacity:1"
         inkscape:connector-curvature="0"
         d="m 153,274.175 c -56.243,0 -102,-45.757 -102,-102 0,-56.243 45.757,-102 102,-102 36.292,0 70.139,19.53 88.331,50.968 l -44.143,25.544 C 188.083,130.951 171.15,121.175 153,121.175 c -28.122,0 -51,22.878 -51,51 0,28.121 22.878,51 51,51 18.152,0 35.085,-9.776 44.191,-25.515 l 44.143,25.543 c -18.192,31.441 -52.04,50.972 -88.334,50.972 z"
         id="path11" />
    </g>
    <g
       id="g13"
       transform="matrix(0.13071895,0,0,0.13071895,51.398145,1004.0737)">
      <path
         style="fill:#5a5a5a;fill-opacity:1"
         d="m 243.666,177.841 11.334,0 0,-11.333 -11.334,0 0,-11.333 -11.332,0 0,11.333 -11.334,0 0,11.333 11.334,0 0,11.334 11.332,0 z"
         id="polygon15"
         inkscape:connector-curvature="0" />
    </g>
    <g
       id="g17"
       transform="matrix(0.13071895,0,0,0.13071895,51.398145,1004.0737)"
       style="fill:#5a5a5a;fill-opacity:1">
      <path
         style="fill:#5a5a5a;fill-opacity:1"
         d="m 286.166,177.841 11.334,0 0,-11.333 -11.334,0 0,-11.333 -11.332,0 0,11.333 -11.334,0 0,11.333 11.334,0 0,11.334 11.332,0 z"
         id="polygon19"
         inkscape:connector-curvature="0" />
    </g>
    <g
       style="font-style:normal;font-weight:normal;font-size:33.72947693px;line-height:125%;font-family:sans-serif;letter-spacing:0px;word-spacing:0px;fill:#5a5a5a;fill-opacity:1;stroke:none;stroke-width:1px;stroke-linecap:butt;stroke-linejoin:miter;stroke-opacity:1"
       id="text4765"
       transform="translate(0.799996,0)">
      <path
         d="m 98.393037,1012.1585 5.896073,0 0,25.6265 -5.896073,0 0,-25.6265 z"
         style="font-style:normal;font-variant:normal;font-weight:bold;font-stretch:normal;font-family:sans-serif;-inkscape-font-specification:'sans-serif Bold';fill:#5a5a5a;fill-opacity:1"
         id="path4221"
         inkscape:connector-curvature="0" />
      <path
         d="m 109.98754,1019.3392 5.89607,0 0,18.4458 -5.89607,0 0,-18.4458 z m 0,-7.1807 5.89607,0 0,4.8091 -5.89607,0 0,-4.8091 z"
         style="font-style:normal;font-variant:normal;font-weight:bold;font-stretch:normal;font-family:sans-serif;-inkscape-font-specification:'sans-serif Bold';fill:#5a5a5a;fill-opacity:1"
         id="path4223"
         inkscape:connector-curvature="0" />
      <path
         d="m 140.12668,1026.5529 0,11.2321 -5.92901,0 0,-1.8281 0,-6.7689 q 0,-2.3881 -0.11529,-3.2939 -0.0988,-0.9058 -0.36233,-1.3341 -0.34586,-0.5764 -0.93876,-0.8893 -0.5929,-0.3294 -1.3505,-0.3294 -1.84458,0 -2.89862,1.4329 -1.05405,1.4163 -1.05405,3.9362 l 0,9.0746 -5.89607,0 0,-18.4458 5.89607,0 0,2.701 q 1.33403,-1.614 2.83275,-2.3716 1.49872,-0.774 3.31036,-0.774 3.19508,0 4.84203,1.9598 1.66342,1.9599 1.66342,5.6985 z"
         style="font-style:normal;font-variant:normal;font-weight:bold;font-stretch:normal;font-family:sans-serif;-inkscape-font-specification:'sans-serif Bold';fill:#5a5a5a;fill-opacity:1"
         id="path4225"
         inkscape:connector-curvature="0" />
      <path
         d="m 158.17722,1034.6558 q -1.21874,1.614 -2.68453,2.3716 -1.46578,0.7576 -3.39271,0.7576 -3.37624,0 -5.58315,-2.6516 -2.20691,-2.668 -2.20691,-6.7854 0,-4.1338 2.20691,-6.7689 2.20691,-2.6516 5.58315,-2.6516 1.92693,0 3.39271,0.7576 1.46579,0.7576 2.68453,2.3881 l 0,-2.734 5.92901,0 0,16.5848 q 0,4.4467 -2.81628,6.7854 -2.79981,2.3551 -8.13592,2.3551 -1.7293,0 -3.3433,-0.2635 -1.61401,-0.2635 -3.24449,-0.807 l 0,-4.595 q 1.54813,0.8894 3.03038,1.3176 1.48226,0.4447 2.98098,0.4447 2.89862,0 4.24912,-1.2682 1.3505,-1.2681 1.3505,-3.9691 l 0,-1.2682 z m -3.8868,-11.4792 q -1.82811,0 -2.84922,1.3505 -1.0211,1.3505 -1.0211,3.8209 0,2.5363 0.98816,3.8539 0.98817,1.3011 2.88216,1.3011 1.84458,0 2.86569,-1.3505 1.02111,-1.3505 1.02111,-3.8045 0,-2.4704 -1.02111,-3.8209 -1.02111,-1.3505 -2.86569,-1.3505 z"
         style="font-style:normal;font-variant:normal;font-weight:bold;font-stretch:normal;font-family:sans-serif;-inkscape-font-specification:'sans-serif Bold';fill:#5a5a5a;fill-opacity:1"
         id="path4227"
         inkscape:connector-curvature="0" />
    </g>
  </g>
</svg>
